G04 #@! TF.GenerationSoftware,KiCad,Pcbnew,7.0.8*
G04 #@! TF.CreationDate,2023-11-01T04:13:04+08:00*
G04 #@! TF.ProjectId,owl,6f776c2e-6b69-4636-9164-5f7063625858,rev?*
G04 #@! TF.SameCoordinates,Original*
G04 #@! TF.FileFunction,Profile,NP*
%FSLAX46Y46*%
G04 Gerber Fmt 4.6, Leading zero omitted, Abs format (unit mm)*
G04 Created by KiCad (PCBNEW 7.0.8) date 2023-11-01 04:13:04*
%MOMM*%
%LPD*%
G01*
G04 APERTURE LIST*
G04 #@! TA.AperFunction,Profile*
%ADD10C,0.200000*%
G04 #@! TD*
%ADD11C,0.200000*%
G04 #@! TA.AperFunction,Profile*
%ADD12C,0.120000*%
G04 #@! TD*
G04 APERTURE END LIST*
D10*
X77074850Y-57775222D02*
X112886402Y-57775222D01*
X114311250Y-53050822D02*
X131860202Y-53050822D01*
X74509450Y-113628598D02*
X74509450Y-60340622D01*
D11*
X124036910Y-116044138D02*
X124245926Y-116046252D01*
X124446124Y-116063909D01*
X124729888Y-116118068D01*
X124993814Y-116203422D01*
X125237903Y-116317706D01*
X125462159Y-116458655D01*
X125666582Y-116624005D01*
X125851174Y-116811491D01*
X126015938Y-117018847D01*
X126160874Y-117243810D01*
X126285986Y-117484114D01*
X126323285Y-117567234D01*
D10*
X133285050Y-50808926D02*
G75*
G03*
X132572626Y-51521358I50J-712474D01*
G01*
X215213091Y-58261195D02*
G75*
G03*
X212688814Y-55478956I-2516791J252795D01*
G01*
X131860202Y-53050826D02*
G75*
G03*
X132572626Y-52338398I-2J712426D01*
G01*
X151293650Y-53048374D02*
X168893402Y-53048374D01*
X112886402Y-57775226D02*
G75*
G03*
X113598826Y-57062798I-2J712426D01*
G01*
X170318250Y-55478956D02*
X212688814Y-55478956D01*
X150581226Y-51521358D02*
X150581226Y-52335950D01*
X169605826Y-53760798D02*
G75*
G03*
X168893402Y-53048374I-712326J98D01*
G01*
X214461285Y-138268234D02*
X203503725Y-152151874D01*
X124036910Y-116044138D02*
X77135906Y-116023793D01*
D11*
X199070000Y-152570000D02*
X199287655Y-152720015D01*
X199477480Y-152817643D01*
X199686233Y-152902344D01*
X199910442Y-152973965D01*
X200146635Y-153032352D01*
X200391338Y-153077353D01*
X200641080Y-153108815D01*
X200892388Y-153126585D01*
X201141791Y-153130510D01*
X201385815Y-153120436D01*
X201465361Y-153113942D01*
D10*
X113598826Y-57062798D02*
X113598826Y-53763246D01*
D11*
X199070000Y-152570000D02*
X197357310Y-151040564D01*
X195621790Y-149563046D01*
X193863766Y-148137545D01*
X192083564Y-146764161D01*
X190281512Y-145442994D01*
X188457935Y-144174144D01*
X186613162Y-142957712D01*
X184747519Y-141793796D01*
X182861332Y-140682496D01*
X180954928Y-139623913D01*
X179028635Y-138618147D01*
X177082778Y-137665297D01*
X175117685Y-136765464D01*
X173133682Y-135918746D01*
X171131097Y-135125245D01*
X169110255Y-134385060D01*
X167071484Y-133698291D01*
X165015110Y-133065037D01*
X162941461Y-132485399D01*
X160850863Y-131959477D01*
X158743642Y-131487370D01*
X156620126Y-131069179D01*
X154480641Y-130705003D01*
X152325514Y-130394942D01*
X150155072Y-130139097D01*
X147969642Y-129937566D01*
X145769550Y-129790450D01*
X143555124Y-129697849D01*
X141326689Y-129659863D01*
X139084573Y-129676591D01*
X136829102Y-129748134D01*
X134560604Y-129874592D01*
D10*
X169605826Y-53760798D02*
X169605826Y-54766532D01*
X150581226Y-52335950D02*
G75*
G03*
X151293650Y-53048374I712474J50D01*
G01*
D11*
X201465361Y-153113942D02*
X201696712Y-153086269D01*
X201917266Y-153046708D01*
X202127878Y-152994896D01*
X202329402Y-152930471D01*
X202522693Y-152853069D01*
X202708604Y-152762330D01*
X202887991Y-152657890D01*
X203061707Y-152539388D01*
X203230607Y-152406460D01*
X203395545Y-152258745D01*
X203503725Y-152151874D01*
D10*
X215213125Y-88384798D02*
X215213125Y-58261198D01*
X126323285Y-117567234D02*
X131657285Y-127981234D01*
X215213125Y-136056798D02*
X215213125Y-88384798D01*
X169605844Y-54766532D02*
G75*
G03*
X170318250Y-55478956I712456J32D01*
G01*
X74509507Y-113628595D02*
G75*
G03*
X77135906Y-116023793I2510793J115595D01*
G01*
X132572626Y-52338398D02*
X132572626Y-51521358D01*
D11*
X131654875Y-127983644D02*
X131768875Y-128155071D01*
X131894790Y-128328211D01*
X132031998Y-128501176D01*
X132179878Y-128672077D01*
X132337808Y-128839026D01*
X132505167Y-129000135D01*
X132681333Y-129153515D01*
X132865684Y-129297279D01*
X133057600Y-129429537D01*
X133256459Y-129548403D01*
X133461638Y-129651986D01*
X133672518Y-129738400D01*
X133888476Y-129805756D01*
X134108890Y-129852165D01*
X134333140Y-129875740D01*
X134560604Y-129874592D01*
D10*
X77074850Y-57775250D02*
G75*
G03*
X74509450Y-60340622I-50J-2565350D01*
G01*
D11*
X214461285Y-138268234D02*
X214594431Y-138089202D01*
X214714510Y-137902356D01*
X214821556Y-137708437D01*
X214915606Y-137508185D01*
X214996695Y-137302341D01*
X215064859Y-137091648D01*
X215120135Y-136876845D01*
X215162558Y-136658674D01*
X215192164Y-136437876D01*
X215208990Y-136215191D01*
X215213125Y-136066054D01*
D10*
X133285050Y-50808934D02*
X149868802Y-50808934D01*
X150581166Y-51521358D02*
G75*
G03*
X149868802Y-50808934I-712566J-142D01*
G01*
X114311250Y-53050826D02*
G75*
G03*
X113598826Y-53763246I-50J-712374D01*
G01*
D12*
X183668846Y-122176201D02*
X186904505Y-123754337D01*
X182309895Y-124962463D02*
X183668846Y-122176201D01*
X186904505Y-123754337D02*
X185545554Y-126540599D01*
X185545554Y-126540599D02*
X182309895Y-124962463D01*
X139678000Y-72973600D02*
X143278000Y-72973600D01*
X139678000Y-76073600D02*
X139678000Y-72973600D01*
X143278000Y-72973600D02*
X143278000Y-76073600D01*
X143278000Y-76073600D02*
X139678000Y-76073600D01*
X124329600Y-97409600D02*
X120729600Y-97409600D01*
X124329600Y-94309600D02*
X124329600Y-97409600D01*
X120729600Y-97409600D02*
X120729600Y-94309600D01*
X120729600Y-94309600D02*
X124329600Y-94309600D01*
X86280400Y-64186400D02*
X82680400Y-64186400D01*
X86280400Y-61086400D02*
X86280400Y-64186400D01*
X82680400Y-64186400D02*
X82680400Y-61086400D01*
X82680400Y-61086400D02*
X86280400Y-61086400D01*
X187172000Y-82318000D02*
X187172000Y-78718000D01*
X190272000Y-82318000D02*
X187172000Y-82318000D01*
X187172000Y-78718000D02*
X190272000Y-78718000D01*
X190272000Y-78718000D02*
X190272000Y-82318000D01*
X181327200Y-61798800D02*
X177727200Y-61798800D01*
X181327200Y-58698800D02*
X181327200Y-61798800D01*
X177727200Y-61798800D02*
X177727200Y-58698800D01*
X177727200Y-58698800D02*
X181327200Y-58698800D01*
X188488354Y-120507199D02*
X185252695Y-118929063D01*
X189847305Y-117720937D02*
X188488354Y-120507199D01*
X185252695Y-118929063D02*
X186611646Y-116142801D01*
X186611646Y-116142801D02*
X189847305Y-117720937D01*
X124329600Y-59462000D02*
X120729600Y-59462000D01*
X124329600Y-56362000D02*
X124329600Y-59462000D01*
X120729600Y-59462000D02*
X120729600Y-56362000D01*
X120729600Y-56362000D02*
X124329600Y-56362000D01*
X105330400Y-64237200D02*
X101730400Y-64237200D01*
X105330400Y-61137200D02*
X105330400Y-64237200D01*
X101730400Y-64237200D02*
X101730400Y-61137200D01*
X101730400Y-61137200D02*
X105330400Y-61137200D01*
X162170808Y-114975615D02*
X165678540Y-115785438D01*
X161473460Y-117996162D02*
X162170808Y-114975615D01*
X165678540Y-115785438D02*
X164981192Y-118805985D01*
X164981192Y-118805985D02*
X161473460Y-117996162D01*
X101686400Y-80096800D02*
X105286400Y-80096800D01*
X101686400Y-83196800D02*
X101686400Y-80096800D01*
X105286400Y-80096800D02*
X105286400Y-83196800D01*
X105286400Y-83196800D02*
X101686400Y-83196800D01*
X149200000Y-55825000D02*
X152800000Y-55825000D01*
X149200000Y-58925000D02*
X149200000Y-55825000D01*
X152800000Y-55825000D02*
X152800000Y-58925000D01*
X152800000Y-58925000D02*
X149200000Y-58925000D01*
X120729600Y-75310400D02*
X124329600Y-75310400D01*
X120729600Y-78410400D02*
X120729600Y-75310400D01*
X124329600Y-75310400D02*
X124329600Y-78410400D01*
X124329600Y-78410400D02*
X120729600Y-78410400D01*
X143328800Y-95072800D02*
X139728800Y-95072800D01*
X143328800Y-91972800D02*
X143328800Y-95072800D01*
X139728800Y-95072800D02*
X139728800Y-91972800D01*
X139728800Y-91972800D02*
X143328800Y-91972800D01*
X143328800Y-57023600D02*
X139728800Y-57023600D01*
X143328800Y-53923600D02*
X143328800Y-57023600D01*
X139728800Y-57023600D02*
X139728800Y-53923600D01*
X139728800Y-53923600D02*
X143328800Y-53923600D01*
X158677200Y-75310400D02*
X162277200Y-75310400D01*
X158677200Y-78410400D02*
X158677200Y-75310400D01*
X162277200Y-75310400D02*
X162277200Y-78410400D01*
X162277200Y-78410400D02*
X158677200Y-78410400D01*
X203222000Y-104674000D02*
X199622000Y-104674000D01*
X203222000Y-101574000D02*
X203222000Y-104674000D01*
X199622000Y-104674000D02*
X199622000Y-101574000D01*
X199622000Y-101574000D02*
X203222000Y-101574000D01*
X162328000Y-59462000D02*
X158728000Y-59462000D01*
X162328000Y-56362000D02*
X162328000Y-59462000D01*
X158728000Y-59462000D02*
X158728000Y-56362000D01*
X158728000Y-56362000D02*
X162328000Y-56362000D01*
X92200000Y-63225000D02*
X95800000Y-63225000D01*
X92200000Y-66325000D02*
X92200000Y-63225000D01*
X95800000Y-63225000D02*
X95800000Y-66325000D01*
X95800000Y-66325000D02*
X92200000Y-66325000D01*
X154600000Y-116075000D02*
X151000000Y-116075000D01*
X154600000Y-112975000D02*
X154600000Y-116075000D01*
X151000000Y-116075000D02*
X151000000Y-112975000D01*
X151000000Y-112975000D02*
X154600000Y-112975000D01*
X181327200Y-99797200D02*
X177727200Y-99797200D01*
X181327200Y-96697200D02*
X181327200Y-99797200D01*
X177727200Y-99797200D02*
X177727200Y-96697200D01*
X177727200Y-96697200D02*
X181327200Y-96697200D01*
X202878184Y-133908247D02*
X205675909Y-136173800D01*
X200927291Y-136317400D02*
X202878184Y-133908247D01*
X205675909Y-136173800D02*
X203725016Y-138582953D01*
X203725016Y-138582953D02*
X200927291Y-136317400D01*
X139728800Y-112851600D02*
X143328800Y-112851600D01*
X139728800Y-115951600D02*
X139728800Y-112851600D01*
X143328800Y-112851600D02*
X143328800Y-115951600D01*
X143328800Y-115951600D02*
X139728800Y-115951600D01*
X82731200Y-80085600D02*
X86331200Y-80085600D01*
X82731200Y-83185600D02*
X82731200Y-80085600D01*
X86331200Y-80085600D02*
X86331200Y-83185600D01*
X86331200Y-83185600D02*
X82731200Y-83185600D01*
X162277200Y-97409600D02*
X158677200Y-97409600D01*
X162277200Y-94309600D02*
X162277200Y-97409600D01*
X158677200Y-97409600D02*
X158677200Y-94309600D01*
X158677200Y-94309600D02*
X162277200Y-94309600D01*
X105330400Y-102184800D02*
X101730400Y-102184800D01*
X105330400Y-99084800D02*
X105330400Y-102184800D01*
X101730400Y-102184800D02*
X101730400Y-99084800D01*
X101730400Y-99084800D02*
X105330400Y-99084800D01*
X86331200Y-102184800D02*
X82731200Y-102184800D01*
X86331200Y-99084800D02*
X86331200Y-102184800D01*
X82731200Y-102184800D02*
X82731200Y-99084800D01*
X82731200Y-99084800D02*
X86331200Y-99084800D01*
X92250000Y-101225000D02*
X95850000Y-101225000D01*
X92250000Y-104325000D02*
X92250000Y-101225000D01*
X95850000Y-101225000D02*
X95850000Y-104325000D01*
X95850000Y-104325000D02*
X92250000Y-104325000D01*
X177676400Y-77698000D02*
X181276400Y-77698000D01*
X177676400Y-80798000D02*
X177676400Y-77698000D01*
X181276400Y-77698000D02*
X181276400Y-80798000D01*
X181276400Y-80798000D02*
X177676400Y-80798000D01*
M02*
