M48
; DRILL file {KiCad 7.0.8} date 2023 November 01, Wednesday 04:13:07
; FORMAT={-:-/ absolute / metric / decimal}
; #@! TF.CreationDate,2023-11-01T04:13:07+08:00
; #@! TF.GenerationSoftware,Kicad,Pcbnew,7.0.8
; #@! TF.FileFunction,NonPlated,1,2,NPTH
FMAT,2
METRIC
; #@! TA.AperFunction,NonPlated,NPTH,ComponentDrill
T1C0.900
; #@! TA.AperFunction,NonPlated,NPTH,ComponentDrill
T2C1.702
; #@! TA.AperFunction,NonPlated,NPTH,ComponentDrill
T3C3.000
; #@! TA.AperFunction,NonPlated,NPTH,ComponentDrill
T4C3.988
%
G90
G05
T1
X213.325Y-128.4
X213.325Y-131.4
T2
X78.98Y-67.767
X79.031Y-86.766
X79.031Y-105.766
X79.4Y-67.767
X79.451Y-86.766
X79.451Y-105.766
X89.56Y-67.767
X89.611Y-86.766
X89.611Y-105.766
X89.98Y-67.767
X90.031Y-86.766
X90.031Y-105.766
X97.98Y-86.766
X98.03Y-67.818
X98.03Y-105.766
X98.4Y-86.766
X98.45Y-67.818
X98.45Y-105.766
X108.56Y-86.766
X108.61Y-67.818
X108.61Y-105.766
X108.98Y-86.766
X109.03Y-67.818
X109.03Y-105.766
X117.03Y-63.043
X117.03Y-81.991
X117.03Y-100.99
X117.45Y-63.043
X117.45Y-81.991
X117.45Y-100.99
X127.61Y-63.043
X127.61Y-81.991
X127.61Y-100.99
X128.03Y-63.043
X128.03Y-81.991
X128.03Y-100.99
X135.978Y-79.654
X136.029Y-60.604
X136.029Y-98.654
X136.029Y-119.532
X136.398Y-79.654
X136.449Y-60.604
X136.449Y-98.654
X136.449Y-119.532
X146.558Y-79.654
X146.609Y-60.604
X146.609Y-98.654
X146.609Y-119.532
X146.978Y-79.654
X147.029Y-60.604
X147.029Y-98.654
X147.029Y-119.532
X154.977Y-81.991
X154.977Y-100.99
X155.028Y-63.043
X155.397Y-81.991
X155.397Y-100.99
X155.448Y-63.043
X157.071Y-120.657
X157.48Y-120.752
X165.557Y-81.991
X165.557Y-100.99
X165.608Y-63.043
X165.977Y-81.991
X165.977Y-100.99
X166.028Y-63.043
X167.38Y-123.037
X167.789Y-123.132
X173.976Y-84.379
X174.027Y-65.38
X174.027Y-103.378
X174.396Y-84.379
X174.447Y-65.38
X174.447Y-103.378
X177.423Y-126.562
X177.8Y-126.746
X184.556Y-84.379
X184.607Y-65.38
X184.607Y-103.378
X184.976Y-84.379
X185.027Y-65.38
X185.027Y-103.378
X186.932Y-131.2
X187.309Y-131.384
X195.812Y-136.794
X195.922Y-108.255
X196.139Y-137.058
X196.342Y-108.255
X204.035Y-143.452
X204.361Y-143.717
X206.502Y-108.255
X206.922Y-108.255
T3
X79.48Y-71.517
X79.531Y-90.516
X79.531Y-109.516
X80.67Y-70.307
X80.721Y-89.306
X80.721Y-108.306
X81.94Y-72.847
X81.991Y-91.846
X81.991Y-110.846
X84.48Y-73.717
X84.531Y-92.716
X84.531Y-111.716
X87.02Y-72.847
X87.071Y-91.846
X87.071Y-110.846
X88.29Y-70.307
X88.341Y-89.306
X88.341Y-108.306
X89.48Y-71.517
X89.531Y-90.516
X89.531Y-109.516
X98.48Y-90.516
X98.53Y-71.568
X98.53Y-109.516
X99.67Y-89.306
X99.72Y-70.358
X99.72Y-108.306
X100.94Y-91.846
X100.99Y-72.898
X100.99Y-110.846
X103.48Y-92.716
X103.53Y-73.768
X103.53Y-111.716
X106.02Y-91.846
X106.07Y-72.898
X106.07Y-110.846
X107.29Y-89.306
X107.34Y-70.358
X107.34Y-108.306
X108.48Y-90.516
X108.53Y-71.568
X108.53Y-109.516
X117.53Y-66.793
X117.53Y-85.741
X117.53Y-104.74
X118.72Y-65.583
X118.72Y-84.531
X118.72Y-103.53
X119.99Y-68.123
X119.99Y-87.071
X119.99Y-106.07
X122.53Y-68.993
X122.53Y-87.941
X122.53Y-106.94
X125.07Y-68.123
X125.07Y-87.071
X125.07Y-106.07
X126.34Y-65.583
X126.34Y-84.531
X126.34Y-103.53
X127.53Y-66.793
X127.53Y-85.741
X127.53Y-104.74
X136.478Y-83.404
X136.529Y-64.354
X136.529Y-102.404
X136.529Y-123.282
X137.668Y-82.194
X137.719Y-63.144
X137.719Y-101.194
X137.719Y-122.072
X138.938Y-84.734
X138.989Y-65.684
X138.989Y-103.734
X138.989Y-124.612
X141.478Y-85.604
X141.529Y-66.554
X141.529Y-104.604
X141.529Y-125.482
X144.018Y-84.734
X144.069Y-65.684
X144.069Y-103.734
X144.069Y-124.612
X145.288Y-82.194
X145.339Y-63.144
X145.339Y-101.194
X145.339Y-122.072
X146.478Y-83.404
X146.529Y-64.354
X146.529Y-102.404
X146.529Y-123.282
X155.477Y-85.741
X155.477Y-104.74
X155.528Y-66.793
X156.667Y-84.531
X156.667Y-103.53
X156.714Y-124.423
X156.718Y-65.583
X157.937Y-87.071
X157.937Y-106.07
X157.988Y-68.123
X158.146Y-123.512
X158.812Y-126.273
X160.477Y-87.941
X160.477Y-106.94
X160.528Y-68.993
X161.091Y-127.692
X163.017Y-87.071
X163.017Y-106.07
X163.068Y-68.123
X163.762Y-127.416
X164.287Y-84.531
X164.287Y-103.53
X164.338Y-65.583
X165.477Y-85.741
X165.477Y-104.74
X165.528Y-66.793
X165.571Y-125.226
X166.458Y-126.673
X174.476Y-88.129
X174.527Y-69.13
X174.527Y-107.128
X175.666Y-86.919
X175.717Y-67.92
X175.717Y-105.918
X176.228Y-130.152
X176.936Y-89.459
X176.987Y-70.46
X176.987Y-108.458
X177.828Y-129.586
X177.856Y-132.425
X179.476Y-90.329
X179.527Y-71.33
X179.527Y-109.328
X179.758Y-134.321
X182.016Y-89.459
X182.067Y-70.46
X182.067Y-108.458
X182.422Y-134.652
X183.286Y-86.919
X183.337Y-67.92
X183.337Y-105.918
X184.476Y-88.129
X184.527Y-69.13
X184.527Y-107.128
X184.677Y-132.926
X185.216Y-134.535
X193.841Y-140.023
X194.916Y-142.605
X195.527Y-139.832
X196.342Y-144.879
X196.422Y-112.005
X197.612Y-110.795
X198.864Y-145.802
X198.882Y-113.335
X201.422Y-114.205
X201.449Y-144.627
X201.612Y-146.316
X203.962Y-113.335
X205.232Y-110.795
X206.422Y-112.005
T4
X84.48Y-67.767
X84.531Y-86.766
X84.531Y-105.766
X103.48Y-86.766
X103.53Y-67.818
X103.53Y-105.766
X122.53Y-63.043
X122.53Y-81.991
X122.53Y-100.99
X141.478Y-79.654
X141.529Y-60.604
X141.529Y-98.654
X141.529Y-119.532
X160.477Y-81.991
X160.477Y-100.99
X160.528Y-63.043
X162.43Y-121.894
X179.476Y-84.379
X179.527Y-65.38
X179.527Y-103.378
X182.366Y-128.973
X200.087Y-140.255
X201.422Y-108.255
T0
M30
