<?xml version="1.0" encoding="UTF-8" ?>
<!DOCTYPE svg PUBLIC "-//W3C//DTD SVG 1.1//EN" "http://www.w3.org/Graphics/SVG/1.1/DTD/svg11.dtd">
<svg width="1906pt" height="902pt" viewBox="0 0 1906 902" version="1.1" xmlns="http://www.w3.org/2000/svg">
<g id="#ffffffff">
</g>
<g id="#000000ff">
<path fill="#000000" opacity="1.00" d=" M 62.00 3.05 C 90.57 9.22 118.56 17.79 146.86 25.14 C 205.79 41.72 265.00 57.32 323.95 73.89 C 327.78 74.97 331.71 76.62 335.76 75.66 C 418.01 53.54 500.66 32.87 582.27 8.41 C 589.97 6.51 597.49 3.64 605.41 2.83 C 605.46 130.56 605.42 258.29 605.43 386.01 C 604.92 392.54 604.64 399.09 604.95 405.64 C 591.28 411.74 578.50 419.58 565.29 426.59 C 592.70 482.62 624.75 536.26 651.22 592.77 C 652.62 596.41 656.73 600.77 653.62 604.55 C 645.82 614.80 640.24 626.47 633.50 637.40 C 624.65 615.60 613.44 594.85 603.33 573.62 C 597.38 559.65 589.08 546.82 582.90 532.99 C 572.56 542.68 564.00 554.01 554.30 564.31 C 538.68 581.18 524.06 598.97 508.31 615.71 C 507.90 615.64 507.07 615.48 506.66 615.40 C 486.99 581.55 467.70 547.48 448.87 513.15 C 444.63 505.71 440.62 498.11 437.31 490.20 C 436.48 488.64 434.61 490.05 433.45 490.34 C 399.39 504.09 366.19 519.87 332.76 535.09 C 318.62 528.26 304.68 520.99 290.27 514.74 C 270.80 506.12 251.80 496.19 231.43 489.82 C 207.36 531.72 184.23 574.26 159.19 615.59 C 150.18 607.28 143.46 596.85 134.76 588.24 C 123.44 575.85 112.73 562.93 101.76 550.24 C 95.73 544.54 90.49 538.08 85.24 531.67 C 79.52 544.41 71.98 556.25 65.94 568.85 C 54.54 591.39 43.79 614.25 33.75 637.43 C 27.72 628.40 22.72 618.66 15.78 610.26 C 13.69 607.75 11.84 605.04 10.57 602.03 C 27.50 567.46 45.83 533.60 63.33 499.32 C 76.22 475.22 88.15 450.60 101.56 426.78 C 89.56 419.02 76.93 412.25 64.26 405.68 C 62.93 404.97 62.54 403.37 62.10 402.06 C 61.63 391.72 62.71 381.31 61.15 371.04 C 61.12 252.36 61.17 133.67 61.12 14.99 C 61.13 10.98 62.30 7.07 62.00 3.05 M 121.35 221.46 C 110.25 248.65 113.36 280.93 129.50 305.48 C 139.42 320.60 154.06 332.52 170.77 339.41 C 201.42 352.00 238.92 344.85 262.97 322.06 C 268.46 318.06 271.99 312.10 277.15 307.74 C 296.79 340.42 314.72 374.10 333.42 407.33 C 347.21 384.59 359.62 361.06 373.18 338.19 C 379.07 328.28 385.42 318.49 389.73 307.77 C 404.30 325.11 424.20 338.86 446.69 343.20 C 474.45 349.66 505.43 340.83 525.31 320.31 C 544.75 300.09 553.91 270.82 550.49 243.07 C 547.66 225.60 540.92 208.37 528.99 195.06 C 512.61 176.09 487.91 165.27 463.00 164.25 C 438.44 165.70 413.45 175.06 396.70 193.59 C 369.01 223.53 367.81 271.54 388.37 305.66 C 379.96 306.80 371.45 306.11 363.03 307.04 C 334.90 306.66 306.69 308.05 278.64 305.70 C 281.98 296.92 286.13 288.37 288.14 279.15 C 297.35 245.30 286.92 205.23 258.16 183.78 C 244.68 172.65 227.73 166.48 210.47 164.54 C 172.88 162.29 134.29 185.57 121.35 221.46 Z" />
<path fill="#000000" opacity="1.00" d=" M 198.48 197.50 C 223.48 194.39 248.09 211.99 255.18 235.81 C 262.14 255.76 256.87 279.81 241.39 294.39 C 230.30 306.32 213.49 312.93 197.24 311.52 C 174.91 308.81 156.20 290.83 150.48 269.42 C 145.19 251.74 149.79 231.76 161.34 217.52 C 170.28 206.05 184.18 199.19 198.48 197.50 Z" />
<path fill="#000000" opacity="1.00" d=" M 460.46 197.48 C 466.45 197.39 472.45 198.57 478.28 199.94 C 507.51 208.62 524.84 243.59 515.44 272.29 C 508.59 296.14 483.95 314.07 458.93 311.64 C 432.24 309.36 410.44 285.16 407.88 259.00 C 405.70 244.93 410.08 230.06 418.99 218.99 C 428.14 205.44 444.50 198.38 460.46 197.48 Z" />
<path fill="#000000" opacity="1.00" d=" M 1686.29 347.33 C 1693.78 346.31 1701.27 348.42 1708.38 350.60 C 1733.24 359.53 1759.89 361.34 1785.82 365.10 C 1791.89 366.91 1794.70 375.49 1790.08 380.15 C 1785.48 384.69 1778.40 382.88 1772.73 384.67 C 1767.80 385.69 1763.87 389.47 1762.12 394.10 C 1756.85 407.39 1756.82 421.91 1755.99 435.98 C 1753.60 491.62 1751.99 547.31 1751.24 603.00 C 1751.39 613.50 1751.00 624.36 1754.48 634.42 C 1758.50 644.16 1769.51 648.27 1779.21 649.72 C 1795.29 651.97 1811.73 651.77 1827.82 649.66 C 1837.46 648.18 1848.73 644.71 1852.85 634.91 C 1858.31 621.20 1854.95 606.19 1854.99 591.92 C 1854.70 589.36 1857.29 585.94 1859.85 588.08 C 1863.32 592.03 1862.84 597.82 1864.47 602.59 C 1868.10 619.11 1880.65 631.44 1893.32 641.70 C 1898.33 645.60 1903.31 651.06 1902.35 657.95 C 1902.28 671.77 1893.07 684.01 1881.06 690.15 C 1865.36 698.35 1847.31 700.05 1829.93 701.37 C 1804.05 702.63 1777.77 702.47 1752.38 696.71 C 1736.35 693.02 1720.48 686.14 1709.19 673.82 C 1697.15 661.51 1691.58 644.01 1692.16 626.99 C 1694.08 561.65 1696.31 496.31 1698.56 430.98 C 1698.67 419.93 1698.48 408.59 1694.96 398.01 C 1692.83 391.54 1688.08 385.60 1681.35 383.66 C 1675.37 381.46 1669.08 383.09 1662.99 383.34 C 1657.32 381.38 1656.42 372.56 1660.47 368.47 C 1667.62 360.01 1675.82 351.46 1686.29 347.33 Z" />
<path fill="#000000" opacity="1.00" d=" M 1427.28 352.44 C 1436.00 349.54 1444.29 355.93 1447.05 363.96 C 1453.52 382.74 1461.01 401.15 1468.38 419.59 C 1486.95 465.58 1505.50 511.58 1524.76 557.28 C 1527.10 562.33 1528.82 568.19 1533.45 571.67 C 1536.61 573.55 1538.94 569.46 1540.07 567.06 C 1544.58 555.92 1547.37 544.16 1550.65 532.62 C 1561.52 490.41 1572.17 447.89 1576.65 404.45 C 1577.42 397.77 1577.41 389.03 1570.66 385.33 C 1560.55 378.89 1548.28 384.82 1537.40 382.55 C 1531.90 379.06 1535.60 371.52 1538.11 367.16 C 1541.40 361.96 1545.11 356.20 1551.11 353.91 C 1555.65 352.80 1560.26 354.62 1564.77 355.25 C 1589.80 360.75 1615.52 361.49 1641.00 363.17 C 1649.63 363.66 1652.96 376.16 1646.42 381.39 C 1641.28 385.39 1634.23 384.12 1628.39 386.35 C 1621.39 388.28 1616.41 394.36 1613.94 400.94 C 1608.12 416.51 1604.12 432.66 1599.70 448.65 C 1579.90 522.55 1561.33 596.78 1544.49 671.41 C 1543.22 677.10 1542.06 683.41 1537.42 687.42 C 1530.65 693.09 1521.13 694.86 1512.57 693.43 C 1502.86 691.44 1496.23 682.78 1493.08 673.88 C 1468.41 608.18 1443.90 542.41 1419.23 476.71 C 1417.54 473.09 1415.72 468.01 1411.19 467.43 C 1405.77 468.90 1403.88 475.12 1401.64 479.65 C 1373.46 545.40 1347.67 612.24 1325.21 680.16 C 1319.16 697.78 1291.43 701.28 1281.41 685.59 C 1273.38 672.60 1271.38 657.11 1268.62 642.38 C 1258.80 589.54 1248.66 536.74 1237.99 484.06 C 1232.88 459.74 1228.15 435.26 1220.50 411.58 C 1218.00 404.18 1214.97 396.33 1208.59 391.42 C 1203.17 387.34 1195.94 387.32 1189.57 388.53 C 1181.83 391.00 1177.20 379.93 1179.93 373.94 C 1183.75 365.77 1189.65 357.56 1198.15 353.91 C 1210.43 352.37 1222.34 357.10 1234.12 359.92 C 1256.76 366.51 1280.62 367.29 1304.03 366.16 C 1310.95 365.81 1319.28 371.17 1318.57 378.78 C 1318.03 383.37 1312.57 383.57 1309.02 383.93 C 1302.01 384.44 1293.99 387.20 1291.14 394.25 C 1288.09 401.81 1289.54 410.19 1291.14 417.92 C 1301.07 467.80 1309.65 518.04 1322.72 567.23 C 1323.81 570.59 1325.05 576.79 1329.80 575.79 C 1335.76 572.81 1337.30 565.55 1340.01 560.01 C 1365.90 496.82 1389.46 432.71 1413.93 368.96 C 1416.40 362.33 1419.35 353.94 1427.28 352.44 Z" />
<path fill="#000000" opacity="1.00" d=" M 978.32 354.31 C 1013.22 352.58 1048.61 358.93 1080.40 373.53 C 1109.04 387.06 1133.29 410.07 1147.78 438.28 C 1160.01 462.86 1163.75 490.81 1162.98 518.01 C 1162.41 550.31 1157.71 583.50 1142.29 612.32 C 1134.87 625.94 1124.56 637.74 1113.13 648.13 C 1093.56 666.36 1069.24 679.96 1042.76 684.70 C 1015.89 690.40 988.43 693.02 960.98 693.31 C 935.78 694.31 911.00 686.68 888.81 675.20 C 861.95 661.25 840.92 637.88 826.36 611.65 C 810.50 581.86 806.11 547.34 807.28 513.99 C 808.09 490.07 812.75 465.96 823.38 444.37 C 837.16 417.33 859.31 394.66 885.66 379.66 C 914.02 364.19 946.14 356.02 978.32 354.31 M 970.46 381.68 C 951.37 383.62 933.31 392.29 919.25 405.25 C 890.49 431.17 877.19 470.90 877.77 508.98 C 878.42 545.03 883.66 582.12 900.49 614.44 C 908.90 629.90 920.28 644.08 934.86 654.12 C 950.32 664.71 969.41 669.02 987.98 668.45 C 1007.13 668.11 1026.75 662.99 1042.01 651.02 C 1059.72 636.85 1072.62 617.11 1079.70 595.66 C 1094.38 549.99 1094.10 499.60 1078.82 454.13 C 1070.18 429.04 1053.64 405.89 1030.22 392.76 C 1012.14 382.81 990.84 379.67 970.46 381.68 Z" />
<path fill="#000000" opacity="1.00" d=" M 581.44 680.45 C 596.83 669.34 613.30 659.70 627.85 647.48 C 609.06 681.90 590.13 716.26 571.99 751.03 C 562.53 767.18 554.92 784.42 544.41 799.94 C 553.85 811.11 564.41 821.37 572.40 833.71 C 555.53 835.34 538.39 835.04 521.39 835.11 C 513.01 843.43 507.17 853.98 499.53 863.01 C 498.99 863.01 497.91 863.01 497.37 863.00 C 487.62 851.57 479.48 838.74 468.93 828.03 C 467.26 825.71 465.48 828.05 464.95 829.87 C 453.47 852.09 447.34 876.67 435.79 898.82 C 431.77 894.14 430.34 887.96 427.38 882.66 C 417.89 861.00 409.42 838.90 399.41 817.48 C 398.88 815.81 396.90 813.49 399.06 812.19 C 411.55 801.42 425.00 791.83 438.55 782.46 C 485.58 747.63 533.46 713.97 581.44 680.45 Z" />
<path fill="#000000" opacity="1.00" d=" M 41.71 650.55 C 54.16 658.58 66.46 666.84 78.68 675.21 C 129.74 711.46 180.59 747.99 230.99 785.18 C 243.21 795.12 256.96 803.26 268.07 814.53 C 261.08 823.88 257.91 835.40 253.04 845.89 C 245.56 863.45 238.36 881.14 229.86 898.25 C 229.22 897.51 228.61 896.76 228.03 895.99 C 217.10 873.07 211.14 848.09 200.01 825.28 C 188.00 836.71 179.71 851.37 169.10 864.01 C 168.72 864.00 167.98 863.97 167.61 863.96 C 160.97 856.30 155.95 847.39 149.60 839.50 C 148.02 837.34 146.02 834.80 143.02 835.11 C 127.15 835.18 111.26 835.25 95.45 833.78 C 103.70 822.34 113.30 811.99 122.20 801.09 C 104.38 766.29 86.51 731.51 68.04 697.06 C 59.86 681.24 52.50 664.82 41.71 650.55 Z" />
</g>
</svg>
