G04 #@! TF.GenerationSoftware,KiCad,Pcbnew,7.0.8*
G04 #@! TF.CreationDate,2023-10-25T23:55:58+08:00*
G04 #@! TF.ProjectId,owl,6f776c2e-6b69-4636-9164-5f7063625858,rev?*
G04 #@! TF.SameCoordinates,Original*
G04 #@! TF.FileFunction,Soldermask,Bot*
G04 #@! TF.FilePolarity,Negative*
%FSLAX46Y46*%
G04 Gerber Fmt 4.6, Leading zero omitted, Abs format (unit mm)*
G04 Created by KiCad (PCBNEW 7.0.8) date 2023-10-25 23:55:58*
%MOMM*%
%LPD*%
G01*
G04 APERTURE LIST*
G04 Aperture macros list*
%AMRoundRect*
0 Rectangle with rounded corners*
0 $1 Rounding radius*
0 $2 $3 $4 $5 $6 $7 $8 $9 X,Y pos of 4 corners*
0 Add a 4 corners polygon primitive as box body*
4,1,4,$2,$3,$4,$5,$6,$7,$8,$9,$2,$3,0*
0 Add four circle primitives for the rounded corners*
1,1,$1+$1,$2,$3*
1,1,$1+$1,$4,$5*
1,1,$1+$1,$6,$7*
1,1,$1+$1,$8,$9*
0 Add four rect primitives between the rounded corners*
20,1,$1+$1,$2,$3,$4,$5,0*
20,1,$1+$1,$4,$5,$6,$7,0*
20,1,$1+$1,$6,$7,$8,$9,0*
20,1,$1+$1,$8,$9,$2,$3,0*%
%AMRotRect*
0 Rectangle, with rotation*
0 The origin of the aperture is its center*
0 $1 length*
0 $2 width*
0 $3 Rotation angle, in degrees counterclockwise*
0 Add horizontal line*
21,1,$1,$2,0,0,$3*%
G04 Aperture macros list end*
%ADD10R,1.397000X1.397000*%
%ADD11R,1.800000X1.500000*%
%ADD12C,1.397000*%
%ADD13R,0.800000X1.000000*%
%ADD14C,0.900000*%
%ADD15R,1.500000X0.700000*%
%ADD16C,4.200000*%
%ADD17C,1.700000*%
%ADD18C,3.000000*%
%ADD19C,5.250000*%
%ADD20RoundRect,0.432496X-1.398404X-2.445004X1.398404X-2.445004X1.398404X2.445004X-1.398404X2.445004X0*%
%ADD21RoundRect,0.344204X-1.514196X-1.115796X1.514196X-1.115796X1.514196X1.115796X-1.514196X1.115796X0*%
%ADD22RotRect,1.700000X1.000000X154.000000*%
%ADD23R,1.700000X1.000000*%
%ADD24RotRect,1.397000X1.397000X154.000000*%
%ADD25RotRect,1.800000X1.500000X154.000000*%
%ADD26R,1.000000X1.700000*%
%ADD27RotRect,1.700000X1.000000X334.000000*%
%ADD28RotRect,1.397000X1.397000X167.000000*%
%ADD29RotRect,1.800000X1.500000X167.000000*%
%ADD30C,2.100000*%
%ADD31C,1.750000*%
%ADD32RotRect,1.700000X1.000000X167.000000*%
%ADD33RoundRect,0.432496X-2.625455X-1.020081X-0.451927X-2.780169X2.625455X1.020081X0.451927X2.780169X0*%
%ADD34RoundRect,0.344204X-1.878944X0.085778X0.474558X-1.820051X1.878944X-0.085778X-0.474558X1.820051X0*%
%ADD35RotRect,1.700000X1.000000X141.000000*%
%ADD36RotRect,1.397000X1.397000X141.000000*%
%ADD37RotRect,1.800000X1.500000X141.000000*%
%ADD38RoundRect,0.432496X-2.328696X-1.584535X0.185058X-2.810575X2.328696X1.584535X-0.185058X2.810575X0*%
%ADD39RoundRect,0.344204X-1.850083X-0.339091X0.871818X-1.666651X1.850083X0.339091X-0.871818X1.666651X0*%
%ADD40RoundRect,0.250000X-1.500000X0.250000X-1.500000X-0.250000X1.500000X-0.250000X1.500000X0.250000X0*%
%ADD41RoundRect,0.250001X-1.449999X0.499999X-1.449999X-0.499999X1.449999X-0.499999X1.449999X0.499999X0*%
%ADD42RoundRect,0.432496X-1.912569X-2.067766X0.812557X-2.696911X1.912569X2.067766X-0.812557X2.696911X0*%
%ADD43RoundRect,0.344204X-1.726387X-0.746578X1.224388X-1.427818X1.726387X0.746578X-1.224388X1.427818X0*%
%ADD44C,1.524000*%
%ADD45R,1.143000X0.635000*%
G04 APERTURE END LIST*
G36*
X129326190Y-113957043D02*
G01*
X129355574Y-113959132D01*
X129381308Y-113963204D01*
X129407479Y-113969722D01*
X129456850Y-113986876D01*
X129519750Y-114018865D01*
X129576022Y-114059681D01*
X129624890Y-114108378D01*
X129665577Y-114164012D01*
X129697306Y-114225636D01*
X129719300Y-114292307D01*
X129730783Y-114363079D01*
X129730830Y-114421408D01*
X129721210Y-114486022D01*
X129702514Y-114550704D01*
X129675689Y-114613269D01*
X129641682Y-114671533D01*
X129601440Y-114723312D01*
X129555910Y-114766421D01*
X129520234Y-114792734D01*
X129458102Y-114828994D01*
X129395314Y-114853663D01*
X129332007Y-114866680D01*
X129306441Y-114868754D01*
X129238705Y-114866757D01*
X129172041Y-114854370D01*
X129108662Y-114832114D01*
X129050781Y-114800510D01*
X129050312Y-114800198D01*
X128995976Y-114757624D01*
X128948659Y-114707566D01*
X128909128Y-114651521D01*
X128878150Y-114590988D01*
X128856495Y-114527464D01*
X128844928Y-114462448D01*
X128844219Y-114397438D01*
X128854040Y-114327369D01*
X128874857Y-114254775D01*
X128906118Y-114187504D01*
X128947822Y-114125553D01*
X128999971Y-114068923D01*
X129047560Y-114029311D01*
X129101303Y-113996553D01*
X129158699Y-113973891D01*
X129221285Y-113960730D01*
X129290598Y-113956475D01*
X129326190Y-113957043D01*
G37*
G36*
X131377766Y-113953670D02*
G01*
X131448133Y-113962359D01*
X131514306Y-113981309D01*
X131575527Y-114009749D01*
X131631041Y-114046905D01*
X131680089Y-114092004D01*
X131721917Y-114144272D01*
X131755766Y-114202937D01*
X131780881Y-114267225D01*
X131796505Y-114336364D01*
X131801881Y-114409579D01*
X131800848Y-114440725D01*
X131790411Y-114512632D01*
X131769225Y-114581329D01*
X131737890Y-114645704D01*
X131697009Y-114704650D01*
X131647185Y-114757056D01*
X131589019Y-114801813D01*
X131557567Y-114819874D01*
X131517270Y-114838492D01*
X131475905Y-114853782D01*
X131438521Y-114863669D01*
X131429330Y-114864535D01*
X131410155Y-114865128D01*
X131384859Y-114865217D01*
X131356472Y-114864760D01*
X131352892Y-114864664D01*
X131318913Y-114863083D01*
X131291981Y-114860091D01*
X131267829Y-114855036D01*
X131242190Y-114847263D01*
X131202616Y-114832031D01*
X131138023Y-114797739D01*
X131080529Y-114754528D01*
X131030753Y-114703084D01*
X130989313Y-114644090D01*
X130956828Y-114578230D01*
X130933915Y-114506189D01*
X130932313Y-114499197D01*
X130923514Y-114433007D01*
X130925091Y-114364547D01*
X130936700Y-114295962D01*
X130957994Y-114229396D01*
X130988627Y-114166993D01*
X130996721Y-114154446D01*
X131015789Y-114128946D01*
X131038897Y-114101466D01*
X131063065Y-114075663D01*
X131072281Y-114066524D01*
X131096312Y-114044141D01*
X131117914Y-114027090D01*
X131140866Y-114012595D01*
X131168947Y-113997881D01*
X131188475Y-113988678D01*
X131242893Y-113968374D01*
X131297090Y-113956877D01*
X131355254Y-113953182D01*
X131377766Y-113953670D01*
G37*
G36*
X132659997Y-117581822D02*
G01*
X132656410Y-117585725D01*
X132647245Y-117596057D01*
X132638323Y-117606880D01*
X132629208Y-117618955D01*
X132619467Y-117633046D01*
X132608666Y-117649916D01*
X132596372Y-117670327D01*
X132582150Y-117695041D01*
X132565566Y-117724821D01*
X132546188Y-117760430D01*
X132523581Y-117802630D01*
X132497311Y-117852184D01*
X132466944Y-117909854D01*
X132432047Y-117976404D01*
X132392186Y-118052595D01*
X132365620Y-118103387D01*
X132336276Y-118159444D01*
X132307471Y-118214427D01*
X132280021Y-118266782D01*
X132254738Y-118314959D01*
X132232439Y-118357403D01*
X132213936Y-118392563D01*
X132200045Y-118418885D01*
X132185643Y-118446308D01*
X132164342Y-118487433D01*
X132143098Y-118529016D01*
X132123743Y-118567463D01*
X132108108Y-118599181D01*
X132106609Y-118602268D01*
X132089900Y-118636160D01*
X132072107Y-118671467D01*
X132055264Y-118704189D01*
X132041408Y-118730322D01*
X132031577Y-118748689D01*
X132022321Y-118767433D01*
X132017822Y-118779699D01*
X132017369Y-118787598D01*
X132020252Y-118793242D01*
X132020757Y-118793851D01*
X132028334Y-118802833D01*
X132041575Y-118818426D01*
X132058765Y-118838608D01*
X132078186Y-118861363D01*
X132097753Y-118884431D01*
X132124918Y-118916969D01*
X132150779Y-118948496D01*
X132174288Y-118977690D01*
X132194398Y-119003233D01*
X132210060Y-119023804D01*
X132220225Y-119038085D01*
X132223847Y-119044756D01*
X132223845Y-119044799D01*
X132218005Y-119047209D01*
X132201791Y-119049536D01*
X132176523Y-119051713D01*
X132143523Y-119053675D01*
X132104115Y-119055355D01*
X132059620Y-119056686D01*
X132011360Y-119057600D01*
X131960657Y-119058032D01*
X131930177Y-119058019D01*
X131893775Y-119058039D01*
X131865486Y-119059014D01*
X131843368Y-119061958D01*
X131825480Y-119067888D01*
X131809881Y-119077817D01*
X131794630Y-119092761D01*
X131777786Y-119113736D01*
X131757406Y-119141757D01*
X131731550Y-119177838D01*
X131717419Y-119197214D01*
X131695338Y-119226783D01*
X131675794Y-119252093D01*
X131659844Y-119271817D01*
X131648545Y-119284625D01*
X131642953Y-119289190D01*
X131637713Y-119285016D01*
X131626379Y-119272619D01*
X131610039Y-119253218D01*
X131589703Y-119228042D01*
X131566381Y-119198319D01*
X131541083Y-119165277D01*
X131523936Y-119142684D01*
X131487647Y-119095433D01*
X131457533Y-119057160D01*
X131433214Y-119027424D01*
X131414310Y-119005781D01*
X131400440Y-118991789D01*
X131391225Y-118985004D01*
X131386284Y-118984984D01*
X131384691Y-118987268D01*
X131378117Y-119000432D01*
X131368119Y-119023589D01*
X131355002Y-119055967D01*
X131339069Y-119096794D01*
X131320622Y-119145299D01*
X131299966Y-119200708D01*
X131277402Y-119262250D01*
X131264051Y-119298817D01*
X131241272Y-119360470D01*
X131221709Y-119412293D01*
X131205031Y-119455128D01*
X131190907Y-119489820D01*
X131179006Y-119517210D01*
X131168996Y-119538142D01*
X131165310Y-119544942D01*
X131157366Y-119556953D01*
X131151884Y-119561709D01*
X131150781Y-119560938D01*
X131144917Y-119551702D01*
X131135014Y-119532558D01*
X131121376Y-119504179D01*
X131104309Y-119467243D01*
X131084118Y-119422423D01*
X131061109Y-119370394D01*
X131035587Y-119311833D01*
X131007857Y-119247413D01*
X130978225Y-119177809D01*
X130964586Y-119145693D01*
X130937548Y-119082661D01*
X130914426Y-119029770D01*
X130894974Y-118986486D01*
X130878944Y-118952279D01*
X130866090Y-118926616D01*
X130856167Y-118908965D01*
X130848926Y-118898793D01*
X130847562Y-118897188D01*
X130845219Y-118891650D01*
X130847983Y-118884987D01*
X130857200Y-118875131D01*
X130874220Y-118860016D01*
X130879050Y-118855944D01*
X130897957Y-118840746D01*
X130925772Y-118819076D01*
X130962086Y-118791245D01*
X131006491Y-118757561D01*
X131058578Y-118718333D01*
X131117938Y-118673873D01*
X131184162Y-118624487D01*
X131256842Y-118570487D01*
X131277305Y-118555400D01*
X131306203Y-118534232D01*
X131342208Y-118507947D01*
X131384117Y-118477420D01*
X131430724Y-118443523D01*
X131480826Y-118407130D01*
X131533219Y-118369116D01*
X131586699Y-118330353D01*
X131640061Y-118291716D01*
X131692102Y-118254078D01*
X131741617Y-118218312D01*
X131787402Y-118185293D01*
X131828254Y-118155893D01*
X131857414Y-118134923D01*
X131898693Y-118105211D01*
X131942769Y-118073461D01*
X131985961Y-118042325D01*
X132024585Y-118014456D01*
X132060892Y-117988308D01*
X132121739Y-117944756D01*
X132182536Y-117901555D01*
X132242606Y-117859166D01*
X132301271Y-117818051D01*
X132357853Y-117778670D01*
X132411674Y-117741486D01*
X132462057Y-117706960D01*
X132508324Y-117675554D01*
X132549796Y-117647728D01*
X132585797Y-117623945D01*
X132615648Y-117604667D01*
X132638671Y-117590353D01*
X132654189Y-117581467D01*
X132661523Y-117578470D01*
X132659997Y-117581822D01*
G37*
G36*
X127971017Y-117559715D02*
G01*
X127982445Y-117567795D01*
X127997514Y-117579647D01*
X128011862Y-117590975D01*
X128039821Y-117611860D01*
X128075255Y-117637352D01*
X128116747Y-117666447D01*
X128162881Y-117698147D01*
X128212241Y-117731448D01*
X128233092Y-117745484D01*
X128275540Y-117774441D01*
X128326047Y-117809273D01*
X128383713Y-117849343D01*
X128447641Y-117894014D01*
X128516934Y-117942648D01*
X128590692Y-117994608D01*
X128668019Y-118049255D01*
X128748017Y-118105953D01*
X128829788Y-118164064D01*
X128912434Y-118222951D01*
X128995057Y-118281975D01*
X129076760Y-118340500D01*
X129156644Y-118397888D01*
X129233813Y-118453501D01*
X129307368Y-118506701D01*
X129376411Y-118556852D01*
X129440044Y-118603316D01*
X129442591Y-118605181D01*
X129476098Y-118629585D01*
X129513173Y-118656405D01*
X129549485Y-118682514D01*
X129580700Y-118704786D01*
X129584098Y-118707205D01*
X129612879Y-118728117D01*
X129646008Y-118752790D01*
X129681178Y-118779449D01*
X129716082Y-118806322D01*
X129748416Y-118831635D01*
X129775873Y-118853614D01*
X129796147Y-118870485D01*
X129796581Y-118870860D01*
X129804797Y-118879362D01*
X129805967Y-118887611D01*
X129800930Y-118900944D01*
X129794938Y-118914586D01*
X129784730Y-118938082D01*
X129771210Y-118969349D01*
X129755043Y-119006837D01*
X129736894Y-119048998D01*
X129717430Y-119094283D01*
X129697314Y-119141143D01*
X129677212Y-119188030D01*
X129657790Y-119233394D01*
X129639713Y-119275688D01*
X129623645Y-119313361D01*
X129610253Y-119344866D01*
X129609441Y-119346780D01*
X129592941Y-119385261D01*
X129576079Y-119423904D01*
X129560072Y-119459965D01*
X129546140Y-119490699D01*
X129535500Y-119513359D01*
X129527325Y-119529794D01*
X129516974Y-119549297D01*
X129509069Y-119562631D01*
X129504870Y-119567570D01*
X129503369Y-119566711D01*
X129496984Y-119557665D01*
X129487495Y-119540176D01*
X129475742Y-119516008D01*
X129462560Y-119486923D01*
X129448787Y-119454684D01*
X129435262Y-119421054D01*
X129402862Y-119338075D01*
X129373257Y-119262985D01*
X129347331Y-119198094D01*
X129324909Y-119142990D01*
X129305816Y-119097261D01*
X129289878Y-119060498D01*
X129276919Y-119032288D01*
X129266765Y-119012219D01*
X129259241Y-118999881D01*
X129254172Y-118994863D01*
X129252545Y-118994420D01*
X129246950Y-118995193D01*
X129239481Y-118999658D01*
X129229403Y-119008630D01*
X129215978Y-119022919D01*
X129198471Y-119043340D01*
X129176145Y-119070705D01*
X129148266Y-119105826D01*
X129114096Y-119149516D01*
X129088834Y-119181822D01*
X129064677Y-119212436D01*
X129043510Y-119238975D01*
X129026377Y-119260139D01*
X129014323Y-119274628D01*
X129008391Y-119281142D01*
X129006975Y-119282248D01*
X129003101Y-119284019D01*
X128998526Y-119283185D01*
X128992362Y-119278767D01*
X128983725Y-119269782D01*
X128971728Y-119255250D01*
X128955485Y-119234188D01*
X128934110Y-119205618D01*
X128906717Y-119168556D01*
X128892966Y-119150070D01*
X128873000Y-119123805D01*
X128855324Y-119101207D01*
X128841465Y-119084220D01*
X128832951Y-119074786D01*
X128817884Y-119060625D01*
X128618043Y-119056356D01*
X128581446Y-119055497D01*
X128536858Y-119054226D01*
X128497060Y-119052840D01*
X128463437Y-119051401D01*
X128437376Y-119049968D01*
X128420263Y-119048604D01*
X128413484Y-119047368D01*
X128414336Y-119041537D01*
X128421875Y-119027966D01*
X128435357Y-119008108D01*
X128453804Y-118983239D01*
X128476238Y-118954635D01*
X128501682Y-118923572D01*
X128529159Y-118891324D01*
X128557691Y-118859168D01*
X128571992Y-118843323D01*
X128592397Y-118820431D01*
X128609208Y-118801224D01*
X128620986Y-118787355D01*
X128626289Y-118780476D01*
X128626765Y-118775357D01*
X128621548Y-118761146D01*
X128609577Y-118741076D01*
X128603244Y-118731032D01*
X128591022Y-118710355D01*
X128575112Y-118682556D01*
X128556538Y-118649445D01*
X128536320Y-118612830D01*
X128515482Y-118574519D01*
X128497712Y-118541649D01*
X128479060Y-118507276D01*
X128462658Y-118477182D01*
X128449330Y-118452876D01*
X128439903Y-118435870D01*
X128435204Y-118427676D01*
X128432635Y-118423210D01*
X128424796Y-118408857D01*
X128412945Y-118386762D01*
X128397930Y-118358518D01*
X128380601Y-118325716D01*
X128361806Y-118289951D01*
X128357020Y-118280829D01*
X128334073Y-118237309D01*
X128309633Y-118191249D01*
X128285424Y-118145884D01*
X128263172Y-118104448D01*
X128244601Y-118070177D01*
X128236657Y-118055610D01*
X128218555Y-118022395D01*
X128196611Y-117982108D01*
X128171957Y-117936828D01*
X128145724Y-117888630D01*
X128119042Y-117839594D01*
X128093043Y-117791797D01*
X128072721Y-117754486D01*
X128049817Y-117712572D01*
X128028725Y-117674117D01*
X128010201Y-117640492D01*
X127994997Y-117613064D01*
X127983869Y-117593204D01*
X127977572Y-117582279D01*
X127972345Y-117573194D01*
X127966879Y-117561817D01*
X127966414Y-117557372D01*
X127971017Y-117559715D01*
G37*
G36*
X132498074Y-114532445D02*
G01*
X132497890Y-114650163D01*
X132497687Y-114762896D01*
X132497466Y-114870124D01*
X132497228Y-114971330D01*
X132496974Y-115065995D01*
X132496707Y-115153602D01*
X132496427Y-115233631D01*
X132496136Y-115305567D01*
X132495835Y-115368889D01*
X132495525Y-115423081D01*
X132495209Y-115467623D01*
X132494887Y-115501999D01*
X132494561Y-115525689D01*
X132494233Y-115538176D01*
X132490506Y-115614158D01*
X132446551Y-115636716D01*
X132432825Y-115643881D01*
X132406623Y-115657981D01*
X132376481Y-115674581D01*
X132343976Y-115692773D01*
X132310687Y-115711651D01*
X132278191Y-115730305D01*
X132248065Y-115747829D01*
X132221888Y-115763314D01*
X132201237Y-115775853D01*
X132187689Y-115784538D01*
X132182822Y-115788461D01*
X132182864Y-115788699D01*
X132186097Y-115796057D01*
X132193894Y-115811914D01*
X132205420Y-115834621D01*
X132219838Y-115862531D01*
X132236315Y-115893996D01*
X132238969Y-115899037D01*
X132256557Y-115932567D01*
X132278027Y-115973668D01*
X132302123Y-116019925D01*
X132327588Y-116068921D01*
X132353165Y-116118241D01*
X132377596Y-116165470D01*
X132377818Y-116165900D01*
X132403654Y-116215862D01*
X132431852Y-116270294D01*
X132460864Y-116326216D01*
X132489146Y-116380652D01*
X132515150Y-116430624D01*
X132537332Y-116473154D01*
X132542732Y-116483494D01*
X132572582Y-116540700D01*
X132603824Y-116600663D01*
X132635893Y-116662289D01*
X132668219Y-116724480D01*
X132700235Y-116786141D01*
X132731374Y-116846176D01*
X132761067Y-116903490D01*
X132788746Y-116956986D01*
X132813845Y-117005568D01*
X132835794Y-117048141D01*
X132854026Y-117083609D01*
X132867974Y-117110875D01*
X132877070Y-117128845D01*
X132886174Y-117147584D01*
X132896229Y-117171083D01*
X132900934Y-117187488D01*
X132900877Y-117198523D01*
X132896878Y-117207375D01*
X132886989Y-117223955D01*
X132872941Y-117245097D01*
X132856332Y-117268300D01*
X132840866Y-117289753D01*
X132818154Y-117322687D01*
X132795136Y-117357366D01*
X132774973Y-117389093D01*
X132772752Y-117392695D01*
X132757081Y-117417929D01*
X132743242Y-117439937D01*
X132732662Y-117456463D01*
X132726770Y-117465248D01*
X132723995Y-117467668D01*
X132720373Y-117466755D01*
X132715483Y-117460976D01*
X132708652Y-117449153D01*
X132699202Y-117430104D01*
X132686461Y-117402652D01*
X132669752Y-117365617D01*
X132658969Y-117341678D01*
X132626248Y-117270298D01*
X132590976Y-117194988D01*
X132554176Y-117117847D01*
X132516875Y-117040975D01*
X132480096Y-116966473D01*
X132444865Y-116896442D01*
X132412206Y-116832982D01*
X132383144Y-116778193D01*
X132366671Y-116747715D01*
X132348690Y-116714365D01*
X132333183Y-116685514D01*
X132320930Y-116662613D01*
X132312708Y-116647114D01*
X132309294Y-116640468D01*
X132306697Y-116639946D01*
X132298518Y-116645767D01*
X132287310Y-116657764D01*
X132278522Y-116668023D01*
X132261934Y-116686601D01*
X132241831Y-116708554D01*
X132220809Y-116731022D01*
X132208764Y-116743985D01*
X132187134Y-116767861D01*
X132160818Y-116797384D01*
X132131483Y-116830667D01*
X132100797Y-116865828D01*
X132070428Y-116900980D01*
X132048305Y-116926657D01*
X132017360Y-116962353D01*
X131987250Y-116996852D01*
X131959669Y-117028225D01*
X131936309Y-117054541D01*
X131918862Y-117073869D01*
X131896396Y-117098771D01*
X131869196Y-117129565D01*
X131841321Y-117161648D01*
X131816218Y-117191082D01*
X131811572Y-117196589D01*
X131789923Y-117222063D01*
X131769405Y-117245916D01*
X131752146Y-117265690D01*
X131740272Y-117278926D01*
X131718617Y-117302303D01*
X131705332Y-117285642D01*
X131704108Y-117284037D01*
X131695330Y-117270930D01*
X131682724Y-117250541D01*
X131667789Y-117225340D01*
X131652023Y-117197798D01*
X131651069Y-117196103D01*
X131634984Y-117167780D01*
X131614756Y-117132529D01*
X131592087Y-117093297D01*
X131568680Y-117053030D01*
X131546237Y-117014677D01*
X131524526Y-116977507D01*
X131498218Y-116932049D01*
X131471450Y-116885430D01*
X131446374Y-116841397D01*
X131425138Y-116803694D01*
X131393162Y-116746563D01*
X131352046Y-116673405D01*
X131312965Y-116604209D01*
X131276637Y-116540240D01*
X131243780Y-116482763D01*
X131215113Y-116433040D01*
X131191354Y-116392336D01*
X131182646Y-116377443D01*
X131167939Y-116351753D01*
X131156156Y-116330467D01*
X131148328Y-116315467D01*
X131145490Y-116308638D01*
X131145461Y-116307798D01*
X131141428Y-116301555D01*
X131129890Y-116300441D01*
X131109875Y-116304537D01*
X131080411Y-116313921D01*
X131068103Y-116318355D01*
X131031251Y-116332649D01*
X130985177Y-116351644D01*
X130930768Y-116374942D01*
X130868911Y-116402147D01*
X130800493Y-116432863D01*
X130726400Y-116466692D01*
X130647520Y-116503239D01*
X130564739Y-116542107D01*
X130478945Y-116582899D01*
X130325206Y-116656445D01*
X130195061Y-116596290D01*
X130191707Y-116594740D01*
X130144214Y-116572938D01*
X130090700Y-116548581D01*
X130035324Y-116523550D01*
X129982246Y-116499727D01*
X129935625Y-116478991D01*
X129917170Y-116470824D01*
X129877735Y-116453309D01*
X129839984Y-116436464D01*
X129806179Y-116421301D01*
X129778580Y-116408834D01*
X129759449Y-116400074D01*
X129720395Y-116382272D01*
X129672052Y-116360986D01*
X129624069Y-116340572D01*
X129579831Y-116322466D01*
X129542722Y-116308104D01*
X129526581Y-116302317D01*
X129508112Y-116296736D01*
X129497612Y-116295528D01*
X129493423Y-116298366D01*
X129489148Y-116308367D01*
X129479628Y-116327908D01*
X129465695Y-116355227D01*
X129448028Y-116389046D01*
X129427307Y-116428086D01*
X129404210Y-116471068D01*
X129379416Y-116516713D01*
X129353605Y-116563743D01*
X129327456Y-116610879D01*
X129317198Y-116629255D01*
X129276365Y-116702251D01*
X129235925Y-116774308D01*
X129196288Y-116844709D01*
X129157864Y-116912740D01*
X129121061Y-116977685D01*
X129086287Y-117038830D01*
X129053953Y-117095459D01*
X129024467Y-117146858D01*
X128998237Y-117192311D01*
X128975674Y-117231103D01*
X128957185Y-117262520D01*
X128943180Y-117285846D01*
X128934068Y-117300365D01*
X128930258Y-117305364D01*
X128925134Y-117303154D01*
X128911796Y-117292029D01*
X128891538Y-117271568D01*
X128864401Y-117241811D01*
X128830426Y-117202803D01*
X128827843Y-117199793D01*
X128804841Y-117173210D01*
X128777139Y-117141522D01*
X128745516Y-117105596D01*
X128710752Y-117066299D01*
X128673627Y-117024499D01*
X128634919Y-116981064D01*
X128595409Y-116936860D01*
X128555877Y-116892756D01*
X128517101Y-116849618D01*
X128479861Y-116808314D01*
X128444937Y-116769712D01*
X128413108Y-116734678D01*
X128385155Y-116704081D01*
X128361856Y-116678787D01*
X128343991Y-116659665D01*
X128332339Y-116647581D01*
X128327681Y-116643403D01*
X128325721Y-116645298D01*
X128319240Y-116655603D01*
X128309876Y-116672836D01*
X128298925Y-116694683D01*
X128291020Y-116710840D01*
X128275307Y-116742345D01*
X128258175Y-116776131D01*
X128242142Y-116807210D01*
X128241593Y-116808262D01*
X128228354Y-116834074D01*
X128211608Y-116867354D01*
X128191934Y-116906904D01*
X128169912Y-116951523D01*
X128146121Y-117000015D01*
X128121140Y-117051179D01*
X128095549Y-117103817D01*
X128069927Y-117156731D01*
X128044853Y-117208722D01*
X128020907Y-117258591D01*
X127998668Y-117305139D01*
X127978715Y-117347168D01*
X127961628Y-117383478D01*
X127947986Y-117412872D01*
X127938369Y-117434150D01*
X127933356Y-117446114D01*
X127927787Y-117460822D01*
X127922315Y-117472511D01*
X127918563Y-117475315D01*
X127915548Y-117470587D01*
X127915381Y-117470149D01*
X127909807Y-117458789D01*
X127900042Y-117441373D01*
X127888091Y-117421487D01*
X127880401Y-117408871D01*
X127865242Y-117383264D01*
X127848430Y-117354209D01*
X127832394Y-117325876D01*
X127822249Y-117308208D01*
X127804666Y-117279295D01*
X127787352Y-117252563D01*
X127772904Y-117232106D01*
X127767796Y-117225289D01*
X127755280Y-117206572D01*
X127749498Y-117193052D01*
X127749296Y-117182291D01*
X127753225Y-117170924D01*
X127762324Y-117149742D01*
X127776098Y-117119889D01*
X127794111Y-117082213D01*
X127815929Y-117037564D01*
X127841114Y-116986794D01*
X127869233Y-116930751D01*
X127899850Y-116870285D01*
X127932529Y-116806248D01*
X127966835Y-116739489D01*
X128002333Y-116670857D01*
X128038587Y-116601204D01*
X128075161Y-116531379D01*
X128111621Y-116462231D01*
X128147530Y-116394612D01*
X128182455Y-116329372D01*
X128215958Y-116267359D01*
X128247605Y-116209425D01*
X128261483Y-116183973D01*
X128282946Y-116144057D01*
X128306705Y-116099377D01*
X128331636Y-116052085D01*
X128356614Y-116004336D01*
X128380512Y-115958283D01*
X128402206Y-115916078D01*
X128420571Y-115879875D01*
X128434481Y-115851826D01*
X128465096Y-115788872D01*
X128379328Y-115741382D01*
X128368882Y-115735616D01*
X128331554Y-115715246D01*
X128292170Y-115694043D01*
X128254821Y-115674202D01*
X128223598Y-115657915D01*
X128199888Y-115645390D01*
X128173182Y-115629879D01*
X128156651Y-115618006D01*
X128149823Y-115609463D01*
X128149761Y-115609052D01*
X128149435Y-115600038D01*
X128149113Y-115579873D01*
X128148795Y-115549036D01*
X128148483Y-115508008D01*
X128148179Y-115457268D01*
X128147883Y-115397295D01*
X128147598Y-115328569D01*
X128147324Y-115251570D01*
X128147062Y-115166777D01*
X128146814Y-115074670D01*
X128146582Y-114975729D01*
X128146366Y-114870433D01*
X128146168Y-114759262D01*
X128145989Y-114642695D01*
X128145831Y-114521213D01*
X128145694Y-114395294D01*
X128145693Y-114393917D01*
X128581162Y-114393917D01*
X128583977Y-114478978D01*
X128584691Y-114485840D01*
X128599833Y-114578330D01*
X128624522Y-114666190D01*
X128658278Y-114748661D01*
X128700623Y-114824980D01*
X128751076Y-114894388D01*
X128809158Y-114956125D01*
X128874389Y-115009429D01*
X128946290Y-115053540D01*
X129015919Y-115085461D01*
X129090225Y-115111107D01*
X129163368Y-115128271D01*
X129206104Y-115134028D01*
X129270465Y-115136345D01*
X129338804Y-115131251D01*
X129413595Y-115118652D01*
X129420150Y-115117260D01*
X129509312Y-115092191D01*
X129593937Y-115056547D01*
X129674305Y-115010170D01*
X129750694Y-114952901D01*
X129823382Y-114884579D01*
X129843651Y-114862842D01*
X129866853Y-114835261D01*
X129874873Y-114835261D01*
X129875046Y-114841933D01*
X129877902Y-114851992D01*
X129883863Y-114866268D01*
X129893347Y-114885594D01*
X129906775Y-114910804D01*
X129924566Y-114942728D01*
X129947139Y-114982199D01*
X129974915Y-115030050D01*
X130008312Y-115087113D01*
X130019592Y-115106397D01*
X130042305Y-115145456D01*
X130068727Y-115191117D01*
X130097562Y-115241131D01*
X130127516Y-115293248D01*
X130157291Y-115345220D01*
X130185592Y-115394797D01*
X130186261Y-115395972D01*
X130211235Y-115439801D01*
X130234752Y-115481053D01*
X130256088Y-115518461D01*
X130274520Y-115550755D01*
X130289324Y-115576668D01*
X130299776Y-115594932D01*
X130305151Y-115604277D01*
X130307044Y-115607443D01*
X130314851Y-115618739D01*
X130319887Y-115623324D01*
X130320984Y-115623201D01*
X130324891Y-115620814D01*
X130330285Y-115614410D01*
X130337964Y-115602720D01*
X130348725Y-115584474D01*
X130363362Y-115558402D01*
X130382675Y-115523233D01*
X130415723Y-115462819D01*
X130450322Y-115399806D01*
X130484139Y-115338451D01*
X130516572Y-115279832D01*
X130547018Y-115225030D01*
X130574876Y-115175125D01*
X130599546Y-115131198D01*
X130620424Y-115094330D01*
X130636909Y-115065600D01*
X130648401Y-115046089D01*
X130652173Y-115039820D01*
X130668236Y-115012725D01*
X130687357Y-114980009D01*
X130707458Y-114945242D01*
X130726462Y-114911994D01*
X130772627Y-114830645D01*
X130786790Y-114847527D01*
X130809298Y-114873510D01*
X130878670Y-114943563D01*
X130951409Y-115002450D01*
X131027617Y-115050247D01*
X131107395Y-115087031D01*
X131114352Y-115089693D01*
X131155223Y-115104852D01*
X131189271Y-115116117D01*
X131219585Y-115124044D01*
X131249252Y-115129190D01*
X131281362Y-115132112D01*
X131319003Y-115133366D01*
X131365263Y-115133510D01*
X131394702Y-115133324D01*
X131428173Y-115132786D01*
X131454246Y-115131708D01*
X131475452Y-115129843D01*
X131494328Y-115126946D01*
X131513407Y-115122773D01*
X131535222Y-115117079D01*
X131568367Y-115107346D01*
X131649068Y-115076635D01*
X131723160Y-115037334D01*
X131792388Y-114988425D01*
X131858500Y-114928893D01*
X131912414Y-114869430D01*
X131962338Y-114800126D01*
X132002713Y-114725833D01*
X132034283Y-114645163D01*
X132057793Y-114556725D01*
X132060314Y-114543613D01*
X132066354Y-114493988D01*
X132068769Y-114438429D01*
X132067604Y-114380933D01*
X132062903Y-114325496D01*
X132054709Y-114276115D01*
X132036981Y-114207268D01*
X132006072Y-114120690D01*
X131967159Y-114042264D01*
X131919940Y-113971487D01*
X131864114Y-113907858D01*
X131799377Y-113850872D01*
X131788577Y-113842629D01*
X131711907Y-113791917D01*
X131631722Y-113751699D01*
X131548903Y-113722016D01*
X131464330Y-113702908D01*
X131378884Y-113694416D01*
X131293446Y-113696581D01*
X131208896Y-113709444D01*
X131126115Y-113733044D01*
X131045984Y-113767422D01*
X130969383Y-113812620D01*
X130967174Y-113814125D01*
X130896512Y-113868425D01*
X130835504Y-113928369D01*
X130783654Y-113994680D01*
X130740469Y-114068084D01*
X130705453Y-114149304D01*
X130678113Y-114239063D01*
X130674888Y-114252148D01*
X130670034Y-114273886D01*
X130666629Y-114293875D01*
X130664427Y-114314808D01*
X130663184Y-114339379D01*
X130662658Y-114370282D01*
X130662602Y-114410210D01*
X130662647Y-114424376D01*
X130663023Y-114461613D01*
X130663947Y-114490721D01*
X130665667Y-114514414D01*
X130668431Y-114535410D01*
X130672485Y-114556423D01*
X130678076Y-114580168D01*
X130690796Y-114626646D01*
X130708730Y-114682850D01*
X130728674Y-114737736D01*
X130748858Y-114786154D01*
X130763868Y-114819251D01*
X130742231Y-114822517D01*
X130734264Y-114823538D01*
X130708243Y-114825739D01*
X130672640Y-114827731D01*
X130628942Y-114829493D01*
X130578637Y-114831001D01*
X130523214Y-114832237D01*
X130464161Y-114833178D01*
X130402966Y-114833803D01*
X130341117Y-114834091D01*
X130280103Y-114834020D01*
X130221411Y-114833570D01*
X130166530Y-114832718D01*
X130116948Y-114831445D01*
X130095661Y-114830762D01*
X130041559Y-114829048D01*
X129997656Y-114827715D01*
X129962828Y-114826756D01*
X129935950Y-114826162D01*
X129915896Y-114825926D01*
X129901540Y-114826041D01*
X129891757Y-114826500D01*
X129885422Y-114827295D01*
X129881409Y-114828418D01*
X129878594Y-114829862D01*
X129876965Y-114831142D01*
X129874873Y-114835261D01*
X129866853Y-114835261D01*
X129867958Y-114833948D01*
X129888109Y-114805278D01*
X129905875Y-114773940D01*
X129923024Y-114737037D01*
X129941326Y-114691678D01*
X129949176Y-114670593D01*
X129964538Y-114622797D01*
X129975586Y-114575982D01*
X129982835Y-114527027D01*
X129986805Y-114472810D01*
X129988014Y-114410210D01*
X129987964Y-114391829D01*
X129987134Y-114344892D01*
X129984970Y-114305713D01*
X129981072Y-114271359D01*
X129975040Y-114238896D01*
X129966474Y-114205392D01*
X129954975Y-114167914D01*
X129930583Y-114103800D01*
X129891047Y-114028285D01*
X129841445Y-113958433D01*
X129781380Y-113893615D01*
X129772860Y-113885615D01*
X129703764Y-113829659D01*
X129627978Y-113782681D01*
X129546838Y-113745214D01*
X129461679Y-113717791D01*
X129373837Y-113700945D01*
X129284648Y-113695212D01*
X129219250Y-113698402D01*
X129133071Y-113712425D01*
X129049739Y-113737059D01*
X128970246Y-113771697D01*
X128895586Y-113815732D01*
X128826750Y-113868559D01*
X128764731Y-113929571D01*
X128710521Y-113998161D01*
X128665113Y-114073723D01*
X128636424Y-114136199D01*
X128607744Y-114220738D01*
X128589204Y-114307241D01*
X128581162Y-114393917D01*
X128145693Y-114393917D01*
X128145580Y-114265418D01*
X128145491Y-114132066D01*
X128145428Y-113995716D01*
X128144843Y-112394444D01*
X128163891Y-112397864D01*
X128172429Y-112399504D01*
X128184629Y-112402152D01*
X128199694Y-112405752D01*
X128218464Y-112410535D01*
X128241778Y-112416733D01*
X128270475Y-112424579D01*
X128305392Y-112434305D01*
X128347371Y-112446143D01*
X128397249Y-112460324D01*
X128455865Y-112477081D01*
X128524059Y-112496647D01*
X128602669Y-112519252D01*
X128621779Y-112524744D01*
X128693212Y-112545150D01*
X128768188Y-112566397D01*
X128844593Y-112587895D01*
X128920313Y-112609056D01*
X128993236Y-112629289D01*
X129061247Y-112648007D01*
X129122233Y-112664620D01*
X129174081Y-112678538D01*
X129224882Y-112692045D01*
X129287087Y-112708607D01*
X129350764Y-112725580D01*
X129413351Y-112742282D01*
X129472290Y-112758030D01*
X129525019Y-112772140D01*
X129568978Y-112783929D01*
X129592987Y-112790364D01*
X129650458Y-112805690D01*
X129713163Y-112822323D01*
X129776965Y-112839171D01*
X129837727Y-112855140D01*
X129891313Y-112869136D01*
X129932948Y-112879974D01*
X129978676Y-112891900D01*
X130022234Y-112903280D01*
X130061328Y-112913515D01*
X130093664Y-112922004D01*
X130116948Y-112928148D01*
X130139453Y-112934096D01*
X130177519Y-112944101D01*
X130217326Y-112954514D01*
X130253213Y-112963850D01*
X130257683Y-112965023D01*
X130274070Y-112969523D01*
X130287705Y-112973252D01*
X130299761Y-112976024D01*
X130311411Y-112977654D01*
X130323829Y-112977955D01*
X130338190Y-112976742D01*
X130355665Y-112973829D01*
X130377429Y-112969029D01*
X130404656Y-112962156D01*
X130438519Y-112953026D01*
X130480191Y-112941451D01*
X130530847Y-112927246D01*
X130591659Y-112910225D01*
X130613999Y-112904006D01*
X130666570Y-112889448D01*
X130726943Y-112872810D01*
X130792764Y-112854737D01*
X130861680Y-112835874D01*
X130931334Y-112816867D01*
X130999372Y-112798360D01*
X131063441Y-112780997D01*
X131111423Y-112768000D01*
X131171100Y-112751776D01*
X131229540Y-112735827D01*
X131285064Y-112720615D01*
X131335990Y-112706601D01*
X131380639Y-112694247D01*
X131417330Y-112684014D01*
X131444382Y-112676364D01*
X131456646Y-112672859D01*
X131519592Y-112655014D01*
X131586744Y-112636200D01*
X131657189Y-112616656D01*
X131730016Y-112596625D01*
X131804312Y-112576347D01*
X131879166Y-112556064D01*
X131953667Y-112536016D01*
X132026902Y-112516445D01*
X132097959Y-112497593D01*
X132165927Y-112479700D01*
X132229894Y-112463007D01*
X132288949Y-112447756D01*
X132342178Y-112434188D01*
X132388671Y-112422544D01*
X132427515Y-112413066D01*
X132457800Y-112405993D01*
X132478612Y-112401569D01*
X132489041Y-112400033D01*
X132489643Y-112400146D01*
X132490662Y-112401084D01*
X132491606Y-112403324D01*
X132492478Y-112407281D01*
X132493280Y-112413373D01*
X132494016Y-112422017D01*
X132494687Y-112433629D01*
X132495296Y-112448626D01*
X132495847Y-112467425D01*
X132496341Y-112490443D01*
X132496781Y-112518097D01*
X132497170Y-112550803D01*
X132497510Y-112588978D01*
X132497804Y-112633039D01*
X132498055Y-112683402D01*
X132498265Y-112740486D01*
X132498437Y-112804705D01*
X132498573Y-112876478D01*
X132498676Y-112956221D01*
X132498749Y-113044351D01*
X132498794Y-113141285D01*
X132498814Y-113247438D01*
X132498812Y-113363230D01*
X132498789Y-113489075D01*
X132498749Y-113625391D01*
X132498695Y-113772594D01*
X132498629Y-113931103D01*
X132498582Y-114022068D01*
X132498492Y-114154552D01*
X132498376Y-114284121D01*
X132498236Y-114410258D01*
X132498199Y-114438429D01*
X132498074Y-114532445D01*
G37*
G36*
X124950690Y-113857362D02*
G01*
X124948730Y-113978984D01*
X124947485Y-114005323D01*
X124939029Y-114116016D01*
X124925490Y-114220804D01*
X124906682Y-114320265D01*
X124882421Y-114414974D01*
X124852520Y-114505511D01*
X124816794Y-114592452D01*
X124775058Y-114676374D01*
X124727125Y-114757856D01*
X124672811Y-114837474D01*
X124648137Y-114870062D01*
X124611442Y-114915093D01*
X124571871Y-114960318D01*
X124530805Y-115004269D01*
X124489628Y-115045479D01*
X124449723Y-115082481D01*
X124412471Y-115113807D01*
X124367547Y-115147449D01*
X124293527Y-115196181D01*
X124214548Y-115240884D01*
X124131818Y-115281073D01*
X124046547Y-115316263D01*
X123959945Y-115345972D01*
X123873220Y-115369714D01*
X123787582Y-115387005D01*
X123704241Y-115397362D01*
X123689455Y-115398444D01*
X123641564Y-115400523D01*
X123587153Y-115401084D01*
X123527357Y-115400201D01*
X123463307Y-115397948D01*
X123396140Y-115394403D01*
X123326987Y-115389638D01*
X123256982Y-115383730D01*
X123187260Y-115376753D01*
X123118954Y-115368782D01*
X123053197Y-115359893D01*
X122991123Y-115350160D01*
X122938348Y-115340925D01*
X122875608Y-115328919D01*
X122819072Y-115316715D01*
X122767612Y-115303983D01*
X122720096Y-115290394D01*
X122675396Y-115275621D01*
X122632383Y-115259333D01*
X122589925Y-115241203D01*
X122546895Y-115220902D01*
X122494989Y-115194010D01*
X122426819Y-115154039D01*
X122361188Y-115109761D01*
X122296882Y-115060285D01*
X122232688Y-115004718D01*
X122167392Y-114942171D01*
X122122358Y-114895539D01*
X122080684Y-114848698D01*
X122044311Y-114803400D01*
X122012238Y-114758461D01*
X121985874Y-114716941D01*
X121942671Y-114637832D01*
X121904387Y-114552380D01*
X121871064Y-114460758D01*
X121842744Y-114363143D01*
X121819470Y-114259709D01*
X121801285Y-114150630D01*
X121788230Y-114036082D01*
X121780349Y-113916240D01*
X121779667Y-113884287D01*
X122424285Y-113884287D01*
X122424288Y-113928344D01*
X122424769Y-113972173D01*
X122425719Y-114014180D01*
X122427131Y-114052773D01*
X122428996Y-114086358D01*
X122431307Y-114113342D01*
X122433830Y-114135233D01*
X122443099Y-114202616D01*
X122454638Y-114271377D01*
X122468053Y-114339599D01*
X122482949Y-114405368D01*
X122498930Y-114466768D01*
X122515602Y-114521882D01*
X122526100Y-114552507D01*
X122561488Y-114640598D01*
X122602860Y-114723253D01*
X122650416Y-114800807D01*
X122704355Y-114873595D01*
X122764877Y-114941954D01*
X122796073Y-114973342D01*
X122830261Y-115004895D01*
X122863370Y-115031858D01*
X122897135Y-115055533D01*
X122933292Y-115077219D01*
X122973579Y-115098216D01*
X123022216Y-115119916D01*
X123095536Y-115145286D01*
X123172991Y-115163954D01*
X123254025Y-115175767D01*
X123263524Y-115176616D01*
X123292507Y-115178308D01*
X123325957Y-115179264D01*
X123361765Y-115179505D01*
X123397824Y-115179048D01*
X123432024Y-115177913D01*
X123462259Y-115176118D01*
X123486420Y-115173683D01*
X123502221Y-115171416D01*
X123579435Y-115156034D01*
X123652672Y-115133948D01*
X123722159Y-115105009D01*
X123788117Y-115069066D01*
X123850773Y-115025967D01*
X123910349Y-114975562D01*
X123967070Y-114917699D01*
X124021161Y-114852228D01*
X124072845Y-114778999D01*
X124110416Y-114716881D01*
X124150465Y-114638418D01*
X124186687Y-114553341D01*
X124218966Y-114462055D01*
X124247185Y-114364966D01*
X124271230Y-114262478D01*
X124290983Y-114154995D01*
X124306329Y-114042924D01*
X124317151Y-113926668D01*
X124318098Y-113911436D01*
X124319391Y-113881343D01*
X124320332Y-113846703D01*
X124320921Y-113809111D01*
X124321159Y-113770159D01*
X124321046Y-113731441D01*
X124320582Y-113694548D01*
X124319768Y-113661075D01*
X124318604Y-113632614D01*
X124317090Y-113610758D01*
X124308078Y-113535331D01*
X124290159Y-113436596D01*
X124265743Y-113341268D01*
X124235007Y-113249805D01*
X124198129Y-113162664D01*
X124155289Y-113080303D01*
X124106665Y-113003182D01*
X124052435Y-112931756D01*
X124035647Y-112912503D01*
X124008787Y-112884087D01*
X123978890Y-112854568D01*
X123947960Y-112825851D01*
X123918004Y-112799841D01*
X123891027Y-112778443D01*
X123839551Y-112742659D01*
X123771626Y-112703027D01*
X123702090Y-112671076D01*
X123630297Y-112646594D01*
X123555599Y-112629370D01*
X123477349Y-112619191D01*
X123394899Y-112615846D01*
X123344076Y-112616971D01*
X123256722Y-112624554D01*
X123173387Y-112639289D01*
X123094053Y-112661188D01*
X123018702Y-112690258D01*
X122947314Y-112726512D01*
X122879872Y-112769957D01*
X122816357Y-112820605D01*
X122756751Y-112878465D01*
X122701035Y-112943548D01*
X122649191Y-113015862D01*
X122628890Y-113048038D01*
X122585388Y-113127180D01*
X122546907Y-113212630D01*
X122513433Y-113304428D01*
X122484955Y-113402613D01*
X122461460Y-113507225D01*
X122442937Y-113618305D01*
X122429373Y-113735891D01*
X122429216Y-113737636D01*
X122427225Y-113766676D01*
X122425746Y-113801860D01*
X122424768Y-113841595D01*
X122424285Y-113884287D01*
X121779667Y-113884287D01*
X121777683Y-113791278D01*
X121778895Y-113717376D01*
X121785658Y-113607777D01*
X121798398Y-113503571D01*
X121817158Y-113404570D01*
X121841984Y-113310588D01*
X121872920Y-113221438D01*
X121910010Y-113136934D01*
X121953300Y-113056889D01*
X121998240Y-112987659D01*
X122052198Y-112916387D01*
X122112182Y-112847432D01*
X122177076Y-112781993D01*
X122245768Y-112721263D01*
X122317142Y-112666439D01*
X122373100Y-112629002D01*
X122456424Y-112580784D01*
X122545766Y-112537109D01*
X122640527Y-112498174D01*
X122740105Y-112464180D01*
X122843903Y-112435325D01*
X122951320Y-112411809D01*
X123061756Y-112393831D01*
X123174612Y-112381590D01*
X123191768Y-112380477D01*
X123221429Y-112379353D01*
X123256360Y-112378709D01*
X123295065Y-112378520D01*
X123336045Y-112378761D01*
X123377806Y-112379407D01*
X123418848Y-112380433D01*
X123457677Y-112381813D01*
X123492795Y-112383522D01*
X123522704Y-112385536D01*
X123545910Y-112387829D01*
X123584836Y-112393029D01*
X123700433Y-112412390D01*
X123812638Y-112437094D01*
X123920729Y-112466925D01*
X124023984Y-112501671D01*
X124121680Y-112541119D01*
X124213093Y-112585054D01*
X124247654Y-112603846D01*
X124334237Y-112657184D01*
X124417685Y-112717651D01*
X124497382Y-112784705D01*
X124572709Y-112857803D01*
X124643052Y-112936404D01*
X124707791Y-113019965D01*
X124733372Y-113057094D01*
X124783051Y-113139788D01*
X124826327Y-113227554D01*
X124863185Y-113320332D01*
X124893611Y-113418065D01*
X124917589Y-113520693D01*
X124935104Y-113628158D01*
X124946143Y-113740401D01*
X124947300Y-113770159D01*
X124950690Y-113857362D01*
G37*
G36*
X117104534Y-112315299D02*
G01*
X117116107Y-112317033D01*
X117126726Y-112320503D01*
X117139113Y-112326193D01*
X117139756Y-112326510D01*
X117164277Y-112340555D01*
X117191639Y-112359419D01*
X117220612Y-112381964D01*
X117249968Y-112407048D01*
X117278479Y-112433533D01*
X117304916Y-112460277D01*
X117328050Y-112486142D01*
X117346653Y-112509987D01*
X117359495Y-112530672D01*
X117361022Y-112533922D01*
X117365866Y-112555269D01*
X117363540Y-112579656D01*
X117354097Y-112606361D01*
X117353129Y-112608395D01*
X117345515Y-112621877D01*
X117337136Y-112630335D01*
X117326197Y-112634509D01*
X117310906Y-112635134D01*
X117289469Y-112632950D01*
X117245103Y-112628773D01*
X117204673Y-112629089D01*
X117169321Y-112634388D01*
X117138157Y-112644884D01*
X117110292Y-112660791D01*
X117084837Y-112682325D01*
X117073044Y-112695678D01*
X117054674Y-112723770D01*
X117039105Y-112757252D01*
X117027206Y-112794433D01*
X117027033Y-112795115D01*
X117022838Y-112812076D01*
X117019115Y-112828352D01*
X117015855Y-112844466D01*
X117013049Y-112860939D01*
X117010689Y-112878296D01*
X117008764Y-112897057D01*
X117007267Y-112917746D01*
X117006187Y-112940886D01*
X117005517Y-112966998D01*
X117005247Y-112996607D01*
X117005368Y-113030233D01*
X117005871Y-113068401D01*
X117006748Y-113111632D01*
X117007988Y-113160449D01*
X117009584Y-113215375D01*
X117011526Y-113276933D01*
X117013806Y-113345644D01*
X117016413Y-113422032D01*
X117019583Y-113514415D01*
X117023082Y-113617243D01*
X117026489Y-113718246D01*
X117029793Y-113817069D01*
X117032983Y-113913359D01*
X117036048Y-114006762D01*
X117038978Y-114096923D01*
X117041760Y-114183487D01*
X117044384Y-114266102D01*
X117046839Y-114344412D01*
X117049115Y-114418064D01*
X117051199Y-114486703D01*
X117053081Y-114549976D01*
X117054750Y-114607527D01*
X117056195Y-114659003D01*
X117057405Y-114704049D01*
X117058368Y-114742312D01*
X117059075Y-114773437D01*
X117059513Y-114797070D01*
X117059672Y-114812857D01*
X117059413Y-114842976D01*
X117057485Y-114888617D01*
X117053445Y-114929152D01*
X117047018Y-114966419D01*
X117037930Y-115002257D01*
X117025904Y-115038508D01*
X117015111Y-115065571D01*
X116985691Y-115123591D01*
X116949227Y-115178049D01*
X116906137Y-115228534D01*
X116856839Y-115274635D01*
X116801753Y-115315940D01*
X116741297Y-115352037D01*
X116675889Y-115382516D01*
X116607038Y-115407232D01*
X116530397Y-115428479D01*
X116446853Y-115445943D01*
X116356615Y-115459586D01*
X116259892Y-115469372D01*
X116156893Y-115475262D01*
X116156519Y-115475276D01*
X116130548Y-115476237D01*
X116106352Y-115477131D01*
X116085538Y-115477897D01*
X116069712Y-115478477D01*
X116060479Y-115478811D01*
X116058350Y-115478874D01*
X116042187Y-115478926D01*
X116019483Y-115478532D01*
X115991630Y-115477752D01*
X115960024Y-115476648D01*
X115926058Y-115475283D01*
X115891126Y-115473718D01*
X115856620Y-115472016D01*
X115823936Y-115470237D01*
X115794467Y-115468444D01*
X115769607Y-115466699D01*
X115750750Y-115465064D01*
X115725972Y-115462427D01*
X115652614Y-115452898D01*
X115586432Y-115441403D01*
X115526774Y-115427731D01*
X115472993Y-115411670D01*
X115424437Y-115393009D01*
X115380457Y-115371535D01*
X115340403Y-115347036D01*
X115303626Y-115319301D01*
X115294373Y-115311261D01*
X115262082Y-115277065D01*
X115234959Y-115238230D01*
X115213574Y-115196040D01*
X115198495Y-115151775D01*
X115190291Y-115106717D01*
X115189531Y-115062148D01*
X115190107Y-115055435D01*
X115192436Y-115040219D01*
X115196593Y-115026245D01*
X115203246Y-115012620D01*
X115213064Y-114998456D01*
X115226717Y-114982860D01*
X115244873Y-114964943D01*
X115268201Y-114943813D01*
X115297371Y-114918579D01*
X115343158Y-114877908D01*
X115389044Y-114832894D01*
X115427566Y-114789800D01*
X115458975Y-114748343D01*
X115483523Y-114708238D01*
X115486996Y-114701542D01*
X115501730Y-114668336D01*
X115515764Y-114629172D01*
X115528493Y-114585873D01*
X115539311Y-114540263D01*
X115545925Y-114511811D01*
X115552792Y-114489561D01*
X115560028Y-114473950D01*
X115568002Y-114464185D01*
X115577086Y-114459473D01*
X115579720Y-114458952D01*
X115588673Y-114460294D01*
X115598286Y-114467779D01*
X115599613Y-114469114D01*
X115602744Y-114472609D01*
X115605190Y-114476575D01*
X115606981Y-114481870D01*
X115608143Y-114489352D01*
X115608703Y-114499880D01*
X115608691Y-114514312D01*
X115608133Y-114533505D01*
X115607057Y-114558318D01*
X115605490Y-114589608D01*
X115603461Y-114628235D01*
X115602771Y-114641874D01*
X115601109Y-114685581D01*
X115600730Y-114723008D01*
X115601701Y-114755588D01*
X115604089Y-114784755D01*
X115607963Y-114811942D01*
X115613390Y-114838583D01*
X115621969Y-114867639D01*
X115637414Y-114900448D01*
X115658282Y-114928833D01*
X115684957Y-114953068D01*
X115717823Y-114973429D01*
X115757262Y-114990192D01*
X115803658Y-115003633D01*
X115857394Y-115014026D01*
X115860902Y-115014560D01*
X115895721Y-115018811D01*
X115936532Y-115022259D01*
X115981380Y-115024834D01*
X116028308Y-115026466D01*
X116075360Y-115027084D01*
X116120578Y-115026617D01*
X116162007Y-115024996D01*
X116214057Y-115021320D01*
X116265712Y-115015794D01*
X116310751Y-115008584D01*
X116349967Y-114999465D01*
X116384149Y-114988215D01*
X116414089Y-114974610D01*
X116440577Y-114958425D01*
X116464404Y-114939437D01*
X116473414Y-114930828D01*
X116485004Y-114917712D01*
X116495197Y-114903125D01*
X116504064Y-114886549D01*
X116511676Y-114867467D01*
X116518101Y-114845364D01*
X116523410Y-114819722D01*
X116527674Y-114790023D01*
X116530962Y-114755752D01*
X116533344Y-114716391D01*
X116534890Y-114671424D01*
X116535671Y-114620333D01*
X116535757Y-114562601D01*
X116535217Y-114497712D01*
X116534121Y-114425150D01*
X116533297Y-114379740D01*
X116531593Y-114293020D01*
X116529703Y-114204916D01*
X116527643Y-114115907D01*
X116525431Y-114026473D01*
X116523083Y-113937094D01*
X116520616Y-113848247D01*
X116518047Y-113760414D01*
X116515393Y-113674073D01*
X116512670Y-113589704D01*
X116509896Y-113507786D01*
X116507086Y-113428798D01*
X116504259Y-113353221D01*
X116501431Y-113281533D01*
X116498618Y-113214214D01*
X116495838Y-113151743D01*
X116493107Y-113094599D01*
X116490443Y-113043263D01*
X116487861Y-112998213D01*
X116485379Y-112959929D01*
X116483014Y-112928890D01*
X116480783Y-112905576D01*
X116476806Y-112876117D01*
X116470217Y-112839454D01*
X116462124Y-112803415D01*
X116453004Y-112769893D01*
X116443333Y-112740782D01*
X116433588Y-112717973D01*
X116425372Y-112703269D01*
X116410961Y-112683997D01*
X116393678Y-112668702D01*
X116372475Y-112656849D01*
X116346308Y-112647901D01*
X116314131Y-112641321D01*
X116274897Y-112636573D01*
X116259136Y-112634868D01*
X116235177Y-112630737D01*
X116216669Y-112624804D01*
X116201849Y-112616422D01*
X116188950Y-112604939D01*
X116176694Y-112588023D01*
X116169892Y-112566494D01*
X116171009Y-112543004D01*
X116180061Y-112517713D01*
X116184539Y-112509814D01*
X116200914Y-112490789D01*
X116221550Y-112477265D01*
X116244609Y-112470583D01*
X116248215Y-112470168D01*
X116261285Y-112468733D01*
X116279737Y-112466762D01*
X116301650Y-112464459D01*
X116325105Y-112462028D01*
X116326256Y-112461909D01*
X116346722Y-112459523D01*
X116373520Y-112456040D01*
X116405443Y-112451643D01*
X116441288Y-112446518D01*
X116479850Y-112440850D01*
X116519923Y-112434822D01*
X116560302Y-112428621D01*
X116599783Y-112422432D01*
X116637160Y-112416438D01*
X116671228Y-112410825D01*
X116700783Y-112405779D01*
X116724619Y-112401483D01*
X116741532Y-112398124D01*
X116748938Y-112396487D01*
X116760897Y-112393678D01*
X116773602Y-112390437D01*
X116788062Y-112386469D01*
X116805289Y-112381479D01*
X116826291Y-112375172D01*
X116852078Y-112367253D01*
X116883662Y-112357426D01*
X116922052Y-112345398D01*
X116937161Y-112340721D01*
X116971365Y-112330832D01*
X117000535Y-112323668D01*
X117026477Y-112318870D01*
X117050998Y-112316082D01*
X117075905Y-112314946D01*
X117089284Y-112314815D01*
X117104534Y-112315299D01*
G37*
G36*
X119400111Y-112359489D02*
G01*
X119416634Y-112360144D01*
X119429055Y-112361958D01*
X119440138Y-112365447D01*
X119452644Y-112371124D01*
X119453971Y-112371786D01*
X119478625Y-112388845D01*
X119500212Y-112413230D01*
X119518368Y-112444536D01*
X119518858Y-112445596D01*
X119523626Y-112456726D01*
X119531017Y-112474896D01*
X119540816Y-112499547D01*
X119552807Y-112530121D01*
X119566771Y-112566057D01*
X119582494Y-112606798D01*
X119599759Y-112651783D01*
X119618348Y-112700455D01*
X119638046Y-112752255D01*
X119658635Y-112806623D01*
X119686509Y-112880313D01*
X119731362Y-112998641D01*
X119774951Y-113113321D01*
X119817187Y-113224126D01*
X119857983Y-113330834D01*
X119897252Y-113433217D01*
X119934904Y-113531053D01*
X119970852Y-113624115D01*
X120005009Y-113712179D01*
X120037286Y-113795021D01*
X120067595Y-113872415D01*
X120095849Y-113944136D01*
X120121959Y-114009961D01*
X120145838Y-114069663D01*
X120167398Y-114123018D01*
X120186550Y-114169802D01*
X120203208Y-114209789D01*
X120217282Y-114242755D01*
X120228686Y-114268474D01*
X120237331Y-114286723D01*
X120245329Y-114301885D01*
X120260630Y-114325987D01*
X120275624Y-114342635D01*
X120290770Y-114352287D01*
X120306533Y-114355403D01*
X120313065Y-114355009D01*
X120320684Y-114353049D01*
X120327702Y-114348912D01*
X120334357Y-114342016D01*
X120340884Y-114331777D01*
X120347520Y-114317610D01*
X120354500Y-114298933D01*
X120362062Y-114275160D01*
X120370442Y-114245709D01*
X120379875Y-114209995D01*
X120390599Y-114167435D01*
X120402849Y-114117445D01*
X120405798Y-114105231D01*
X120417943Y-114053591D01*
X120431300Y-113994903D01*
X120445697Y-113929985D01*
X120460966Y-113859657D01*
X120476934Y-113784737D01*
X120493431Y-113706043D01*
X120510287Y-113624394D01*
X120527331Y-113540610D01*
X120544392Y-113455508D01*
X120561300Y-113369907D01*
X120577884Y-113284627D01*
X120593973Y-113200485D01*
X120596483Y-113187263D01*
X120603840Y-113148774D01*
X120611462Y-113109220D01*
X120618996Y-113070429D01*
X120626085Y-113034226D01*
X120632374Y-113002436D01*
X120637508Y-112976886D01*
X120638497Y-112971985D01*
X120648543Y-112916260D01*
X120654894Y-112867342D01*
X120657508Y-112824727D01*
X120656342Y-112787915D01*
X120651352Y-112756402D01*
X120642498Y-112729687D01*
X120629735Y-112707267D01*
X120613022Y-112688641D01*
X120604193Y-112681189D01*
X120580774Y-112665929D01*
X120553519Y-112654338D01*
X120521069Y-112645912D01*
X120482062Y-112640148D01*
X120467198Y-112638478D01*
X120447788Y-112635816D01*
X120433934Y-112632888D01*
X120423987Y-112629176D01*
X120416297Y-112624166D01*
X120409215Y-112617340D01*
X120402795Y-112607924D01*
X120398469Y-112590772D01*
X120400344Y-112571424D01*
X120408019Y-112551265D01*
X120421091Y-112531681D01*
X120439160Y-112514056D01*
X120446106Y-112508569D01*
X120453441Y-112503128D01*
X120460657Y-112498690D01*
X120468586Y-112495149D01*
X120478060Y-112492401D01*
X120489913Y-112490340D01*
X120504976Y-112488861D01*
X120524083Y-112487860D01*
X120548064Y-112487232D01*
X120577754Y-112486871D01*
X120613985Y-112486674D01*
X120657588Y-112486535D01*
X120661272Y-112486523D01*
X120725642Y-112485984D01*
X120783244Y-112484721D01*
X120835428Y-112482554D01*
X120883542Y-112479301D01*
X120928934Y-112474781D01*
X120972954Y-112468811D01*
X121016950Y-112461210D01*
X121062270Y-112451797D01*
X121110263Y-112440390D01*
X121162277Y-112426808D01*
X121219662Y-112410869D01*
X121240794Y-112404998D01*
X121295485Y-112391207D01*
X121343834Y-112381290D01*
X121386438Y-112375135D01*
X121423894Y-112372631D01*
X121430649Y-112372501D01*
X121448514Y-112372398D01*
X121461090Y-112373088D01*
X121470617Y-112374950D01*
X121479331Y-112378360D01*
X121489470Y-112383697D01*
X121498050Y-112388819D01*
X121523296Y-112407623D01*
X121548825Y-112431473D01*
X121573419Y-112458825D01*
X121595858Y-112488131D01*
X121614924Y-112517843D01*
X121629399Y-112546416D01*
X121638063Y-112572303D01*
X121638952Y-112577036D01*
X121638831Y-112600461D01*
X121631434Y-112625917D01*
X121616611Y-112653969D01*
X121613419Y-112658881D01*
X121601515Y-112673425D01*
X121588828Y-112681369D01*
X121573206Y-112683623D01*
X121552500Y-112681096D01*
X121546689Y-112680121D01*
X121527760Y-112677986D01*
X121505738Y-112676549D01*
X121484288Y-112676081D01*
X121471969Y-112676384D01*
X121447564Y-112678676D01*
X121424848Y-112683501D01*
X121403641Y-112691207D01*
X121383763Y-112702144D01*
X121365036Y-112716660D01*
X121347279Y-112735106D01*
X121330312Y-112757830D01*
X121313956Y-112785181D01*
X121298030Y-112817509D01*
X121282356Y-112855162D01*
X121266753Y-112898490D01*
X121251042Y-112947842D01*
X121235043Y-113003568D01*
X121218576Y-113066016D01*
X121201461Y-113135536D01*
X121183519Y-113212476D01*
X121164570Y-113297187D01*
X121162936Y-113304637D01*
X121153315Y-113349247D01*
X121142343Y-113401214D01*
X121130138Y-113459935D01*
X121116819Y-113524810D01*
X121102502Y-113595238D01*
X121087307Y-113670617D01*
X121071350Y-113750347D01*
X121054750Y-113833827D01*
X121037625Y-113920455D01*
X121020092Y-114009631D01*
X121002270Y-114100753D01*
X120984276Y-114193221D01*
X120966229Y-114286433D01*
X120948246Y-114379788D01*
X120930445Y-114472686D01*
X120912945Y-114564525D01*
X120895862Y-114654704D01*
X120879315Y-114742622D01*
X120863422Y-114827678D01*
X120848301Y-114909272D01*
X120847776Y-114912118D01*
X120838238Y-114963549D01*
X120829913Y-115007784D01*
X120822611Y-115045668D01*
X120816144Y-115078045D01*
X120810322Y-115105759D01*
X120804957Y-115129655D01*
X120799858Y-115150576D01*
X120794837Y-115169367D01*
X120789704Y-115186871D01*
X120784270Y-115203934D01*
X120778347Y-115221400D01*
X120766376Y-115253534D01*
X120746985Y-115296350D01*
X120725926Y-115331877D01*
X120702754Y-115360636D01*
X120677022Y-115383150D01*
X120648286Y-115399939D01*
X120616100Y-115411526D01*
X120610488Y-115412790D01*
X120593700Y-115415243D01*
X120573399Y-115416999D01*
X120552804Y-115417740D01*
X120516123Y-115416199D01*
X120479403Y-115409717D01*
X120446848Y-115397677D01*
X120417033Y-115379531D01*
X120388533Y-115354732D01*
X120380461Y-115346366D01*
X120361078Y-115322942D01*
X120348100Y-115301450D01*
X120345772Y-115295923D01*
X120340510Y-115282053D01*
X120333244Y-115261957D01*
X120324296Y-115236559D01*
X120313988Y-115206782D01*
X120302640Y-115173550D01*
X120290576Y-115137787D01*
X120278115Y-115100416D01*
X120276495Y-115095536D01*
X120254083Y-115029154D01*
X120228792Y-114956138D01*
X120200940Y-114877335D01*
X120170843Y-114793590D01*
X120138820Y-114705750D01*
X120105189Y-114614662D01*
X120070267Y-114521171D01*
X120034372Y-114426124D01*
X119997821Y-114330367D01*
X119960934Y-114234746D01*
X119924026Y-114140109D01*
X119887417Y-114047300D01*
X119851424Y-113957167D01*
X119816364Y-113870555D01*
X119802435Y-113836528D01*
X119783837Y-113791453D01*
X119764981Y-113746123D01*
X119746174Y-113701251D01*
X119727721Y-113657551D01*
X119709931Y-113615736D01*
X119693108Y-113576520D01*
X119677558Y-113540615D01*
X119663590Y-113508736D01*
X119651508Y-113481595D01*
X119641619Y-113459907D01*
X119634230Y-113444384D01*
X119629647Y-113435740D01*
X119628167Y-113433381D01*
X119611193Y-113410258D01*
X119594314Y-113394282D01*
X119577949Y-113385767D01*
X119562514Y-113385029D01*
X119561859Y-113385186D01*
X119549482Y-113391575D01*
X119535866Y-113403871D01*
X119522585Y-113420406D01*
X119511209Y-113439510D01*
X119511206Y-113439517D01*
X119509947Y-113442101D01*
X119508518Y-113445194D01*
X119506818Y-113449061D01*
X119504748Y-113453967D01*
X119502208Y-113460180D01*
X119499096Y-113467964D01*
X119495314Y-113477586D01*
X119490761Y-113489310D01*
X119485337Y-113503405D01*
X119478942Y-113520134D01*
X119471475Y-113539764D01*
X119462837Y-113562560D01*
X119452928Y-113588789D01*
X119441647Y-113618717D01*
X119428894Y-113652609D01*
X119414570Y-113690730D01*
X119398573Y-113733348D01*
X119380804Y-113780727D01*
X119361163Y-113833134D01*
X119339550Y-113890834D01*
X119315865Y-113954094D01*
X119290007Y-114023178D01*
X119261876Y-114098354D01*
X119231373Y-114179886D01*
X119198396Y-114268041D01*
X119162847Y-114363084D01*
X119124625Y-114465282D01*
X119083629Y-114574899D01*
X119082332Y-114578368D01*
X119055864Y-114649084D01*
X119030020Y-114718029D01*
X119004962Y-114784782D01*
X118980848Y-114848919D01*
X118957838Y-114910017D01*
X118936094Y-114967654D01*
X118915776Y-115021406D01*
X118897042Y-115070852D01*
X118880054Y-115115569D01*
X118864972Y-115155133D01*
X118851955Y-115189122D01*
X118841164Y-115217114D01*
X118832760Y-115238686D01*
X118826902Y-115253414D01*
X118823750Y-115260877D01*
X118810310Y-115286651D01*
X118784575Y-115324638D01*
X118755231Y-115355386D01*
X118722397Y-115378814D01*
X118686195Y-115394844D01*
X118646747Y-115403397D01*
X118604172Y-115404394D01*
X118570041Y-115400613D01*
X118527313Y-115390600D01*
X118489624Y-115375237D01*
X118457464Y-115354790D01*
X118431322Y-115329527D01*
X118411689Y-115299713D01*
X118411086Y-115298454D01*
X118406645Y-115286404D01*
X118400713Y-115266486D01*
X118393282Y-115238661D01*
X118384341Y-115202892D01*
X118373880Y-115159139D01*
X118361889Y-115107365D01*
X118351129Y-115060408D01*
X118301240Y-114845327D01*
X118250619Y-114631472D01*
X118198903Y-114417361D01*
X118145726Y-114201512D01*
X118090726Y-113982440D01*
X118033536Y-113758665D01*
X117973793Y-113528703D01*
X117964706Y-113494024D01*
X117940663Y-113402657D01*
X117918438Y-113318807D01*
X117897931Y-113242141D01*
X117879047Y-113172325D01*
X117861689Y-113109025D01*
X117845759Y-113051909D01*
X117831161Y-113000642D01*
X117817797Y-112954890D01*
X117805570Y-112914321D01*
X117794385Y-112878600D01*
X117784143Y-112847394D01*
X117774747Y-112820368D01*
X117766101Y-112797191D01*
X117758108Y-112777527D01*
X117750671Y-112761043D01*
X117736353Y-112735404D01*
X117717476Y-112711360D01*
X117694667Y-112691496D01*
X117667112Y-112675346D01*
X117634000Y-112662442D01*
X117594517Y-112652319D01*
X117547852Y-112644508D01*
X117539168Y-112643278D01*
X117517442Y-112639290D01*
X117500949Y-112634288D01*
X117487452Y-112627462D01*
X117474715Y-112618003D01*
X117470317Y-112614008D01*
X117455839Y-112594880D01*
X117447382Y-112572845D01*
X117444651Y-112549343D01*
X117447357Y-112525815D01*
X117455205Y-112503702D01*
X117467905Y-112484445D01*
X117485165Y-112469485D01*
X117506691Y-112460263D01*
X117508770Y-112459849D01*
X117519622Y-112458477D01*
X117536733Y-112456891D01*
X117558672Y-112455203D01*
X117584008Y-112453528D01*
X117611311Y-112451977D01*
X117683320Y-112447933D01*
X117783457Y-112441211D01*
X117875671Y-112433614D01*
X117960105Y-112425129D01*
X118036899Y-112415740D01*
X118106198Y-112405433D01*
X118168143Y-112394192D01*
X118184312Y-112390958D01*
X118217760Y-112384401D01*
X118244606Y-112379422D01*
X118265849Y-112375904D01*
X118282489Y-112373733D01*
X118295524Y-112372790D01*
X118305954Y-112372960D01*
X118314778Y-112374127D01*
X118322995Y-112376175D01*
X118324511Y-112376648D01*
X118344231Y-112386421D01*
X118365305Y-112402562D01*
X118386758Y-112423708D01*
X118407611Y-112448493D01*
X118426885Y-112475556D01*
X118443604Y-112503532D01*
X118456790Y-112531057D01*
X118465464Y-112556769D01*
X118468649Y-112579302D01*
X118468512Y-112585448D01*
X118464535Y-112606061D01*
X118455001Y-112620739D01*
X118439813Y-112629650D01*
X118434203Y-112630674D01*
X118419496Y-112631432D01*
X118396805Y-112631380D01*
X118366069Y-112630517D01*
X118327227Y-112628843D01*
X118308299Y-112627955D01*
X118275910Y-112626702D01*
X118249800Y-112626275D01*
X118228701Y-112626824D01*
X118211342Y-112628503D01*
X118196455Y-112631461D01*
X118182769Y-112635850D01*
X118169015Y-112641823D01*
X118153923Y-112649531D01*
X118147532Y-112653103D01*
X118125633Y-112669225D01*
X118110067Y-112688712D01*
X118099411Y-112713229D01*
X118097753Y-112718881D01*
X118095524Y-112729126D01*
X118094183Y-112740900D01*
X118093639Y-112755870D01*
X118093801Y-112775700D01*
X118094579Y-112802053D01*
X118096036Y-112831609D01*
X118100646Y-112887566D01*
X118107954Y-112950953D01*
X118117968Y-113021814D01*
X118130694Y-113100192D01*
X118146140Y-113186129D01*
X118164313Y-113279669D01*
X118185220Y-113380854D01*
X118208869Y-113489727D01*
X118211001Y-113499311D01*
X118226635Y-113568284D01*
X118243030Y-113638515D01*
X118259965Y-113709158D01*
X118277220Y-113779368D01*
X118294576Y-113848302D01*
X118311811Y-113915113D01*
X118328706Y-113978958D01*
X118345040Y-114038992D01*
X118360593Y-114094369D01*
X118375145Y-114144245D01*
X118388475Y-114187776D01*
X118400363Y-114224116D01*
X118402497Y-114230276D01*
X118415885Y-114264754D01*
X118429058Y-114291142D01*
X118442182Y-114309529D01*
X118455428Y-114320008D01*
X118468963Y-114322668D01*
X118482957Y-114317599D01*
X118497577Y-114304893D01*
X118512992Y-114284640D01*
X118514774Y-114281859D01*
X118519687Y-114273443D01*
X118525508Y-114262452D01*
X118532392Y-114248526D01*
X118540492Y-114231306D01*
X118549962Y-114210431D01*
X118560957Y-114185541D01*
X118573629Y-114156278D01*
X118588134Y-114122281D01*
X118604624Y-114083190D01*
X118623255Y-114038646D01*
X118644179Y-113988289D01*
X118667550Y-113931758D01*
X118693524Y-113868695D01*
X118722252Y-113798740D01*
X118753891Y-113721531D01*
X118803402Y-113600486D01*
X118853924Y-113476702D01*
X118901352Y-113360207D01*
X118945678Y-113251022D01*
X118986893Y-113149167D01*
X119024989Y-113054662D01*
X119059958Y-112967529D01*
X119091792Y-112887787D01*
X119120483Y-112815457D01*
X119146023Y-112750560D01*
X119168402Y-112693115D01*
X119187614Y-112643145D01*
X119203650Y-112600668D01*
X119216501Y-112565706D01*
X119226160Y-112538279D01*
X119235323Y-112512288D01*
X119250419Y-112473943D01*
X119265276Y-112442463D01*
X119280399Y-112417045D01*
X119296292Y-112396886D01*
X119313459Y-112381183D01*
X119332406Y-112369132D01*
X119334689Y-112367959D01*
X119344923Y-112363604D01*
X119355864Y-112361013D01*
X119370006Y-112359764D01*
X119389844Y-112359436D01*
X119400111Y-112359489D01*
G37*
G36*
X202237236Y-70767711D02*
G01*
X202310080Y-70774386D01*
X202352798Y-70792523D01*
X202365194Y-70821706D01*
X202347075Y-70861518D01*
X202298247Y-70911543D01*
X202289492Y-70919322D01*
X202253231Y-70958692D01*
X202217986Y-71010354D01*
X202181882Y-71078117D01*
X202143043Y-71165784D01*
X202099594Y-71277162D01*
X202049660Y-71416056D01*
X202034482Y-71459045D01*
X201980900Y-71602543D01*
X201932522Y-71717523D01*
X201888122Y-71806505D01*
X201846474Y-71872011D01*
X201806352Y-71916564D01*
X201765846Y-71945779D01*
X201694671Y-71969278D01*
X201620019Y-71960819D01*
X201542427Y-71920511D01*
X201462435Y-71848459D01*
X201430959Y-71813118D01*
X201376204Y-71739812D01*
X201342398Y-71668619D01*
X201325234Y-71588646D01*
X201320409Y-71488998D01*
X201323263Y-71410045D01*
X201338530Y-71319642D01*
X201370529Y-71240812D01*
X201423218Y-71164614D01*
X201500556Y-71082107D01*
X201539028Y-71047742D01*
X201638042Y-70976752D01*
X201754440Y-70910821D01*
X201880090Y-70853448D01*
X202006859Y-70808134D01*
X202126612Y-70778379D01*
X202231216Y-70767683D01*
X202237236Y-70767711D01*
G37*
G36*
X203234770Y-70734029D02*
G01*
X203266214Y-70751583D01*
X203286477Y-70780737D01*
X203297134Y-70826603D01*
X203299759Y-70894293D01*
X203295925Y-70988920D01*
X203293493Y-71052855D01*
X203293508Y-71169341D01*
X203297778Y-71298120D01*
X203306028Y-71427239D01*
X203313805Y-71531584D01*
X203317939Y-71611620D01*
X203318239Y-71670090D01*
X203314729Y-71712361D01*
X203307435Y-71743801D01*
X203304177Y-71753093D01*
X203276500Y-71813423D01*
X203237866Y-71879396D01*
X203194305Y-71942194D01*
X203151844Y-71992999D01*
X203116515Y-72022995D01*
X203079663Y-72037089D01*
X203014565Y-72040693D01*
X202997640Y-72037644D01*
X202922073Y-72012686D01*
X202836199Y-71970445D01*
X202749386Y-71916000D01*
X202671001Y-71854430D01*
X202629020Y-71814103D01*
X202570245Y-71738836D01*
X202538733Y-71661594D01*
X202533785Y-71577554D01*
X202554703Y-71481893D01*
X202600788Y-71369789D01*
X202683094Y-71218444D01*
X202787165Y-71070188D01*
X202915690Y-70924197D01*
X202952973Y-70886427D01*
X203038570Y-70807883D01*
X203109898Y-70756000D01*
X203168443Y-70729806D01*
X203215690Y-70728334D01*
X203234770Y-70734029D01*
G37*
G36*
X200926673Y-70873345D02*
G01*
X200960516Y-70888397D01*
X200970019Y-70898692D01*
X200986132Y-70932389D01*
X200972235Y-70962619D01*
X200927217Y-70992864D01*
X200894104Y-71011337D01*
X200856784Y-71037319D01*
X200821211Y-71069898D01*
X200785153Y-71112318D01*
X200746381Y-71167822D01*
X200702662Y-71239653D01*
X200651765Y-71331055D01*
X200591460Y-71445272D01*
X200519514Y-71585546D01*
X200460330Y-71700199D01*
X200392056Y-71826223D01*
X200332324Y-71927400D01*
X200278950Y-72006628D01*
X200229753Y-72066806D01*
X200182548Y-72110833D01*
X200135154Y-72141606D01*
X200085387Y-72162026D01*
X200046080Y-72170487D01*
X199956607Y-72168057D01*
X199860448Y-72140910D01*
X199764075Y-72091260D01*
X199673961Y-72021321D01*
X199593392Y-71930919D01*
X199535113Y-71827243D01*
X199507499Y-71719728D01*
X199511093Y-71610589D01*
X199546441Y-71502041D01*
X199585763Y-71435044D01*
X199670072Y-71336683D01*
X199783068Y-71241540D01*
X199922526Y-71151004D01*
X200086220Y-71066465D01*
X200271923Y-70989312D01*
X200477409Y-70920936D01*
X200510275Y-70911749D01*
X200605390Y-70890336D01*
X200700924Y-70875362D01*
X200790540Y-70867255D01*
X200867902Y-70866440D01*
X200926673Y-70873345D01*
G37*
G36*
X201317230Y-75243782D02*
G01*
X201481916Y-75283411D01*
X201539772Y-75305128D01*
X201577250Y-75327645D01*
X201586653Y-75351112D01*
X201567365Y-75378016D01*
X201518774Y-75410845D01*
X201440265Y-75452085D01*
X201438509Y-75452953D01*
X201343693Y-75503380D01*
X201261512Y-75556050D01*
X201188488Y-75614960D01*
X201121139Y-75684108D01*
X201055988Y-75767491D01*
X200989555Y-75869107D01*
X200918361Y-75992954D01*
X200838927Y-76143030D01*
X200827605Y-76164925D01*
X200756202Y-76297604D01*
X200693304Y-76403417D01*
X200636572Y-76485470D01*
X200583671Y-76546869D01*
X200532263Y-76590721D01*
X200480010Y-76620132D01*
X200425985Y-76635784D01*
X200342529Y-76642806D01*
X200256801Y-76635503D01*
X200183699Y-76614176D01*
X200179913Y-76612408D01*
X200103797Y-76561132D01*
X200030577Y-76484870D01*
X199964048Y-76390684D01*
X199908006Y-76285637D01*
X199866245Y-76176793D01*
X199842561Y-76071214D01*
X199840751Y-75975964D01*
X199850739Y-75920014D01*
X199895512Y-75799526D01*
X199970434Y-75683929D01*
X200073982Y-75575317D01*
X200204632Y-75475784D01*
X200228376Y-75460612D01*
X200390345Y-75375098D01*
X200568517Y-75308069D01*
X200756591Y-75260474D01*
X200948267Y-75233262D01*
X201137247Y-75227382D01*
X201317230Y-75243782D01*
G37*
G36*
X204381263Y-70748842D02*
G01*
X204391959Y-70781907D01*
X204399763Y-70838293D01*
X204424390Y-70913429D01*
X204460425Y-70987337D01*
X204502286Y-71046627D01*
X204507828Y-71052536D01*
X204547993Y-71090245D01*
X204606119Y-71139855D01*
X204675284Y-71195600D01*
X204748564Y-71251715D01*
X204830278Y-71313969D01*
X204951162Y-71413329D01*
X205042529Y-71499466D01*
X205104360Y-71572361D01*
X205136635Y-71631996D01*
X205138009Y-71636221D01*
X205147817Y-71679099D01*
X205145430Y-71720285D01*
X205130144Y-71775338D01*
X205113714Y-71819544D01*
X205059918Y-71925843D01*
X204990488Y-72027453D01*
X204912161Y-72115241D01*
X204831673Y-72180070D01*
X204799878Y-72198177D01*
X204730246Y-72221592D01*
X204660086Y-72220334D01*
X204585820Y-72193364D01*
X204503867Y-72139647D01*
X204410648Y-72058147D01*
X204346655Y-71992652D01*
X204226078Y-71838166D01*
X204127157Y-71662075D01*
X204113732Y-71633132D01*
X204093577Y-71582746D01*
X204082421Y-71536542D01*
X204077890Y-71482338D01*
X204077607Y-71407951D01*
X204079175Y-71353538D01*
X204086759Y-71275071D01*
X204102878Y-71197879D01*
X204130200Y-71106675D01*
X204149934Y-71051378D01*
X204186284Y-70965865D01*
X204226446Y-70886362D01*
X204266913Y-70819058D01*
X204304176Y-70770142D01*
X204334728Y-70745803D01*
X204351401Y-70741217D01*
X204381263Y-70748842D01*
G37*
G36*
X200092377Y-73663981D02*
G01*
X200140961Y-73669916D01*
X200201427Y-73681056D01*
X200277022Y-73697905D01*
X200370990Y-73720964D01*
X200486578Y-73750735D01*
X200627033Y-73787723D01*
X200795601Y-73832429D01*
X200837016Y-73842879D01*
X200903992Y-73857861D01*
X200981013Y-73872908D01*
X201069794Y-73888225D01*
X201172044Y-73904017D01*
X201289478Y-73920488D01*
X201423806Y-73937842D01*
X201576741Y-73956284D01*
X201749995Y-73976018D01*
X201945280Y-73997250D01*
X202164308Y-74020183D01*
X202408792Y-74045022D01*
X202680443Y-74071972D01*
X202980974Y-74101236D01*
X203312097Y-74133021D01*
X203583057Y-74157022D01*
X203860838Y-74176811D01*
X204114343Y-74189036D01*
X204347405Y-74193706D01*
X204563855Y-74190828D01*
X204767526Y-74180410D01*
X204962248Y-74162462D01*
X205151855Y-74136990D01*
X205204143Y-74129194D01*
X205273790Y-74119826D01*
X205328850Y-74113618D01*
X205360623Y-74111628D01*
X205382843Y-74115699D01*
X205428466Y-74143743D01*
X205465719Y-74190831D01*
X205486379Y-74248044D01*
X205489042Y-74276014D01*
X205484282Y-74301327D01*
X205468345Y-74330232D01*
X205437543Y-74369393D01*
X205388186Y-74425475D01*
X205356912Y-74460805D01*
X205292060Y-74535840D01*
X205223462Y-74616954D01*
X205161578Y-74691852D01*
X205160972Y-74692598D01*
X205081495Y-74787177D01*
X205016171Y-74857371D01*
X204961738Y-74906106D01*
X204914931Y-74936306D01*
X204872487Y-74950894D01*
X204837119Y-74951672D01*
X204770231Y-74944181D01*
X204677050Y-74928204D01*
X204560111Y-74904121D01*
X204388391Y-74867244D01*
X204011601Y-74791877D01*
X203656725Y-74729139D01*
X203318615Y-74678158D01*
X202992124Y-74638060D01*
X202866662Y-74624460D01*
X202858877Y-74674080D01*
X202858576Y-74676215D01*
X202855431Y-74707811D01*
X202850444Y-74767295D01*
X202843906Y-74850801D01*
X202836108Y-74954466D01*
X202827343Y-75074423D01*
X202817900Y-75206809D01*
X202808073Y-75347759D01*
X202806327Y-75373178D01*
X202792520Y-75583779D01*
X202781869Y-75771260D01*
X202774574Y-75940629D01*
X202770834Y-76096895D01*
X202770849Y-76245068D01*
X202774817Y-76390154D01*
X202782939Y-76537163D01*
X202795414Y-76691103D01*
X202812441Y-76856983D01*
X202834219Y-77039812D01*
X202860949Y-77244597D01*
X202892829Y-77476349D01*
X202905901Y-77570437D01*
X202922569Y-77696398D01*
X202933957Y-77798372D01*
X202939696Y-77881322D01*
X202939418Y-77950208D01*
X202932756Y-78009992D01*
X202919342Y-78065635D01*
X202898808Y-78122098D01*
X202870785Y-78184343D01*
X202834906Y-78257331D01*
X202806296Y-78312607D01*
X202740860Y-78425580D01*
X202674758Y-78522904D01*
X202611587Y-78599530D01*
X202554943Y-78650407D01*
X202548446Y-78654709D01*
X202500703Y-78677563D01*
X202456992Y-78686878D01*
X202396261Y-78677522D01*
X202312338Y-78641669D01*
X202222657Y-78582174D01*
X202131069Y-78502462D01*
X202041423Y-78405959D01*
X201957567Y-78296091D01*
X201883351Y-78176285D01*
X201820840Y-78062819D01*
X201824733Y-77811575D01*
X201825359Y-77780315D01*
X201827551Y-77700254D01*
X201830974Y-77593965D01*
X201835478Y-77465426D01*
X201840914Y-77318618D01*
X201847134Y-77157521D01*
X201853988Y-76986114D01*
X201861328Y-76808379D01*
X201869004Y-76628295D01*
X201873329Y-76528375D01*
X201881051Y-76349578D01*
X201888545Y-76175581D01*
X201895643Y-76010327D01*
X201902174Y-75857756D01*
X201907972Y-75721808D01*
X201912867Y-75606425D01*
X201916691Y-75515549D01*
X201919276Y-75453119D01*
X201929170Y-75209980D01*
X201863374Y-75081032D01*
X201854614Y-75063652D01*
X201822867Y-74993937D01*
X201807708Y-74944683D01*
X201807475Y-74910834D01*
X201812620Y-74892227D01*
X201847507Y-74809849D01*
X201900948Y-74721564D01*
X201966816Y-74637870D01*
X202042670Y-74553502D01*
X201987786Y-74553502D01*
X201964159Y-74553134D01*
X201910376Y-74551885D01*
X201831885Y-74549860D01*
X201732785Y-74547170D01*
X201617172Y-74543927D01*
X201489142Y-74540241D01*
X201352791Y-74536225D01*
X201220698Y-74532568D01*
X201017607Y-74528587D01*
X200840211Y-74528025D01*
X200684320Y-74531500D01*
X200545748Y-74539628D01*
X200420305Y-74553029D01*
X200303804Y-74572320D01*
X200192058Y-74598118D01*
X200080877Y-74631042D01*
X199966074Y-74671709D01*
X199843461Y-74720737D01*
X199708849Y-74778745D01*
X199668189Y-74795894D01*
X199599970Y-74821294D01*
X199542261Y-74838768D01*
X199504424Y-74845270D01*
X199453514Y-74836615D01*
X199380659Y-74806706D01*
X199300727Y-74759936D01*
X199220706Y-74701004D01*
X199147583Y-74634608D01*
X199088346Y-74565450D01*
X199062317Y-74522713D01*
X199041501Y-74449278D01*
X199050290Y-74371268D01*
X199088689Y-74284379D01*
X199124184Y-74231789D01*
X199199576Y-74146689D01*
X199296526Y-74057849D01*
X199409520Y-73969213D01*
X199533045Y-73884726D01*
X199661589Y-73808331D01*
X199789639Y-73743972D01*
X199911682Y-73695594D01*
X199914058Y-73694801D01*
X199951929Y-73682246D01*
X199985450Y-73672385D01*
X200017867Y-73665718D01*
X200052427Y-73662750D01*
X200092377Y-73663981D01*
G37*
G36*
X203832856Y-81083440D02*
G01*
X203875071Y-81118858D01*
X203972321Y-81189680D01*
X204083651Y-81256643D01*
X204212657Y-81321475D01*
X204362937Y-81385906D01*
X204538087Y-81451667D01*
X204741703Y-81520485D01*
X204823278Y-81546730D01*
X204946518Y-81585312D01*
X205047103Y-81614828D01*
X205130074Y-81636421D01*
X205200477Y-81651230D01*
X205263353Y-81660395D01*
X205323747Y-81665058D01*
X205386701Y-81666359D01*
X205404042Y-81666403D01*
X205479210Y-81668778D01*
X205528381Y-81676736D01*
X205556894Y-81692992D01*
X205570086Y-81720263D01*
X205573297Y-81761262D01*
X205569576Y-81794806D01*
X205550789Y-81833092D01*
X205510538Y-81876963D01*
X205470959Y-81911506D01*
X205400782Y-81964706D01*
X205317845Y-82021194D01*
X205227706Y-82077767D01*
X205135927Y-82131219D01*
X205048069Y-82178346D01*
X204969692Y-82215944D01*
X204906357Y-82240809D01*
X204863626Y-82249736D01*
X204819872Y-82242178D01*
X204748056Y-82215161D01*
X204656946Y-82169839D01*
X204549543Y-82107569D01*
X204503429Y-82079499D01*
X204467339Y-82059508D01*
X204447572Y-82053748D01*
X204437927Y-82060699D01*
X204432202Y-82078844D01*
X204430501Y-82089056D01*
X204426431Y-82128454D01*
X204421512Y-82189217D01*
X204416096Y-82265379D01*
X204410536Y-82350974D01*
X204405184Y-82440033D01*
X204400391Y-82526592D01*
X204396510Y-82604682D01*
X204393894Y-82668337D01*
X204392893Y-82711590D01*
X204393862Y-82728475D01*
X204400198Y-82731442D01*
X204430982Y-82744174D01*
X204481174Y-82764271D01*
X204544005Y-82789003D01*
X204649539Y-82828860D01*
X204792949Y-82878412D01*
X204923530Y-82918094D01*
X205035919Y-82946312D01*
X205124753Y-82961474D01*
X205144403Y-82963734D01*
X205205973Y-82974923D01*
X205242610Y-82992645D01*
X205260311Y-83021346D01*
X205265072Y-83065470D01*
X205255230Y-83099885D01*
X205220818Y-83150980D01*
X205165899Y-83210051D01*
X205094871Y-83273231D01*
X205012133Y-83336654D01*
X204922083Y-83396452D01*
X204829121Y-83448758D01*
X204785897Y-83466961D01*
X204732395Y-83476471D01*
X204672872Y-83470510D01*
X204600363Y-83448212D01*
X204507906Y-83408706D01*
X204387173Y-83352924D01*
X204396394Y-83486253D01*
X204400055Y-83542720D01*
X204405303Y-83631391D01*
X204410694Y-83729279D01*
X204415505Y-83823606D01*
X204425395Y-84027630D01*
X204583800Y-84086211D01*
X204712153Y-84130950D01*
X204934898Y-84194933D01*
X205143776Y-84236950D01*
X205334718Y-84256079D01*
X205351478Y-84256777D01*
X205429001Y-84260731D01*
X205481018Y-84265488D01*
X205513403Y-84272170D01*
X205532027Y-84281898D01*
X205542765Y-84295794D01*
X205553209Y-84337377D01*
X205540128Y-84389066D01*
X205500585Y-84449105D01*
X205433516Y-84519078D01*
X205337857Y-84600567D01*
X205273862Y-84649120D01*
X205202717Y-84699394D01*
X205140799Y-84739749D01*
X205127286Y-84747788D01*
X205070364Y-84775878D01*
X205015587Y-84790174D01*
X204956959Y-84790113D01*
X204888482Y-84775133D01*
X204804160Y-84744670D01*
X204697994Y-84698161D01*
X204603061Y-84654690D01*
X204443684Y-84582794D01*
X204307278Y-84523337D01*
X204189844Y-84475083D01*
X204087387Y-84436793D01*
X203995910Y-84407233D01*
X203911416Y-84385165D01*
X203829909Y-84369353D01*
X203747392Y-84358560D01*
X203659868Y-84351550D01*
X203563342Y-84347085D01*
X203539397Y-84346172D01*
X203448476Y-84341517D01*
X203364625Y-84335515D01*
X203296293Y-84328842D01*
X203251925Y-84322174D01*
X203191063Y-84300873D01*
X203122528Y-84258480D01*
X203062806Y-84203267D01*
X203017250Y-84141370D01*
X202991214Y-84078923D01*
X202990050Y-84022061D01*
X203013953Y-83970719D01*
X203065952Y-83909048D01*
X203138665Y-83847382D01*
X203226202Y-83789179D01*
X203322673Y-83737893D01*
X203422191Y-83696982D01*
X203518865Y-83669900D01*
X203606807Y-83660105D01*
X203676807Y-83660105D01*
X203676807Y-83336544D01*
X203676807Y-83012982D01*
X203607917Y-82994186D01*
X203596153Y-82991280D01*
X203540347Y-82980961D01*
X203468497Y-82971020D01*
X203393144Y-82963264D01*
X203316064Y-82955696D01*
X203247060Y-82944332D01*
X203194658Y-82927692D01*
X203150260Y-82902903D01*
X203105271Y-82867094D01*
X203048831Y-82817539D01*
X203002625Y-82884215D01*
X202986466Y-82906001D01*
X202932271Y-82964730D01*
X202872165Y-83013946D01*
X202814039Y-83047779D01*
X202765784Y-83060360D01*
X202733565Y-83054017D01*
X202690208Y-83028736D01*
X202634388Y-82980645D01*
X202551514Y-82889474D01*
X202471335Y-82762925D01*
X202420404Y-82627356D01*
X202407725Y-82558035D01*
X202409463Y-82480600D01*
X202432136Y-82407006D01*
X202477875Y-82332911D01*
X202548814Y-82253976D01*
X202647084Y-82165858D01*
X202703856Y-82120617D01*
X202779007Y-82065124D01*
X202859077Y-82009558D01*
X202937955Y-81957906D01*
X203009532Y-81914152D01*
X203067700Y-81882281D01*
X203106349Y-81866279D01*
X203131968Y-81863128D01*
X203156362Y-81876113D01*
X203157984Y-81910461D01*
X203136374Y-81964668D01*
X203126838Y-81984326D01*
X203115611Y-82015843D01*
X203107695Y-82054715D01*
X203102277Y-82107208D01*
X203098543Y-82179587D01*
X203095679Y-82278119D01*
X203089814Y-82525170D01*
X203183770Y-82468593D01*
X203267588Y-82422673D01*
X203395959Y-82369142D01*
X203515973Y-82339225D01*
X203588900Y-82328289D01*
X203573563Y-82235550D01*
X203568519Y-82196456D01*
X203565747Y-82139376D01*
X203569300Y-82098685D01*
X203572081Y-82089689D01*
X203602515Y-82038348D01*
X203656422Y-81980670D01*
X203728423Y-81921771D01*
X203813137Y-81866769D01*
X203823669Y-81860666D01*
X203871096Y-81831856D01*
X203903059Y-81810207D01*
X203913122Y-81800015D01*
X203909334Y-81797490D01*
X203877439Y-81788149D01*
X203821337Y-81778453D01*
X203747389Y-81769054D01*
X203661957Y-81760604D01*
X203571403Y-81753755D01*
X203482090Y-81749159D01*
X203400379Y-81747467D01*
X203326764Y-81747193D01*
X203256705Y-81745588D01*
X203206003Y-81741643D01*
X203167355Y-81734351D01*
X203133457Y-81722708D01*
X203097007Y-81705708D01*
X203084088Y-81698852D01*
X203022823Y-81657208D01*
X202960908Y-81603003D01*
X202905409Y-81543625D01*
X202863388Y-81486463D01*
X202841912Y-81438905D01*
X202841008Y-81434514D01*
X202840685Y-81389720D01*
X202860323Y-81347729D01*
X202903342Y-81303693D01*
X202973159Y-81252764D01*
X203076950Y-81192509D01*
X203213861Y-81129733D01*
X203361901Y-81075748D01*
X203509840Y-81034598D01*
X203646449Y-81010328D01*
X203737661Y-80999942D01*
X203832856Y-81083440D01*
G37*
G36*
X204067657Y-69185664D02*
G01*
X204037661Y-69254945D01*
X204017859Y-69305561D01*
X204017270Y-69307260D01*
X203994380Y-69384537D01*
X203969462Y-69487752D01*
X203943728Y-69610758D01*
X203918388Y-69747408D01*
X203894653Y-69891558D01*
X203873734Y-70037059D01*
X203860388Y-70132276D01*
X203846680Y-70213977D01*
X203833047Y-70274467D01*
X203818139Y-70319621D01*
X203800607Y-70355316D01*
X203794889Y-70364647D01*
X203742981Y-70431234D01*
X203672029Y-70502055D01*
X203590984Y-70568883D01*
X203508797Y-70623493D01*
X203470096Y-70644190D01*
X203410670Y-70665745D01*
X203359464Y-70666176D01*
X203306846Y-70646585D01*
X203304109Y-70645121D01*
X203257624Y-70610550D01*
X203202655Y-70556251D01*
X203146090Y-70490223D01*
X203094818Y-70420464D01*
X203055725Y-70354972D01*
X203033928Y-70316073D01*
X203006027Y-70276251D01*
X202984491Y-70256388D01*
X202955778Y-70251044D01*
X202899509Y-70246408D01*
X202820920Y-70242593D01*
X202725083Y-70239647D01*
X202617075Y-70237617D01*
X202501968Y-70236549D01*
X202384839Y-70236490D01*
X202270761Y-70237487D01*
X202164809Y-70239587D01*
X202072057Y-70242837D01*
X201997580Y-70247283D01*
X201937415Y-70252427D01*
X201837033Y-70263765D01*
X201748982Y-70278844D01*
X201659953Y-70300166D01*
X201556637Y-70330235D01*
X201539222Y-70335547D01*
X201460169Y-70358776D01*
X201391391Y-70377616D01*
X201339759Y-70390253D01*
X201312145Y-70394869D01*
X201280623Y-70390604D01*
X201216819Y-70365007D01*
X201149989Y-70321703D01*
X201089109Y-70266958D01*
X201043151Y-70207038D01*
X201018266Y-70160464D01*
X201006792Y-70118268D01*
X201016018Y-70081572D01*
X201046135Y-70039556D01*
X201088059Y-69989733D01*
X201039235Y-69928899D01*
X201024867Y-69911643D01*
X200966712Y-69848379D01*
X200889535Y-69771212D01*
X200798167Y-69684750D01*
X200697442Y-69593605D01*
X200592190Y-69502385D01*
X200535349Y-69452757D01*
X200447473Y-69366913D01*
X200386560Y-69292039D01*
X200351112Y-69226147D01*
X200339629Y-69167246D01*
X200346165Y-69116459D01*
X200356300Y-69092297D01*
X201728418Y-69092297D01*
X201729766Y-69140065D01*
X201729818Y-69141037D01*
X201733987Y-69189673D01*
X201742285Y-69235936D01*
X201756828Y-69286079D01*
X201779731Y-69346354D01*
X201813108Y-69423015D01*
X201859076Y-69522314D01*
X201947976Y-69711469D01*
X202079891Y-69720663D01*
X202090172Y-69721379D01*
X202153131Y-69725754D01*
X202239618Y-69731751D01*
X202342449Y-69738874D01*
X202454440Y-69746625D01*
X202568411Y-69754507D01*
X202602665Y-69756894D01*
X202711659Y-69764744D01*
X202813100Y-69772408D01*
X202900788Y-69779399D01*
X202968526Y-69785225D01*
X203010114Y-69789398D01*
X203043386Y-69792889D01*
X203081173Y-69795097D01*
X203096349Y-69793330D01*
X203096495Y-69792697D01*
X203102121Y-69771670D01*
X203114869Y-69724952D01*
X203133413Y-69657381D01*
X203156423Y-69573798D01*
X203182572Y-69479043D01*
X203267660Y-69171066D01*
X203120652Y-69142315D01*
X203117974Y-69141793D01*
X202999157Y-69120974D01*
X202865851Y-69101542D01*
X202722713Y-69083837D01*
X202574396Y-69068196D01*
X202425558Y-69054958D01*
X202280852Y-69044463D01*
X202144935Y-69037047D01*
X202022462Y-69033051D01*
X201918088Y-69032813D01*
X201836468Y-69036671D01*
X201782259Y-69044963D01*
X201754242Y-69053435D01*
X201734719Y-69066785D01*
X201728418Y-69092297D01*
X200356300Y-69092297D01*
X200381681Y-69031789D01*
X200447464Y-68940402D01*
X200542843Y-68843170D01*
X200667144Y-68740971D01*
X200741315Y-68687231D01*
X200853566Y-68613479D01*
X200962537Y-68550297D01*
X201063935Y-68499760D01*
X201153469Y-68463943D01*
X201226844Y-68444922D01*
X201279770Y-68444772D01*
X201281743Y-68445285D01*
X201314484Y-68456576D01*
X201368980Y-68477825D01*
X201438123Y-68506189D01*
X201514805Y-68538824D01*
X201628901Y-68587243D01*
X201727582Y-68626410D01*
X201809538Y-68655232D01*
X201881051Y-68675908D01*
X201948404Y-68690639D01*
X202025398Y-68704915D01*
X202025398Y-68432183D01*
X202025398Y-68159452D01*
X201972718Y-68150364D01*
X201956379Y-68147845D01*
X201891435Y-68140432D01*
X201804397Y-68132892D01*
X201702874Y-68125689D01*
X201594472Y-68119289D01*
X201486801Y-68114154D01*
X201387469Y-68110750D01*
X201304084Y-68109542D01*
X201279912Y-68109670D01*
X201167804Y-68114482D01*
X201063192Y-68127860D01*
X200947479Y-68152021D01*
X200900899Y-68163096D01*
X200798422Y-68187195D01*
X200720692Y-68204225D01*
X200662760Y-68214357D01*
X200619674Y-68217759D01*
X200586483Y-68214602D01*
X200558235Y-68205054D01*
X200529981Y-68189287D01*
X200496768Y-68167469D01*
X200446167Y-68130009D01*
X200380698Y-68073840D01*
X200323893Y-68017635D01*
X200286408Y-67974926D01*
X200258652Y-67935754D01*
X200245620Y-67901565D01*
X200242374Y-67862991D01*
X200243002Y-67842487D01*
X200248995Y-67812325D01*
X200265173Y-67782708D01*
X200296155Y-67746205D01*
X200346561Y-67695385D01*
X200409392Y-67637664D01*
X200501214Y-67563639D01*
X200597804Y-67495397D01*
X200693577Y-67436320D01*
X200782951Y-67389790D01*
X200860341Y-67359190D01*
X200920165Y-67347902D01*
X200937426Y-67351234D01*
X200981511Y-67367418D01*
X201040530Y-67394013D01*
X201106572Y-67427637D01*
X201134486Y-67442210D01*
X201224091Y-67484979D01*
X201318483Y-67525437D01*
X201401340Y-67556452D01*
X201452910Y-67572275D01*
X201530111Y-67593316D01*
X201618658Y-67615526D01*
X201711445Y-67637302D01*
X201801365Y-67657034D01*
X201881312Y-67673118D01*
X201944179Y-67683947D01*
X201982859Y-67687913D01*
X201993418Y-67684332D01*
X202006536Y-67655664D01*
X202008320Y-67600434D01*
X201998815Y-67521185D01*
X201978067Y-67420459D01*
X201974296Y-67404580D01*
X201952665Y-67309627D01*
X201939302Y-67239348D01*
X201933952Y-67187972D01*
X201936360Y-67149729D01*
X201946271Y-67118848D01*
X201963429Y-67089558D01*
X201978759Y-67071360D01*
X202028932Y-67029233D01*
X202100406Y-66981409D01*
X202186958Y-66931049D01*
X202282365Y-66881316D01*
X202380404Y-66835372D01*
X202474851Y-66796376D01*
X202559485Y-66767493D01*
X202628082Y-66751882D01*
X202686148Y-66755563D01*
X202753019Y-66778210D01*
X202822669Y-66815485D01*
X202889604Y-66862975D01*
X202948333Y-66916271D01*
X202993361Y-66970961D01*
X203019196Y-67022635D01*
X203020345Y-67066880D01*
X203016974Y-67076117D01*
X203001778Y-67114251D01*
X202978805Y-67169742D01*
X202951570Y-67234052D01*
X202892597Y-67371831D01*
X202893017Y-67931053D01*
X202893893Y-68141557D01*
X202896274Y-68326100D01*
X202900179Y-68479231D01*
X202905630Y-68601443D01*
X202912649Y-68693228D01*
X202921258Y-68755080D01*
X202931479Y-68787490D01*
X202941795Y-68794122D01*
X202979911Y-68804784D01*
X203038383Y-68815191D01*
X203109862Y-68824639D01*
X203186999Y-68832424D01*
X203262448Y-68837843D01*
X203328859Y-68840191D01*
X203378884Y-68838765D01*
X203405174Y-68832861D01*
X203428403Y-68816020D01*
X203469815Y-68785308D01*
X203518639Y-68748665D01*
X203529040Y-68740870D01*
X203606385Y-68686117D01*
X203682058Y-68637524D01*
X203750092Y-68598542D01*
X203804520Y-68572623D01*
X203839372Y-68563216D01*
X203856446Y-68564661D01*
X203912684Y-68581851D01*
X203977890Y-68614629D01*
X204045640Y-68658182D01*
X204109514Y-68707694D01*
X204163090Y-68758351D01*
X204199944Y-68805337D01*
X204213656Y-68843837D01*
X204208267Y-68868362D01*
X204190711Y-68916926D01*
X204163864Y-68980271D01*
X204130715Y-69050933D01*
X204103319Y-69107932D01*
X204074354Y-69171066D01*
X204067657Y-69185664D01*
G37*
G36*
X202372361Y-82815639D02*
G01*
X202486320Y-83217326D01*
X202631609Y-83613727D01*
X202719815Y-83815252D01*
X202892362Y-84148398D01*
X202924754Y-84200220D01*
X203094266Y-84471411D01*
X203325980Y-84784882D01*
X203587954Y-85089403D01*
X203880639Y-85385564D01*
X204204488Y-85673957D01*
X204297085Y-85753115D01*
X204375630Y-85824523D01*
X204431369Y-85881425D01*
X204466235Y-85926009D01*
X204482164Y-85960465D01*
X204481089Y-85986981D01*
X204475581Y-85996565D01*
X204450399Y-86009592D01*
X204406964Y-86007859D01*
X204343475Y-85990808D01*
X204258132Y-85957880D01*
X204149136Y-85908515D01*
X204014685Y-85842156D01*
X203908797Y-85786709D01*
X203581652Y-85592401D01*
X203276586Y-85374637D01*
X202994012Y-85133759D01*
X202734344Y-84870111D01*
X202497995Y-84584036D01*
X202463712Y-84539615D01*
X202424452Y-84491341D01*
X202395189Y-84458426D01*
X202380514Y-84446257D01*
X202370730Y-84453578D01*
X202344536Y-84482229D01*
X202307352Y-84527518D01*
X202263759Y-84584036D01*
X202260022Y-84588997D01*
X202198993Y-84664096D01*
X202145225Y-84719239D01*
X202102839Y-84750170D01*
X202093553Y-84754666D01*
X202070705Y-84763895D01*
X202046291Y-84768701D01*
X202014237Y-84768852D01*
X201968471Y-84764117D01*
X201902916Y-84754264D01*
X201811501Y-84739062D01*
X201718400Y-84724025D01*
X201525580Y-84696605D01*
X201323615Y-84672289D01*
X201116249Y-84651250D01*
X200907223Y-84633662D01*
X200700282Y-84619696D01*
X200499168Y-84609527D01*
X200307625Y-84603328D01*
X200129395Y-84601271D01*
X199968223Y-84603529D01*
X199827850Y-84610277D01*
X199712021Y-84621686D01*
X199624478Y-84637930D01*
X199599762Y-84644409D01*
X199533132Y-84662180D01*
X199453683Y-84683644D01*
X199373686Y-84705495D01*
X199271911Y-84729099D01*
X199137213Y-84743126D01*
X199012479Y-84732887D01*
X198890753Y-84698278D01*
X198856134Y-84684263D01*
X198774121Y-84640756D01*
X198723155Y-84593106D01*
X198702229Y-84539268D01*
X198710338Y-84477199D01*
X198746478Y-84404855D01*
X198789656Y-84346408D01*
X198868691Y-84261472D01*
X198965925Y-84173532D01*
X199074928Y-84087292D01*
X199189273Y-84007456D01*
X199302531Y-83938727D01*
X199408275Y-83885810D01*
X199500076Y-83853408D01*
X199504638Y-83852274D01*
X199536765Y-83845136D01*
X199564022Y-83843241D01*
X199593165Y-83848474D01*
X199630950Y-83862720D01*
X199684132Y-83887866D01*
X199759468Y-83925796D01*
X199807224Y-83949801D01*
X199875177Y-83982000D01*
X199931586Y-84004094D01*
X199987308Y-84019433D01*
X200053199Y-84031366D01*
X200140116Y-84043244D01*
X200147047Y-84044130D01*
X200222389Y-84053246D01*
X200284348Y-84059842D01*
X200326678Y-84063308D01*
X200343130Y-84063037D01*
X200343598Y-84050281D01*
X200343509Y-84008439D01*
X200342790Y-83941103D01*
X200341497Y-83851996D01*
X200339683Y-83744839D01*
X200337404Y-83623352D01*
X200334715Y-83491259D01*
X200333204Y-83421916D01*
X200330096Y-83296003D01*
X201068027Y-83296003D01*
X201068121Y-83385374D01*
X201068688Y-83486030D01*
X201069669Y-83593155D01*
X201071010Y-83701930D01*
X201072653Y-83807540D01*
X201074542Y-83905166D01*
X201076621Y-83989993D01*
X201078832Y-84057203D01*
X201081121Y-84101979D01*
X201083429Y-84119504D01*
X201086659Y-84120614D01*
X201115539Y-84124916D01*
X201170124Y-84130842D01*
X201245603Y-84137929D01*
X201337163Y-84145714D01*
X201439992Y-84153737D01*
X201560604Y-84162419D01*
X201688360Y-84171033D01*
X201812801Y-84178909D01*
X201924261Y-84185434D01*
X202013073Y-84189997D01*
X202237808Y-84200220D01*
X202186573Y-84112518D01*
X202169132Y-84082248D01*
X202080126Y-83916037D01*
X201991567Y-83732407D01*
X201909269Y-83543292D01*
X201888622Y-83491663D01*
X201855684Y-83404939D01*
X201821082Y-83309681D01*
X201786685Y-83211443D01*
X201754356Y-83115781D01*
X201725964Y-83028248D01*
X201703373Y-82954399D01*
X201688450Y-82899788D01*
X201683061Y-82869972D01*
X201679739Y-82865060D01*
X201662883Y-82876495D01*
X201636349Y-82907992D01*
X201621972Y-82926675D01*
X201550184Y-83006530D01*
X201466155Y-83084374D01*
X201383478Y-83147341D01*
X201314871Y-83179791D01*
X201228623Y-83188688D01*
X201137549Y-83165721D01*
X201126483Y-83161153D01*
X201090265Y-83147077D01*
X201071964Y-83141407D01*
X201071140Y-83143771D01*
X201069480Y-83170384D01*
X201068461Y-83222734D01*
X201068027Y-83296003D01*
X200330096Y-83296003D01*
X200329578Y-83275003D01*
X200325906Y-83156944D01*
X200322045Y-83065212D01*
X200317853Y-82997283D01*
X200313186Y-82950630D01*
X200307901Y-82922726D01*
X200301856Y-82911046D01*
X200293419Y-82907549D01*
X200253820Y-82903465D01*
X200194307Y-82905331D01*
X200123248Y-82912413D01*
X200049012Y-82923978D01*
X199979969Y-82939290D01*
X199943022Y-82948425D01*
X199850190Y-82961868D01*
X199770748Y-82954468D01*
X199694760Y-82924341D01*
X199612292Y-82869605D01*
X199559337Y-82821892D01*
X199509362Y-82760264D01*
X199475101Y-82698564D01*
X199462384Y-82645509D01*
X199463405Y-82628663D01*
X199478992Y-82587071D01*
X199518287Y-82544566D01*
X199545480Y-82522877D01*
X199630997Y-82470275D01*
X199733972Y-82422404D01*
X199843807Y-82383261D01*
X199949906Y-82356844D01*
X200041670Y-82347150D01*
X200074664Y-82349804D01*
X200136811Y-82361591D01*
X200200030Y-82379611D01*
X200244446Y-82393882D01*
X200283444Y-82404098D01*
X200300957Y-82405493D01*
X200301764Y-82400639D01*
X200299419Y-82370499D01*
X200292350Y-82319612D01*
X200281534Y-82255515D01*
X200262723Y-82149750D01*
X200246376Y-82051221D01*
X200235720Y-81976163D01*
X200230222Y-81920121D01*
X200229347Y-81878638D01*
X200232561Y-81847259D01*
X200232811Y-81846252D01*
X201035554Y-81846252D01*
X201036497Y-81927664D01*
X201038663Y-82033895D01*
X201041908Y-82168740D01*
X201042505Y-82192437D01*
X201045693Y-82309597D01*
X201048947Y-82415028D01*
X201052113Y-82504594D01*
X201055033Y-82574157D01*
X201057554Y-82619582D01*
X201059518Y-82636733D01*
X201059808Y-82636973D01*
X201079097Y-82644656D01*
X201120580Y-82658114D01*
X201175793Y-82674590D01*
X201198668Y-82680296D01*
X201254119Y-82690716D01*
X201322397Y-82700786D01*
X201397088Y-82709888D01*
X201471774Y-82717409D01*
X201540042Y-82722732D01*
X201595474Y-82725241D01*
X201631656Y-82724320D01*
X201642172Y-82719354D01*
X201640329Y-82713544D01*
X201632642Y-82681148D01*
X201620543Y-82625634D01*
X201605261Y-82552715D01*
X201588030Y-82468109D01*
X201572457Y-82385818D01*
X201547922Y-82239174D01*
X201523544Y-82074973D01*
X201500557Y-81902160D01*
X201480193Y-81729679D01*
X201463687Y-81566473D01*
X201453855Y-81458482D01*
X201272638Y-81545720D01*
X201200198Y-81582335D01*
X201135878Y-81618083D01*
X201087127Y-81648643D01*
X201060927Y-81669920D01*
X201054261Y-81678756D01*
X201046915Y-81692955D01*
X201041516Y-81713012D01*
X201037920Y-81742719D01*
X201035980Y-81785868D01*
X201035554Y-81846252D01*
X200232811Y-81846252D01*
X200235477Y-81835501D01*
X200263917Y-81779593D01*
X200315737Y-81714548D01*
X200386680Y-81645172D01*
X200472494Y-81576270D01*
X200566776Y-81507415D01*
X200480598Y-81488684D01*
X200325342Y-81461866D01*
X200117876Y-81445404D01*
X199889715Y-81447489D01*
X199886112Y-81447656D01*
X199795289Y-81451520D01*
X199729935Y-81452911D01*
X199683382Y-81451279D01*
X199648960Y-81446073D01*
X199620003Y-81436742D01*
X199589842Y-81422738D01*
X199562949Y-81408285D01*
X199483714Y-81352735D01*
X199421082Y-81288667D01*
X199379929Y-81221824D01*
X199365128Y-81157948D01*
X199366930Y-81144630D01*
X199391865Y-81100614D01*
X199443440Y-81050693D01*
X199518231Y-80996939D01*
X199612815Y-80941426D01*
X199723767Y-80886226D01*
X199847664Y-80833411D01*
X199981082Y-80785054D01*
X200082317Y-80754015D01*
X200206307Y-80724770D01*
X200307475Y-80712486D01*
X200383650Y-80717529D01*
X200401005Y-80724058D01*
X200445006Y-80749204D01*
X200500525Y-80787524D01*
X200559583Y-80833749D01*
X200573549Y-80845216D01*
X200746128Y-80964548D01*
X200937939Y-81059492D01*
X201145462Y-81128579D01*
X201365175Y-81170338D01*
X201444417Y-81180076D01*
X201434617Y-81038246D01*
X201433802Y-81026627D01*
X201427471Y-80944101D01*
X201420359Y-80861299D01*
X201413856Y-80794537D01*
X201402896Y-80692657D01*
X201475041Y-80623530D01*
X201495034Y-80605826D01*
X201567610Y-80554264D01*
X201659405Y-80501623D01*
X201762795Y-80451187D01*
X201870155Y-80406243D01*
X201973858Y-80370073D01*
X202066280Y-80345962D01*
X202139796Y-80337195D01*
X202140275Y-80337195D01*
X202199888Y-80343753D01*
X202254364Y-80366001D01*
X202310827Y-80408063D01*
X202376406Y-80474060D01*
X202384136Y-80482608D01*
X202448892Y-80565244D01*
X202484130Y-80636126D01*
X202489995Y-80696446D01*
X202466627Y-80747393D01*
X202414169Y-80790159D01*
X202367605Y-80820727D01*
X202326137Y-80858512D01*
X202293726Y-80904523D01*
X202269109Y-80962788D01*
X202251024Y-81037333D01*
X202238210Y-81132183D01*
X202229403Y-81251365D01*
X202223342Y-81398905D01*
X202220887Y-81592002D01*
X202239402Y-82001663D01*
X202289974Y-82409980D01*
X202352806Y-82719354D01*
X202372361Y-82815639D01*
G37*
G36*
X205020559Y-61847314D02*
G01*
X204961791Y-61928736D01*
X204898565Y-62006630D01*
X204836232Y-62073771D01*
X204780142Y-62122932D01*
X204743829Y-62145255D01*
X204699769Y-62159157D01*
X204647912Y-62160176D01*
X204583048Y-62147734D01*
X204499965Y-62121257D01*
X204393452Y-62080168D01*
X204385237Y-62076841D01*
X204301940Y-62043160D01*
X204222981Y-62011316D01*
X204156928Y-61984758D01*
X204112348Y-61966939D01*
X204035354Y-61936378D01*
X204035354Y-62273710D01*
X204035354Y-62459877D01*
X204035354Y-62611042D01*
X204420325Y-62799148D01*
X204500705Y-62838198D01*
X204708653Y-62936696D01*
X204891946Y-63019321D01*
X205052754Y-63086917D01*
X205193246Y-63140323D01*
X205315590Y-63180384D01*
X205421956Y-63207939D01*
X205514512Y-63223831D01*
X205551031Y-63229498D01*
X205603713Y-63247579D01*
X205631789Y-63277673D01*
X205640076Y-63323609D01*
X205640073Y-63323795D01*
X205628468Y-63345057D01*
X205597154Y-63384223D01*
X205550146Y-63437254D01*
X205491461Y-63500110D01*
X205425117Y-63568748D01*
X205355130Y-63639129D01*
X205285518Y-63707213D01*
X205220297Y-63768958D01*
X205163485Y-63820324D01*
X205119099Y-63857270D01*
X205091155Y-63875756D01*
X205063773Y-63886306D01*
X205035326Y-63889864D01*
X205002560Y-63881059D01*
X204953375Y-63858365D01*
X204947899Y-63855573D01*
X204900332Y-63827145D01*
X204832273Y-63781730D01*
X204747754Y-63722292D01*
X204650804Y-63651796D01*
X204545455Y-63573206D01*
X204435737Y-63489486D01*
X204325681Y-63403601D01*
X204219317Y-63318514D01*
X204055419Y-63185552D01*
X204062241Y-63294200D01*
X204064538Y-63330660D01*
X204074545Y-63483574D01*
X204083797Y-63608120D01*
X204093078Y-63707601D01*
X204103170Y-63785320D01*
X204114855Y-63844581D01*
X204128915Y-63888687D01*
X204146132Y-63920942D01*
X204167289Y-63944648D01*
X204193169Y-63963110D01*
X204224552Y-63979630D01*
X204255702Y-63993588D01*
X204290164Y-64004077D01*
X204330102Y-64008714D01*
X204384447Y-64008422D01*
X204462133Y-64004120D01*
X204501838Y-64001445D01*
X204583059Y-63995472D01*
X204656145Y-63989498D01*
X204708984Y-63984488D01*
X204751276Y-63981411D01*
X204789494Y-63985624D01*
X204812102Y-64001028D01*
X204823703Y-64020044D01*
X204824964Y-64060711D01*
X204797868Y-64099570D01*
X204744860Y-64131864D01*
X204673628Y-64162821D01*
X204565783Y-64216203D01*
X204479486Y-64271327D01*
X204408593Y-64334065D01*
X204346958Y-64410284D01*
X204288435Y-64505857D01*
X204226881Y-64626652D01*
X204185831Y-64711960D01*
X204136679Y-64814064D01*
X204089145Y-64912770D01*
X204049445Y-64995167D01*
X204028603Y-65037397D01*
X203987923Y-65111733D01*
X203954227Y-65159859D01*
X203925423Y-65184978D01*
X203867608Y-65205661D01*
X203795639Y-65202641D01*
X203716992Y-65169184D01*
X203659751Y-65126982D01*
X203586040Y-65051276D01*
X203513472Y-64956268D01*
X203446282Y-64848861D01*
X203388709Y-64735960D01*
X203344990Y-64624468D01*
X203319362Y-64521291D01*
X203318448Y-64514890D01*
X203314113Y-64463851D01*
X203310850Y-64384876D01*
X203308653Y-64277220D01*
X203307513Y-64140138D01*
X203307426Y-63972887D01*
X203308382Y-63774723D01*
X203310377Y-63544900D01*
X203311731Y-63409820D01*
X203313291Y-63241368D01*
X203314344Y-63101109D01*
X203314839Y-62986553D01*
X203314721Y-62895210D01*
X203313938Y-62824589D01*
X203312437Y-62772199D01*
X203310164Y-62735550D01*
X203307068Y-62712152D01*
X203303093Y-62699514D01*
X203298189Y-62695145D01*
X203292300Y-62696554D01*
X203291057Y-62697270D01*
X203266694Y-62714872D01*
X203224004Y-62748607D01*
X203168642Y-62793924D01*
X203106265Y-62846270D01*
X203094948Y-62855872D01*
X203006695Y-62929852D01*
X202937894Y-62984956D01*
X202884344Y-63023683D01*
X202841843Y-63048529D01*
X202806188Y-63061991D01*
X202773177Y-63066566D01*
X202738608Y-63064752D01*
X202701200Y-63058138D01*
X202637249Y-63043024D01*
X202560123Y-63022220D01*
X202479259Y-62998148D01*
X202406553Y-62975417D01*
X202340322Y-62954741D01*
X202290554Y-62939236D01*
X202264486Y-62931160D01*
X202248682Y-62930497D01*
X202237802Y-62948468D01*
X202241929Y-62985438D01*
X202259052Y-63036683D01*
X202287158Y-63097479D01*
X202324236Y-63163102D01*
X202368274Y-63228826D01*
X202372954Y-63234663D01*
X202417260Y-63289928D01*
X202516071Y-63401242D01*
X202505919Y-63539824D01*
X202499792Y-63608931D01*
X202485641Y-63705008D01*
X202466101Y-63775624D01*
X202440189Y-63825039D01*
X202415129Y-63843947D01*
X202359300Y-63854078D01*
X202279686Y-63847190D01*
X202178450Y-63823297D01*
X202054113Y-63799787D01*
X201906177Y-63798420D01*
X201754961Y-63822727D01*
X201709036Y-63834221D01*
X201649564Y-63851497D01*
X201616041Y-63869016D01*
X201607961Y-63891211D01*
X201624821Y-63922517D01*
X201666114Y-63967366D01*
X201731337Y-64030192D01*
X201893185Y-64170394D01*
X202118359Y-64327665D01*
X202364169Y-64461018D01*
X202629096Y-64569650D01*
X202911619Y-64652761D01*
X203007665Y-64677554D01*
X203079914Y-64701245D01*
X203126923Y-64725123D01*
X203152190Y-64751665D01*
X203159209Y-64783346D01*
X203151476Y-64822643D01*
X203149599Y-64827898D01*
X203128240Y-64856899D01*
X203088433Y-64877973D01*
X203026769Y-64891946D01*
X202939837Y-64899644D01*
X202824228Y-64901894D01*
X202720485Y-64900083D01*
X202421060Y-64875454D01*
X202134396Y-64822329D01*
X201861676Y-64741109D01*
X201604084Y-64632193D01*
X201362802Y-64495981D01*
X201139016Y-64332871D01*
X201022576Y-64237165D01*
X200873272Y-64379228D01*
X200849456Y-64402240D01*
X200785958Y-64465515D01*
X200708639Y-64544443D01*
X200622935Y-64633401D01*
X200534282Y-64726767D01*
X200448115Y-64818919D01*
X200393442Y-64877469D01*
X200315783Y-64959160D01*
X200244299Y-65032696D01*
X200182901Y-65094124D01*
X200135501Y-65139487D01*
X200106010Y-65164831D01*
X200088304Y-65177380D01*
X200048002Y-65199879D01*
X200007370Y-65208260D01*
X199950606Y-65206790D01*
X199928342Y-65204383D01*
X199852252Y-65187525D01*
X199783767Y-65161584D01*
X199779163Y-65159231D01*
X199700462Y-65106019D01*
X199621820Y-65031742D01*
X199552040Y-64945820D01*
X199499920Y-64857677D01*
X199479002Y-64808789D01*
X199464857Y-64759110D01*
X199458307Y-64702649D01*
X199456980Y-64626652D01*
X199462813Y-64534825D01*
X199488481Y-64427938D01*
X199537853Y-64328818D01*
X199614473Y-64228507D01*
X199666322Y-64175043D01*
X199771749Y-64085452D01*
X199901416Y-63992852D01*
X200050869Y-63900125D01*
X200215656Y-63810153D01*
X200391323Y-63725816D01*
X200451503Y-63698686D01*
X200508028Y-63672887D01*
X200547150Y-63654660D01*
X200562765Y-63646816D01*
X200558511Y-63633109D01*
X200542631Y-63595798D01*
X200517625Y-63540851D01*
X200486118Y-63474182D01*
X200468218Y-63435426D01*
X200423025Y-63327387D01*
X200375777Y-63202600D01*
X200330145Y-63071438D01*
X200289805Y-62944270D01*
X200258432Y-62831470D01*
X200241157Y-62762713D01*
X201033149Y-62762713D01*
X201043591Y-62807222D01*
X201055000Y-62850249D01*
X201078669Y-62927862D01*
X201108782Y-63018927D01*
X201142057Y-63113889D01*
X201175212Y-63203189D01*
X201204966Y-63277271D01*
X201211398Y-63292171D01*
X201242336Y-63356256D01*
X201267585Y-63393038D01*
X201289378Y-63405921D01*
X201322892Y-63403661D01*
X201379846Y-63392771D01*
X201451059Y-63375328D01*
X201528880Y-63353591D01*
X201605655Y-63329821D01*
X201673735Y-63306279D01*
X201725466Y-63285224D01*
X201753196Y-63268917D01*
X201787450Y-63234663D01*
X201728672Y-63028890D01*
X201723870Y-63012116D01*
X201702271Y-62937674D01*
X201684119Y-62876691D01*
X201671198Y-62835080D01*
X201665292Y-62818757D01*
X201663698Y-62818221D01*
X201639197Y-62814800D01*
X201590027Y-62809614D01*
X201522234Y-62803268D01*
X201441863Y-62796370D01*
X201436081Y-62795893D01*
X201344956Y-62788387D01*
X201256709Y-62781118D01*
X201181152Y-62774896D01*
X201128093Y-62770528D01*
X201033149Y-62762713D01*
X200241157Y-62762713D01*
X200241124Y-62762580D01*
X200081082Y-62762580D01*
X199965046Y-62766753D01*
X199755044Y-62796775D01*
X199557344Y-62855121D01*
X199374888Y-62941047D01*
X199343857Y-62957177D01*
X199283388Y-62980604D01*
X199234553Y-62989511D01*
X199221481Y-62988974D01*
X199156477Y-62974238D01*
X199087582Y-62943109D01*
X199021802Y-62900670D01*
X198966143Y-62852004D01*
X198927611Y-62802194D01*
X198913210Y-62756326D01*
X198914300Y-62741717D01*
X198933550Y-62680609D01*
X198973795Y-62605844D01*
X199031077Y-62521735D01*
X199101439Y-62432592D01*
X199180923Y-62342727D01*
X199265572Y-62256453D01*
X199351429Y-62178079D01*
X199434537Y-62111918D01*
X199510937Y-62062282D01*
X199576674Y-62033481D01*
X199595346Y-62029357D01*
X199625940Y-62028782D01*
X199665394Y-62036437D01*
X199720675Y-62053863D01*
X199798752Y-62082601D01*
X199847962Y-62100457D01*
X199934421Y-62128612D01*
X200016242Y-62151801D01*
X200080782Y-62166272D01*
X200193699Y-62185636D01*
X200279450Y-62095676D01*
X200291713Y-62082992D01*
X200376931Y-62003066D01*
X200467958Y-61929830D01*
X200559326Y-61866794D01*
X200645567Y-61817466D01*
X200721213Y-61785355D01*
X200780795Y-61773970D01*
X200795203Y-61775129D01*
X200848821Y-61788558D01*
X200912679Y-61812969D01*
X200974455Y-61843236D01*
X201021825Y-61874233D01*
X201059056Y-61912076D01*
X201074743Y-61952451D01*
X201067630Y-62001565D01*
X201038384Y-62067194D01*
X201015373Y-62115528D01*
X200991603Y-62176522D01*
X200978521Y-62224523D01*
X200968598Y-62286580D01*
X201247781Y-62322638D01*
X201324448Y-62332329D01*
X201406010Y-62342112D01*
X201471281Y-62349344D01*
X201514979Y-62353445D01*
X201531825Y-62353835D01*
X201531418Y-62340441D01*
X201524909Y-62303402D01*
X201513500Y-62251853D01*
X201506903Y-62222504D01*
X201488745Y-62088879D01*
X201494111Y-61973755D01*
X201496397Y-61966252D01*
X202132587Y-61966252D01*
X202133371Y-62069936D01*
X202134456Y-62151550D01*
X202136484Y-62240362D01*
X202139108Y-62314878D01*
X202142109Y-62369057D01*
X202145266Y-62396858D01*
X202150868Y-62412232D01*
X202166868Y-62427376D01*
X202199288Y-62436856D01*
X202256119Y-62444074D01*
X202257486Y-62444211D01*
X202323089Y-62449466D01*
X202406557Y-62454226D01*
X202502863Y-62458402D01*
X202606983Y-62461902D01*
X202713890Y-62464636D01*
X202818561Y-62466513D01*
X202915970Y-62467443D01*
X203001091Y-62467335D01*
X203068899Y-62466099D01*
X203114370Y-62463643D01*
X203132477Y-62459877D01*
X203128514Y-62449567D01*
X203103674Y-62422974D01*
X203061125Y-62385869D01*
X203005881Y-62342885D01*
X202967507Y-62313824D01*
X202908611Y-62266774D01*
X202860636Y-62225514D01*
X202831330Y-62196542D01*
X202793224Y-62151254D01*
X202748803Y-62189464D01*
X202713398Y-62215117D01*
X202675945Y-62225132D01*
X202633085Y-62213980D01*
X202575636Y-62181224D01*
X202527399Y-62146183D01*
X202430555Y-62049162D01*
X202397849Y-62001902D01*
X202847827Y-62001902D01*
X202848606Y-62022057D01*
X202867670Y-62032058D01*
X202911936Y-62039181D01*
X202937084Y-62044825D01*
X202996893Y-62065821D01*
X203071010Y-62098178D01*
X203151031Y-62138408D01*
X203213916Y-62171802D01*
X203269835Y-62200811D01*
X203309205Y-62220450D01*
X203326054Y-62227673D01*
X203329917Y-62217424D01*
X203334589Y-62180625D01*
X203338997Y-62123242D01*
X203342923Y-62051784D01*
X203346148Y-61972761D01*
X203348452Y-61892682D01*
X203349617Y-61818059D01*
X203349424Y-61755399D01*
X203347652Y-61711214D01*
X203344084Y-61692012D01*
X203328056Y-61683644D01*
X203284222Y-61670167D01*
X203221445Y-61655337D01*
X203147235Y-61640733D01*
X203069097Y-61627933D01*
X202994539Y-61618516D01*
X202889630Y-61607768D01*
X202888863Y-61619823D01*
X202879451Y-61767784D01*
X202876615Y-61807099D01*
X202869693Y-61879733D01*
X202861840Y-61940247D01*
X202854265Y-61978510D01*
X202847827Y-62001902D01*
X202397849Y-62001902D01*
X202344094Y-61924225D01*
X202269847Y-61773812D01*
X202252679Y-61733943D01*
X202233689Y-61693390D01*
X202222140Y-61673171D01*
X202217219Y-61672419D01*
X202197421Y-61687745D01*
X202171139Y-61720840D01*
X202168389Y-61724881D01*
X202154702Y-61746571D01*
X202144876Y-61768534D01*
X202138331Y-61796126D01*
X202134488Y-61834704D01*
X202132766Y-61889628D01*
X202132587Y-61966252D01*
X201496397Y-61966252D01*
X201522952Y-61879085D01*
X201567718Y-61804703D01*
X201629471Y-61728101D01*
X201701938Y-61655241D01*
X201744558Y-61619823D01*
X202203701Y-61619823D01*
X202211806Y-61627928D01*
X202219910Y-61619823D01*
X202211806Y-61611719D01*
X202203701Y-61619823D01*
X201744558Y-61619823D01*
X201779459Y-61590820D01*
X201856371Y-61539535D01*
X201927012Y-61506085D01*
X201985720Y-61495165D01*
X202035912Y-61503380D01*
X202110733Y-61532799D01*
X202177879Y-61577202D01*
X202195444Y-61591431D01*
X202203708Y-61590907D01*
X202197258Y-61563091D01*
X202193443Y-61543500D01*
X202187321Y-61493581D01*
X202181319Y-61426298D01*
X202176315Y-61350560D01*
X202166904Y-61178553D01*
X202011052Y-61150356D01*
X202003168Y-61148930D01*
X201706209Y-61097225D01*
X201439818Y-61054894D01*
X201204085Y-61021951D01*
X200999099Y-60998405D01*
X200824950Y-60984270D01*
X200681728Y-60979555D01*
X200626281Y-60980372D01*
X200530361Y-60987887D01*
X200460749Y-61004140D01*
X200413839Y-61030200D01*
X200386025Y-61067134D01*
X200378232Y-61089438D01*
X200377400Y-61129244D01*
X200395146Y-61171092D01*
X200433619Y-61217340D01*
X200494967Y-61270345D01*
X200581339Y-61332465D01*
X200694882Y-61406058D01*
X200733493Y-61431760D01*
X200778571Y-61470253D01*
X200793490Y-61499662D01*
X200791136Y-61516769D01*
X200777923Y-61535406D01*
X200749997Y-61547513D01*
X200703888Y-61553446D01*
X200636123Y-61553560D01*
X200543232Y-61548213D01*
X200421744Y-61537758D01*
X200314940Y-61528146D01*
X200224968Y-61521700D01*
X200146677Y-61518964D01*
X200072803Y-61520278D01*
X199996083Y-61525986D01*
X199909252Y-61536430D01*
X199805046Y-61551951D01*
X199676202Y-61572893D01*
X199666946Y-61574421D01*
X199548778Y-61592598D01*
X199456662Y-61602971D01*
X199385384Y-61604907D01*
X199329729Y-61597773D01*
X199284485Y-61580936D01*
X199244437Y-61553763D01*
X199204372Y-61515622D01*
X199195103Y-61505541D01*
X199145188Y-61430645D01*
X199116756Y-61340442D01*
X199107782Y-61228919D01*
X199109627Y-61186132D01*
X199119047Y-61134634D01*
X199138969Y-61085669D01*
X199172170Y-61035865D01*
X199221426Y-60981851D01*
X199289514Y-60920255D01*
X199379211Y-60847706D01*
X199493293Y-60760832D01*
X199531350Y-60732626D01*
X199694424Y-60618558D01*
X199838927Y-60529360D01*
X199964521Y-60465210D01*
X200070869Y-60426284D01*
X200157634Y-60412758D01*
X200162603Y-60412921D01*
X200207258Y-60422556D01*
X200268508Y-60444567D01*
X200336539Y-60475513D01*
X200352294Y-60483322D01*
X200419730Y-60514620D01*
X200482119Y-60540632D01*
X200527682Y-60556374D01*
X200568712Y-60566115D01*
X200627619Y-60577353D01*
X200687798Y-60586655D01*
X200740984Y-60592918D01*
X200778911Y-60595035D01*
X200793315Y-60591901D01*
X200791584Y-60582962D01*
X200782713Y-60549646D01*
X200768870Y-60502421D01*
X200759759Y-60469747D01*
X200742692Y-60397374D01*
X200729274Y-60327248D01*
X200727533Y-60315931D01*
X200722444Y-60234747D01*
X200736561Y-60174438D01*
X200772785Y-60128443D01*
X200834014Y-60090200D01*
X200867769Y-60073720D01*
X201001417Y-60009252D01*
X201126734Y-59950006D01*
X201240278Y-59897533D01*
X201338609Y-59853386D01*
X201418285Y-59819115D01*
X201475864Y-59796272D01*
X201507905Y-59786408D01*
X201553919Y-59788829D01*
X201622770Y-59817648D01*
X201701465Y-59874330D01*
X201788289Y-59957827D01*
X201825778Y-60001129D01*
X201858714Y-60055235D01*
X201863726Y-60100166D01*
X201840850Y-60140235D01*
X201790121Y-60179758D01*
X201784184Y-60183544D01*
X201747292Y-60211072D01*
X201720386Y-60242454D01*
X201701513Y-60283402D01*
X201688720Y-60339630D01*
X201680055Y-60416850D01*
X201673565Y-60520775D01*
X201670359Y-60585931D01*
X201668530Y-60642924D01*
X201669977Y-60678024D01*
X201675607Y-60697062D01*
X201686326Y-60705865D01*
X201703042Y-60710263D01*
X201703834Y-60710426D01*
X201735659Y-60716375D01*
X201791446Y-60726294D01*
X201863557Y-60738839D01*
X201944352Y-60752669D01*
X201949214Y-60753496D01*
X202029072Y-60767264D01*
X202099218Y-60779700D01*
X202152231Y-60789468D01*
X202180689Y-60795231D01*
X202196772Y-60796116D01*
X202215628Y-60784632D01*
X202237087Y-60753971D01*
X202265945Y-60698703D01*
X202294962Y-60645721D01*
X202345534Y-60574296D01*
X202398327Y-60520951D01*
X202448941Y-60489829D01*
X202492975Y-60485068D01*
X202539132Y-60503915D01*
X202577942Y-60537458D01*
X202592725Y-60576235D01*
X202590428Y-60592869D01*
X202578678Y-60635981D01*
X202560306Y-60687788D01*
X202542379Y-60747338D01*
X202529795Y-60835025D01*
X202530482Y-60920602D01*
X202545111Y-60990657D01*
X202561217Y-61026851D01*
X202588004Y-61080250D01*
X202619319Y-61138441D01*
X202676303Y-61240594D01*
X202760136Y-61159237D01*
X202762569Y-61156879D01*
X202862199Y-61067623D01*
X202953677Y-60999805D01*
X203032730Y-60956599D01*
X203063455Y-60946667D01*
X203102707Y-60945421D01*
X203146599Y-60959629D01*
X203201434Y-60991566D01*
X203273516Y-61043507D01*
X203362667Y-61111012D01*
X203367278Y-60958480D01*
X203368503Y-60891768D01*
X203366057Y-60833784D01*
X203357615Y-60781788D01*
X203341142Y-60723759D01*
X203314598Y-60647678D01*
X203298123Y-60600742D01*
X203277076Y-60535757D01*
X203262656Y-60484712D01*
X203257307Y-60455789D01*
X203257703Y-60450470D01*
X203276202Y-60411371D01*
X203318798Y-60363154D01*
X203380586Y-60308936D01*
X203456657Y-60251833D01*
X203542104Y-60194963D01*
X203632022Y-60141442D01*
X203721503Y-60094390D01*
X203805640Y-60056921D01*
X203879526Y-60032154D01*
X203938255Y-60023206D01*
X203991001Y-60031945D01*
X204062828Y-60062033D01*
X204134565Y-60107470D01*
X204196408Y-60161870D01*
X204238552Y-60218843D01*
X204251801Y-60247622D01*
X204262162Y-60301443D01*
X204244142Y-60345607D01*
X204196014Y-60386939D01*
X204172995Y-60402986D01*
X204141107Y-60430391D01*
X204115829Y-60462465D01*
X204096154Y-60503170D01*
X204081072Y-60556471D01*
X204069578Y-60626331D01*
X204060662Y-60716716D01*
X204053318Y-60831588D01*
X204046537Y-60974911D01*
X204045136Y-61008407D01*
X204040747Y-61132483D01*
X204038488Y-61234721D01*
X204038373Y-61312494D01*
X204040412Y-61363175D01*
X204044619Y-61384138D01*
X204049571Y-61387570D01*
X204082417Y-61401550D01*
X204138054Y-61420378D01*
X204210011Y-61442148D01*
X204291815Y-61464958D01*
X204376995Y-61486903D01*
X204459079Y-61506079D01*
X204474170Y-61509096D01*
X204542343Y-61519233D01*
X204630308Y-61528711D01*
X204728344Y-61536583D01*
X204826735Y-61541903D01*
X204874509Y-61543808D01*
X204956189Y-61547588D01*
X205013194Y-61551683D01*
X205050803Y-61557014D01*
X205074293Y-61564505D01*
X205088942Y-61575078D01*
X205100028Y-61589653D01*
X205112486Y-61615660D01*
X205113751Y-61672386D01*
X205103320Y-61702795D01*
X205069519Y-61769592D01*
X205038988Y-61818059D01*
X205020559Y-61847314D01*
G37*
D10*
X145392600Y-88595200D03*
D11*
X143357600Y-88595200D03*
X139807600Y-88595200D03*
D12*
X137772600Y-88595200D03*
D13*
X212215000Y-133550000D03*
X214425000Y-133550000D03*
D14*
X213325000Y-131400000D03*
X213325000Y-128400000D03*
D13*
X212215000Y-126250000D03*
X214425000Y-126250000D03*
D15*
X211565000Y-127650000D03*
X211565000Y-130650000D03*
X211565000Y-132150000D03*
D16*
X193752252Y-92506800D03*
D17*
X79451200Y-105765600D03*
D18*
X80131200Y-110465600D03*
X80721200Y-108305600D03*
X81931200Y-111515600D03*
X81991200Y-110845600D03*
D19*
X84531200Y-105765600D03*
D18*
X87071200Y-110845600D03*
X87131200Y-111515600D03*
X88341200Y-108305600D03*
X88931200Y-110465600D03*
D17*
X89611200Y-105765600D03*
D20*
X91387100Y-109913100D03*
D21*
X77702800Y-110655600D03*
D22*
X186772024Y-126193076D03*
X187385743Y-124934765D03*
X182442376Y-122523724D03*
X181828657Y-123782035D03*
D23*
X144228000Y-75223600D03*
X144228000Y-73823600D03*
X138728000Y-73823600D03*
X138728000Y-75223600D03*
X119779600Y-95159600D03*
X119779600Y-96559600D03*
X125279600Y-96559600D03*
X125279600Y-95159600D03*
D10*
X164185600Y-72034400D03*
D11*
X162150600Y-72034400D03*
X158600600Y-72034400D03*
D12*
X156565600Y-72034400D03*
D17*
X79451200Y-86766400D03*
D18*
X80131200Y-91466400D03*
X80721200Y-89306400D03*
X81931200Y-92516400D03*
X81991200Y-91846400D03*
D19*
X84531200Y-86766400D03*
D18*
X87071200Y-91846400D03*
X87131200Y-92516400D03*
X88341200Y-89306400D03*
X88931200Y-91466400D03*
D17*
X89611200Y-86766400D03*
D20*
X91387100Y-90913900D03*
D21*
X77702800Y-91656400D03*
D10*
X183184800Y-93370400D03*
D11*
X181149800Y-93370400D03*
X177599800Y-93370400D03*
D12*
X175564800Y-93370400D03*
D23*
X81730400Y-61936400D03*
X81730400Y-63336400D03*
X87230400Y-63336400D03*
X87230400Y-61936400D03*
D24*
X181834005Y-138525394D03*
D25*
X180004959Y-137633309D03*
X176814241Y-136077091D03*
D12*
X174985195Y-135185006D03*
D26*
X189422000Y-83268000D03*
X188022000Y-83268000D03*
X188022000Y-77768000D03*
X189422000Y-77768000D03*
D23*
X176777200Y-59548800D03*
X176777200Y-60948800D03*
X182277200Y-60948800D03*
X182277200Y-59548800D03*
D27*
X190328543Y-118901365D03*
X189714824Y-120159676D03*
X184771457Y-117748635D03*
X185385176Y-116490324D03*
D23*
X119779600Y-57212000D03*
X119779600Y-58612000D03*
X125279600Y-58612000D03*
X125279600Y-57212000D03*
D17*
X98450400Y-67818000D03*
D18*
X99130400Y-72518000D03*
X99720400Y-70358000D03*
X100930400Y-73568000D03*
X100990400Y-72898000D03*
D19*
X103530400Y-67818000D03*
D18*
X106070400Y-72898000D03*
X106130400Y-73568000D03*
X107340400Y-70358000D03*
X107930400Y-72518000D03*
D17*
X108610400Y-67818000D03*
D20*
X110386300Y-71965500D03*
D21*
X96702000Y-72708000D03*
D10*
X107238800Y-114604800D03*
D11*
X105203800Y-114604800D03*
X101653800Y-114604800D03*
D12*
X99618800Y-114604800D03*
D10*
X145237200Y-107645200D03*
D11*
X143202200Y-107645200D03*
X139652200Y-107645200D03*
D12*
X137617200Y-107645200D03*
D17*
X174447200Y-65379600D03*
D18*
X175127200Y-70079600D03*
X175717200Y-67919600D03*
X176927200Y-71129600D03*
X176987200Y-70459600D03*
D19*
X179527200Y-65379600D03*
D18*
X182067200Y-70459600D03*
X182127200Y-71129600D03*
X183337200Y-67919600D03*
X183927200Y-70079600D03*
D17*
X184607200Y-65379600D03*
D20*
X186383100Y-69527100D03*
D21*
X172698800Y-70269600D03*
D28*
X164018337Y-131401333D03*
D29*
X162035494Y-130943557D03*
X158576480Y-130144981D03*
D12*
X156593637Y-129687205D03*
D17*
X79400400Y-67767200D03*
D18*
X80080400Y-72467200D03*
X80670400Y-70307200D03*
X81880400Y-73517200D03*
X81940400Y-72847200D03*
D19*
X84480400Y-67767200D03*
D18*
X87020400Y-72847200D03*
X87080400Y-73517200D03*
X88290400Y-70307200D03*
X88880400Y-72467200D03*
D17*
X89560400Y-67767200D03*
D20*
X91336300Y-71914700D03*
D21*
X77652000Y-72657200D03*
D10*
X164134800Y-109982000D03*
D11*
X162099800Y-109982000D03*
X158549800Y-109982000D03*
D12*
X156514800Y-109982000D03*
D17*
X155397200Y-100990400D03*
D18*
X156077200Y-105690400D03*
X156667200Y-103530400D03*
X157877200Y-106740400D03*
X157937200Y-106070400D03*
D19*
X160477200Y-100990400D03*
D18*
X163017200Y-106070400D03*
X163077200Y-106740400D03*
X164287200Y-103530400D03*
X164877200Y-105690400D03*
D17*
X165557200Y-100990400D03*
D20*
X167333100Y-105137900D03*
D21*
X153648800Y-105880400D03*
D17*
X136448800Y-60604400D03*
D18*
X137128800Y-65304400D03*
X137718800Y-63144400D03*
X138928800Y-66354400D03*
X138988800Y-65684400D03*
D19*
X141528800Y-60604400D03*
D18*
X144068800Y-65684400D03*
X144128800Y-66354400D03*
X145338800Y-63144400D03*
X145928800Y-65304400D03*
D17*
X146608800Y-60604400D03*
D20*
X148384700Y-64751900D03*
D21*
X134700400Y-65494400D03*
D10*
X107185000Y-95758000D03*
D11*
X105150000Y-95758000D03*
X101600000Y-95758000D03*
D12*
X99565000Y-95758000D03*
D10*
X205130400Y-117246400D03*
D11*
X203095400Y-117246400D03*
X199545400Y-117246400D03*
D12*
X197510400Y-117246400D03*
D30*
X209735000Y-117150000D03*
X209735000Y-124160000D03*
D31*
X212225000Y-118400000D03*
X212225000Y-122900000D03*
D17*
X136448800Y-119532400D03*
D18*
X137128800Y-124232400D03*
X137718800Y-122072400D03*
X138928800Y-125282400D03*
X138988800Y-124612400D03*
D19*
X141528800Y-119532400D03*
D18*
X144068800Y-124612400D03*
X144128800Y-125282400D03*
X145338800Y-122072400D03*
X145928800Y-124232400D03*
D17*
X146608800Y-119532400D03*
D20*
X148384700Y-123679900D03*
D21*
X134700400Y-124422400D03*
D23*
X100780400Y-61987200D03*
X100780400Y-63387200D03*
X106280400Y-63387200D03*
X106280400Y-61987200D03*
D16*
X210598652Y-92506800D03*
D10*
X183232600Y-112369600D03*
D11*
X181197600Y-112369600D03*
X177647600Y-112369600D03*
D12*
X175612600Y-112369600D03*
D16*
X94040000Y-96774000D03*
D10*
X88191800Y-95758000D03*
D11*
X86156800Y-95758000D03*
X82606800Y-95758000D03*
D12*
X80571800Y-95758000D03*
D17*
X155397200Y-81991200D03*
D18*
X156077200Y-86691200D03*
X156667200Y-84531200D03*
X157877200Y-87741200D03*
X157937200Y-87071200D03*
D19*
X160477200Y-81991200D03*
D18*
X163017200Y-87071200D03*
X163077200Y-87741200D03*
X164287200Y-84531200D03*
X164877200Y-86691200D03*
D17*
X165557200Y-81991200D03*
D20*
X167333100Y-86138700D03*
D21*
X153648800Y-86881200D03*
D32*
X166098052Y-118191474D03*
X166412983Y-116827356D03*
X161053948Y-115590126D03*
X160739017Y-116954244D03*
D23*
X106236400Y-82346800D03*
X106236400Y-80946800D03*
X100736400Y-80946800D03*
X100736400Y-82346800D03*
X148250000Y-58075000D03*
X148250000Y-56675000D03*
X153750000Y-56675000D03*
X153750000Y-58075000D03*
D10*
X145186400Y-69596000D03*
D11*
X143151400Y-69596000D03*
X139601400Y-69596000D03*
D12*
X137566400Y-69596000D03*
D10*
X145237200Y-128371600D03*
D11*
X143202200Y-128371600D03*
X139652200Y-128371600D03*
D12*
X137617200Y-128371600D03*
D23*
X125279600Y-77560400D03*
X125279600Y-76160400D03*
X119779600Y-76160400D03*
X119779600Y-77560400D03*
D16*
X170200000Y-94575000D03*
D23*
X138778800Y-92822800D03*
X138778800Y-94222800D03*
X144278800Y-94222800D03*
X144278800Y-92822800D03*
X138778800Y-54773600D03*
X138778800Y-56173600D03*
X144278800Y-56173600D03*
X144278800Y-54773600D03*
D16*
X94030000Y-77724000D03*
D10*
X164335000Y-91135200D03*
D11*
X162300000Y-91135200D03*
X158750000Y-91135200D03*
D12*
X156715000Y-91135200D03*
D17*
X98450400Y-105765600D03*
D18*
X99130400Y-110465600D03*
X99720400Y-108305600D03*
X100930400Y-111515600D03*
X100990400Y-110845600D03*
D19*
X103530400Y-105765600D03*
D18*
X106070400Y-110845600D03*
X106130400Y-111515600D03*
X107340400Y-108305600D03*
X107930400Y-110465600D03*
D17*
X108610400Y-105765600D03*
D20*
X110386300Y-109913100D03*
D21*
X96702000Y-110655600D03*
D17*
X174396400Y-84378800D03*
D18*
X175076400Y-89078800D03*
X175666400Y-86918800D03*
X176876400Y-90128800D03*
X176936400Y-89458800D03*
D19*
X179476400Y-84378800D03*
D18*
X182016400Y-89458800D03*
X182076400Y-90128800D03*
X183286400Y-86918800D03*
X183876400Y-89078800D03*
D17*
X184556400Y-84378800D03*
D20*
X186332300Y-88526300D03*
D21*
X172648000Y-89268800D03*
D10*
X126136400Y-90881200D03*
D11*
X124101400Y-90881200D03*
X120551400Y-90881200D03*
D12*
X118516400Y-90881200D03*
D17*
X196342000Y-108254800D03*
D18*
X197022000Y-112954800D03*
X197612000Y-110794800D03*
X198822000Y-114004800D03*
X198882000Y-113334800D03*
D19*
X201422000Y-108254800D03*
D18*
X203962000Y-113334800D03*
X204022000Y-114004800D03*
X205232000Y-110794800D03*
X205822000Y-112954800D03*
D17*
X206502000Y-108254800D03*
D20*
X208277900Y-112402300D03*
D21*
X194593600Y-113144800D03*
D23*
X163227200Y-77560400D03*
X163227200Y-76160400D03*
X157727200Y-76160400D03*
X157727200Y-77560400D03*
X198672000Y-102424000D03*
X198672000Y-103824000D03*
X204172000Y-103824000D03*
X204172000Y-102424000D03*
X157778000Y-57212000D03*
X157778000Y-58612000D03*
X163278000Y-58612000D03*
X163278000Y-57212000D03*
D17*
X174447200Y-103378000D03*
D18*
X175127200Y-108078000D03*
X175717200Y-105918000D03*
X176927200Y-109128000D03*
X176987200Y-108458000D03*
D19*
X179527200Y-103378000D03*
D18*
X182067200Y-108458000D03*
X182127200Y-109128000D03*
X183337200Y-105918000D03*
X183927200Y-108078000D03*
D17*
X184607200Y-103378000D03*
D20*
X186383100Y-107525500D03*
D21*
X172698800Y-108268000D03*
D17*
X136448800Y-98653600D03*
D18*
X137128800Y-103353600D03*
X137718800Y-101193600D03*
X138928800Y-104403600D03*
X138988800Y-103733600D03*
D19*
X141528800Y-98653600D03*
D18*
X144068800Y-103733600D03*
X144128800Y-104403600D03*
X145338800Y-101193600D03*
X145928800Y-103353600D03*
D17*
X146608800Y-98653600D03*
D20*
X148384700Y-102801100D03*
D21*
X134700400Y-103543600D03*
D23*
X91250000Y-65475000D03*
X91250000Y-64075000D03*
X96750000Y-64075000D03*
X96750000Y-65475000D03*
X155550000Y-113825000D03*
X155550000Y-115225000D03*
X150050000Y-115225000D03*
X150050000Y-113825000D03*
X176777200Y-97547200D03*
X176777200Y-98947200D03*
X182277200Y-98947200D03*
X182277200Y-97547200D03*
D17*
X196138800Y-137058400D03*
D18*
X193709453Y-141138924D03*
X195527301Y-139831588D03*
X194447529Y-143087704D03*
X194915803Y-142604776D03*
D19*
X200086701Y-140255348D03*
D18*
X198863704Y-145801723D03*
X198488688Y-146360170D03*
X201449153Y-144627009D03*
X200548337Y-146676944D03*
D17*
X204034602Y-143452296D03*
D33*
X202804630Y-147793119D03*
D34*
X191702661Y-139758340D03*
D35*
X204998227Y-138520233D03*
X205879276Y-137432229D03*
X201604973Y-133970967D03*
X200723924Y-135058971D03*
D36*
X197484568Y-149524953D03*
D37*
X195903076Y-148244286D03*
X193144208Y-146010198D03*
D12*
X191562716Y-144729531D03*
D23*
X144278800Y-115101600D03*
X144278800Y-113701600D03*
X138778800Y-113701600D03*
X138778800Y-115101600D03*
X87281200Y-82335600D03*
X87281200Y-80935600D03*
X81781200Y-80935600D03*
X81781200Y-82335600D03*
D16*
X192650000Y-132370000D03*
D23*
X157727200Y-95159600D03*
X157727200Y-96559600D03*
X163227200Y-96559600D03*
X163227200Y-95159600D03*
D16*
X170230800Y-75438000D03*
D12*
X198374000Y-92506800D03*
X200914000Y-92506800D03*
X203454000Y-92506800D03*
X205994000Y-92506800D03*
D10*
X126238000Y-72034400D03*
D11*
X124203000Y-72034400D03*
X120653000Y-72034400D03*
D12*
X118618000Y-72034400D03*
D10*
X88239600Y-114604800D03*
D11*
X86204600Y-114604800D03*
X82654600Y-114604800D03*
D12*
X80619600Y-114604800D03*
D23*
X100780400Y-99934800D03*
X100780400Y-101334800D03*
X106280400Y-101334800D03*
X106280400Y-99934800D03*
X81781200Y-99934800D03*
X81781200Y-101334800D03*
X87281200Y-101334800D03*
X87281200Y-99934800D03*
D17*
X177800000Y-126746000D03*
D18*
X176350836Y-131268424D03*
X177828006Y-129585668D03*
X177508375Y-133001226D03*
X177856012Y-132425336D03*
D19*
X182365874Y-128972925D03*
D18*
X182421885Y-134652261D03*
X182182104Y-135280756D03*
X184676817Y-132926056D03*
X184260223Y-135126090D03*
D17*
X186931748Y-131199850D03*
D38*
X186709772Y-135706102D03*
D39*
X174084914Y-130374654D03*
D10*
X126238000Y-109931200D03*
D11*
X124203000Y-109931200D03*
X120653000Y-109931200D03*
D12*
X118618000Y-109931200D03*
D17*
X136398000Y-79654400D03*
D18*
X137078000Y-84354400D03*
X137668000Y-82194400D03*
X138878000Y-85404400D03*
X138938000Y-84734400D03*
D19*
X141478000Y-79654400D03*
D18*
X144018000Y-84734400D03*
X144078000Y-85404400D03*
X145288000Y-82194400D03*
X145878000Y-84354400D03*
D17*
X146558000Y-79654400D03*
D20*
X148333900Y-83801900D03*
D21*
X134649600Y-84544400D03*
D23*
X91300000Y-103475000D03*
X91300000Y-102075000D03*
X96800000Y-102075000D03*
X96800000Y-103475000D03*
X182226400Y-79948000D03*
X182226400Y-78548000D03*
X176726400Y-78548000D03*
X176726400Y-79948000D03*
D10*
X183184800Y-74425000D03*
D11*
X181149800Y-74425000D03*
X177599800Y-74425000D03*
D12*
X175564800Y-74425000D03*
D17*
X155448000Y-63042800D03*
D18*
X156128000Y-67742800D03*
X156718000Y-65582800D03*
X157928000Y-68792800D03*
X157988000Y-68122800D03*
D19*
X160528000Y-63042800D03*
D18*
X163068000Y-68122800D03*
X163128000Y-68792800D03*
X164338000Y-65582800D03*
X164928000Y-67742800D03*
D17*
X165608000Y-63042800D03*
D20*
X167383900Y-67190300D03*
D21*
X153699600Y-67932800D03*
D10*
X88235000Y-76800000D03*
D11*
X86200000Y-76800000D03*
X82650000Y-76800000D03*
D12*
X80615000Y-76800000D03*
D40*
X203600000Y-124950000D03*
X203600000Y-122950000D03*
D41*
X197850000Y-120600000D03*
X197850000Y-127300000D03*
D17*
X117449600Y-63042800D03*
D18*
X118129600Y-67742800D03*
X118719600Y-65582800D03*
X119929600Y-68792800D03*
X119989600Y-68122800D03*
D19*
X122529600Y-63042800D03*
D18*
X125069600Y-68122800D03*
X125129600Y-68792800D03*
X126339600Y-65582800D03*
X126929600Y-67742800D03*
D17*
X127609600Y-63042800D03*
D20*
X129385500Y-67190300D03*
D21*
X115701200Y-67932800D03*
D17*
X117449600Y-81991200D03*
D18*
X118129600Y-86691200D03*
X118719600Y-84531200D03*
X119929600Y-87741200D03*
X119989600Y-87071200D03*
D19*
X122529600Y-81991200D03*
D18*
X125069600Y-87071200D03*
X125129600Y-87741200D03*
X126339600Y-84531200D03*
X126929600Y-86691200D03*
D17*
X127609600Y-81991200D03*
D20*
X129385500Y-86138700D03*
D21*
X115701200Y-86881200D03*
D17*
X117449600Y-100990400D03*
D18*
X118129600Y-105690400D03*
X118719600Y-103530400D03*
X119929600Y-106740400D03*
X119989600Y-106070400D03*
D19*
X122529600Y-100990400D03*
D18*
X125069600Y-106070400D03*
X125129600Y-106740400D03*
X126339600Y-103530400D03*
X126929600Y-105690400D03*
D17*
X127609600Y-100990400D03*
D20*
X129385500Y-105137900D03*
D21*
X115701200Y-105880400D03*
D10*
X107238800Y-76850000D03*
D11*
X105203800Y-76850000D03*
X101653800Y-76850000D03*
D12*
X99618800Y-76850000D03*
D17*
X98399600Y-86766400D03*
D18*
X99079600Y-91466400D03*
X99669600Y-89306400D03*
X100879600Y-92516400D03*
X100939600Y-91846400D03*
D19*
X103479600Y-86766400D03*
D18*
X106019600Y-91846400D03*
X106079600Y-92516400D03*
X107289600Y-89306400D03*
X107879600Y-91466400D03*
D17*
X108559600Y-86766400D03*
D20*
X110335500Y-90913900D03*
D21*
X96651200Y-91656400D03*
D17*
X157480000Y-120751600D03*
D18*
X157085302Y-125484106D03*
X158146074Y-123512187D03*
X158602969Y-126912106D03*
X158812149Y-126272775D03*
D19*
X162429800Y-121894351D03*
D18*
X163761949Y-127415527D03*
X163669694Y-128081852D03*
X165570774Y-125226314D03*
X165659758Y-127463675D03*
D17*
X167379600Y-123037102D03*
D42*
X168176999Y-127477793D03*
D43*
X154676401Y-125122965D03*
D44*
X210448652Y-60833000D03*
X193902252Y-59563000D03*
X210448652Y-63373000D03*
X193902252Y-62103000D03*
X210448652Y-65913000D03*
X193902252Y-64643000D03*
X210448652Y-68453000D03*
X193902252Y-67183000D03*
X210448652Y-70993000D03*
X193902252Y-69723000D03*
X210448652Y-73533000D03*
X193902252Y-72263000D03*
X210448652Y-76073000D03*
X193902252Y-74803000D03*
X210448652Y-78613000D03*
X193902252Y-77343000D03*
X210448652Y-81153000D03*
X193902252Y-79883000D03*
X210448652Y-83693000D03*
X193902252Y-82423000D03*
X210448652Y-86233000D03*
X193902252Y-84963000D03*
X210448652Y-88773000D03*
X193902252Y-87503000D03*
X209122252Y-87503000D03*
X195208652Y-88773000D03*
X209122252Y-84963000D03*
X195208652Y-86233000D03*
X209122252Y-82423000D03*
X195208652Y-83693000D03*
X209122252Y-79883000D03*
X195208652Y-81153000D03*
X209122252Y-77343000D03*
X195208652Y-78613000D03*
X209122252Y-74803000D03*
X195208652Y-76073000D03*
X209122252Y-72263000D03*
X195208652Y-73533000D03*
X209122252Y-69723000D03*
X195208652Y-70993000D03*
X209122252Y-67183000D03*
X195208652Y-68453000D03*
X209122252Y-64643000D03*
X195208652Y-65913000D03*
X209122252Y-62103000D03*
X195208652Y-63373000D03*
X209122252Y-59563000D03*
X195208652Y-60833000D03*
D45*
X203198800Y-89589240D03*
X203198800Y-90590000D03*
X201218800Y-89589620D03*
X201218800Y-90590380D03*
X205180000Y-89585620D03*
X205180000Y-90586380D03*
X199236400Y-89589240D03*
X199236400Y-90590000D03*
M02*
