M48
; DRILL file {KiCad 7.0.8} date 2023 October 25, Wednesday 23:56:00
; FORMAT={-:-/ absolute / metric / decimal}
; #@! TF.CreationDate,2023-10-25T23:56:00+08:00
; #@! TF.GenerationSoftware,Kicad,Pcbnew,7.0.8
; #@! TF.FileFunction,Plated,1,2,PTH
FMAT,2
METRIC
; #@! TA.AperFunction,Plated,PTH,ViaDrill
T1C0.400
; #@! TA.AperFunction,Plated,PTH,ComponentDrill
T2C0.813
; #@! TA.AperFunction,Plated,PTH,ComponentDrill
T3C0.990
; #@! TA.AperFunction,Plated,PTH,ComponentDrill
T4C1.300
; #@! TA.AperFunction,Plated,PTH,ComponentDrill
T5C2.300
%
G90
G05
T1
X79.625Y-82.75
X80.125Y-80.025
X80.306Y-62.61
X80.364Y-81.641
X80.364Y-100.63
X81.737Y-60.3
X81.775Y-98.3
X87.225Y-64.75
X88.65Y-62.624
X88.699Y-81.629
X88.702Y-100.618
X88.732Y-99.619
X88.977Y-82.627
X89.26Y-61.66
X89.803Y-102.847
X89.81Y-64.868
X90.499Y-99.412
X90.7Y-62.725
X91.25Y-66.575
X91.3Y-104.575
X91.336Y-87.45
X91.38Y-68.525
X91.387Y-106.45
X96.75Y-62.61
X96.79Y-100.76
X96.79Y-105.05
X98.48Y-65.47
X98.65Y-102.775
X99.115Y-112.667
X99.31Y-99.95
X99.311Y-81.678
X99.363Y-62.682
X100.736Y-83.446
X100.787Y-60.35
X100.8Y-98.275
X106.275Y-64.8
X106.275Y-102.434
X106.3Y-98.835
X107.654Y-81.64
X107.686Y-82.639
X107.697Y-62.692
X107.716Y-100.706
X108.15Y-61.475
X110.335Y-86.835
X110.386Y-106.425
X110.4Y-63.972
X116.628Y-97.599
X117.144Y-59.138
X117.275Y-76.15
X118.361Y-76.87
X118.362Y-57.918
X118.363Y-95.865
X119.775Y-78.66
X119.786Y-55.575
X119.8Y-93.525
X126.696Y-76.858
X126.697Y-57.907
X126.697Y-95.867
X126.729Y-77.857
X126.837Y-94.738
X127.475Y-59.025
X127.625Y-56.8
X129.386Y-82.675
X129.386Y-101.675
X129.4Y-63.7
X134.943Y-57.907
X136.1Y-73.85
X136.137Y-94.763
X136.6Y-115.5
X136.625Y-113.3
X137.307Y-74.541
X137.358Y-114.418
X137.362Y-55.479
X137.363Y-93.526
X138.725Y-76.323
X138.775Y-91.175
X138.786Y-53.137
X144.6Y-58.78
X144.622Y-57.35
X145.645Y-74.519
X145.678Y-75.517
X145.695Y-114.404
X145.696Y-93.53
X145.834Y-115.533
X146.115Y-54.902
X146.374Y-92.426
X146.792Y-57.741
X147.53Y-55.474
X148.25Y-59.274
X148.306Y-80.25
X148.334Y-99.3
X148.35Y-61.275
X148.385Y-120.2
X148.55Y-113.049
X148.633Y-114.53
X150.05Y-116.325
X153.75Y-55.56
X153.76Y-59.35
X154.55Y-95.85
X155.25Y-55.779
X155.55Y-112.725
X156.25Y-76.825
X156.309Y-95.85
X156.357Y-57.895
X156.557Y-127.571
X156.972Y-114.504
X157.725Y-93.525
X157.73Y-78.73
X157.785Y-55.575
X158.6Y-116.95
X158.968Y-114.911
X159.517Y-115.944
X163.225Y-97.85
X164.643Y-95.858
X164.649Y-76.841
X164.677Y-77.875
X164.696Y-57.903
X165.325Y-94.725
X166.404Y-58.621
X167.333Y-101.65
X167.375Y-63.675
X167.384Y-82.65
X167.652Y-117.799
X167.698Y-118.797
X168.625Y-124.075
X173.618Y-98.236
X173.657Y-60.223
X174.525Y-59.4
X175.309Y-79.254
X175.356Y-60.232
X175.358Y-98.235
X175.361Y-133.177
X176.725Y-81.047
X176.775Y-95.925
X179.8Y-123.782
X180.865Y-122.523
X181.1Y-121.2
X182.275Y-58.175
X183.644Y-79.254
X183.676Y-80.253
X183.699Y-98.267
X183.7Y-60.226
X183.791Y-116.515
X184.05Y-61.35
X184.4Y-97.15
X184.775Y-119.375
X185.15Y-77.768
X185.375Y-114.901
X186.383Y-73.325
X186.383Y-85.075
X186.383Y-104.05
X187.4Y-94.375
X187.425Y-92.325
X187.739Y-132.464
X187.825Y-112.15
X187.939Y-127.108
X188.349Y-126.196
X188.689Y-76.342
X188.713Y-84.686
X188.8Y-121.075
X189.737Y-84.718
X190.522Y-77.775
X190.625Y-117.362
X191.297Y-120.147
X192.1Y-125.625
X192.318Y-142.794
X192.375Y-117.7
X194.75Y-95.4
X195.55Y-103.128
X196.405Y-102.444
X197.25Y-103.143
X198.625Y-101.0
X199.025Y-148.525
X199.576Y-94.349
X199.775Y-136.175
X200.063Y-133.625
X201.125Y-123.975
X202.2Y-91.725
X202.291Y-88.678
X204.15Y-104.923
X204.7Y-93.3
X205.677Y-103.824
X206.087Y-123.938
X206.413Y-139.935
X206.544Y-138.864
X207.75Y-86.233
X207.775Y-63.373
X207.775Y-65.913
X207.775Y-70.993
X207.775Y-73.533
X207.775Y-76.073
X207.775Y-78.613
X207.775Y-83.693
X207.8Y-81.153
X207.8Y-88.773
X207.806Y-60.788
X207.852Y-68.453
X208.278Y-108.334
X210.15Y-132.125
X210.2Y-128.05
X212.301Y-67.175
X213.175Y-129.975
T2
X80.572Y-95.758
X80.615Y-76.8
X80.62Y-114.605
X88.192Y-95.758
X88.235Y-76.8
X88.24Y-114.605
X99.565Y-95.758
X99.619Y-76.85
X99.619Y-114.605
X107.185Y-95.758
X107.239Y-76.85
X107.239Y-114.605
X118.516Y-90.881
X118.618Y-72.034
X118.618Y-109.931
X126.136Y-90.881
X126.238Y-72.034
X126.238Y-109.931
X137.566Y-69.596
X137.617Y-107.645
X137.617Y-128.372
X137.773Y-88.595
X145.186Y-69.596
X145.237Y-107.645
X145.237Y-128.372
X145.393Y-88.595
X156.515Y-109.982
X156.566Y-72.034
X156.594Y-129.687
X156.715Y-91.135
X164.018Y-131.401
X164.135Y-109.982
X164.186Y-72.034
X164.335Y-91.135
X174.985Y-135.185
X175.565Y-74.425
X175.565Y-93.37
X175.613Y-112.37
X181.834Y-138.525
X183.185Y-74.425
X183.185Y-93.37
X183.233Y-112.37
X191.563Y-144.73
X193.902Y-59.563
X193.902Y-62.103
X193.902Y-64.643
X193.902Y-67.183
X193.902Y-69.723
X193.902Y-72.263
X193.902Y-74.803
X193.902Y-77.343
X193.902Y-79.883
X193.902Y-82.423
X193.902Y-84.963
X193.902Y-87.503
X195.209Y-60.833
X195.209Y-63.373
X195.209Y-65.913
X195.209Y-68.453
X195.209Y-70.993
X195.209Y-73.533
X195.209Y-76.073
X195.209Y-78.613
X195.209Y-81.153
X195.209Y-83.693
X195.209Y-86.233
X195.209Y-88.773
X197.485Y-149.525
X197.51Y-117.246
X198.374Y-92.507
X200.914Y-92.507
X203.454Y-92.507
X205.13Y-117.246
X205.994Y-92.507
X209.122Y-59.563
X209.122Y-62.103
X209.122Y-64.643
X209.122Y-67.183
X209.122Y-69.723
X209.122Y-72.263
X209.122Y-74.803
X209.122Y-77.343
X209.122Y-79.883
X209.122Y-82.423
X209.122Y-84.963
X209.122Y-87.503
X210.449Y-60.833
X210.449Y-63.373
X210.449Y-65.913
X210.449Y-68.453
X210.449Y-70.993
X210.449Y-73.533
X210.449Y-76.073
X210.449Y-78.613
X210.449Y-81.153
X210.449Y-83.693
X210.449Y-86.233
X210.449Y-88.773
T3
X212.225Y-118.4
X212.225Y-122.9
T4
X209.735Y-117.15
X209.735Y-124.16
T5
X94.03Y-77.724
X94.04Y-96.774
X170.2Y-94.575
X170.231Y-75.438
X192.65Y-132.37
X193.752Y-92.507
X210.599Y-92.507
T0
M30
