G04 #@! TF.GenerationSoftware,KiCad,Pcbnew,7.0.8*
G04 #@! TF.CreationDate,2023-10-25T23:55:58+08:00*
G04 #@! TF.ProjectId,owl,6f776c2e-6b69-4636-9164-5f7063625858,rev?*
G04 #@! TF.SameCoordinates,Original*
G04 #@! TF.FileFunction,Soldermask,Top*
G04 #@! TF.FilePolarity,Negative*
%FSLAX46Y46*%
G04 Gerber Fmt 4.6, Leading zero omitted, Abs format (unit mm)*
G04 Created by KiCad (PCBNEW 7.0.8) date 2023-10-25 23:55:58*
%MOMM*%
%LPD*%
G01*
G04 APERTURE LIST*
G04 Aperture macros list*
%AMRoundRect*
0 Rectangle with rounded corners*
0 $1 Rounding radius*
0 $2 $3 $4 $5 $6 $7 $8 $9 X,Y pos of 4 corners*
0 Add a 4 corners polygon primitive as box body*
4,1,4,$2,$3,$4,$5,$6,$7,$8,$9,$2,$3,0*
0 Add four circle primitives for the rounded corners*
1,1,$1+$1,$2,$3*
1,1,$1+$1,$4,$5*
1,1,$1+$1,$6,$7*
1,1,$1+$1,$8,$9*
0 Add four rect primitives between the rounded corners*
20,1,$1+$1,$2,$3,$4,$5,0*
20,1,$1+$1,$4,$5,$6,$7,0*
20,1,$1+$1,$6,$7,$8,$9,0*
20,1,$1+$1,$8,$9,$2,$3,0*%
%AMRotRect*
0 Rectangle, with rotation*
0 The origin of the aperture is its center*
0 $1 length*
0 $2 width*
0 $3 Rotation angle, in degrees counterclockwise*
0 Add horizontal line*
21,1,$1,$2,0,0,$3*%
G04 Aperture macros list end*
%ADD10R,1.397000X1.397000*%
%ADD11R,1.800000X1.500000*%
%ADD12C,1.397000*%
%ADD13R,0.800000X1.000000*%
%ADD14C,0.900000*%
%ADD15R,1.500000X0.700000*%
%ADD16C,4.200000*%
%ADD17C,1.700000*%
%ADD18C,3.000000*%
%ADD19C,5.250000*%
%ADD20RoundRect,0.344204X-1.514196X-1.115796X1.514196X-1.115796X1.514196X1.115796X-1.514196X1.115796X0*%
%ADD21RoundRect,0.432496X-1.398404X-2.445004X1.398404X-2.445004X1.398404X2.445004X-1.398404X2.445004X0*%
%ADD22RotRect,1.700000X1.000000X334.000000*%
%ADD23R,1.700000X1.000000*%
%ADD24R,1.143000X0.635000*%
%ADD25RotRect,1.397000X1.397000X154.000000*%
%ADD26RotRect,1.800000X1.500000X154.000000*%
%ADD27R,1.000000X1.700000*%
%ADD28RotRect,1.700000X1.000000X154.000000*%
%ADD29RotRect,1.397000X1.397000X167.000000*%
%ADD30RotRect,1.800000X1.500000X167.000000*%
%ADD31C,2.100000*%
%ADD32C,1.750000*%
%ADD33RotRect,1.700000X1.000000X347.000000*%
%ADD34RoundRect,0.344204X-1.878944X0.085778X0.474558X-1.820051X1.878944X-0.085778X-0.474558X1.820051X0*%
%ADD35RoundRect,0.432496X-2.625455X-1.020081X-0.451927X-2.780169X2.625455X1.020081X0.451927X2.780169X0*%
%ADD36RotRect,1.700000X1.000000X321.000000*%
%ADD37RotRect,1.397000X1.397000X141.000000*%
%ADD38RotRect,1.800000X1.500000X141.000000*%
%ADD39RoundRect,0.344204X-1.850083X-0.339091X0.871818X-1.666651X1.850083X0.339091X-0.871818X1.666651X0*%
%ADD40RoundRect,0.432496X-2.328696X-1.584535X0.185058X-2.810575X2.328696X1.584535X-0.185058X2.810575X0*%
%ADD41RoundRect,0.250000X-1.500000X0.250000X-1.500000X-0.250000X1.500000X-0.250000X1.500000X0.250000X0*%
%ADD42RoundRect,0.250001X-1.449999X0.499999X-1.449999X-0.499999X1.449999X-0.499999X1.449999X0.499999X0*%
%ADD43RoundRect,0.344204X-1.726387X-0.746578X1.224388X-1.427818X1.726387X0.746578X-1.224388X1.427818X0*%
%ADD44RoundRect,0.432496X-1.912569X-2.067766X0.812557X-2.696911X1.912569X2.067766X-0.812557X2.696911X0*%
%ADD45C,1.524000*%
G04 APERTURE END LIST*
G36*
X131428715Y-113960730D02*
G01*
X131491301Y-113973891D01*
X131548697Y-113996553D01*
X131602440Y-114029311D01*
X131650029Y-114068923D01*
X131702178Y-114125553D01*
X131743882Y-114187504D01*
X131775143Y-114254775D01*
X131795960Y-114327369D01*
X131805781Y-114397438D01*
X131805072Y-114462448D01*
X131793505Y-114527464D01*
X131771850Y-114590988D01*
X131740872Y-114651521D01*
X131701341Y-114707566D01*
X131654024Y-114757624D01*
X131599688Y-114800198D01*
X131599219Y-114800510D01*
X131541338Y-114832114D01*
X131477959Y-114854370D01*
X131411295Y-114866757D01*
X131343559Y-114868754D01*
X131317993Y-114866680D01*
X131254686Y-114853663D01*
X131191898Y-114828994D01*
X131129766Y-114792734D01*
X131094090Y-114766421D01*
X131048560Y-114723312D01*
X131008318Y-114671533D01*
X130974311Y-114613269D01*
X130947486Y-114550704D01*
X130928790Y-114486022D01*
X130919170Y-114421408D01*
X130919217Y-114363079D01*
X130930700Y-114292307D01*
X130952694Y-114225636D01*
X130984423Y-114164012D01*
X131025110Y-114108378D01*
X131073978Y-114059681D01*
X131130250Y-114018865D01*
X131193150Y-113986876D01*
X131242521Y-113969722D01*
X131268692Y-113963204D01*
X131294426Y-113959132D01*
X131323810Y-113957043D01*
X131359402Y-113956475D01*
X131428715Y-113960730D01*
G37*
G36*
X129352910Y-113956877D02*
G01*
X129407107Y-113968374D01*
X129461525Y-113988678D01*
X129481053Y-113997881D01*
X129509134Y-114012595D01*
X129532086Y-114027090D01*
X129553688Y-114044141D01*
X129577719Y-114066524D01*
X129586935Y-114075663D01*
X129611103Y-114101466D01*
X129634211Y-114128946D01*
X129653279Y-114154446D01*
X129661373Y-114166993D01*
X129692006Y-114229396D01*
X129713300Y-114295962D01*
X129724909Y-114364547D01*
X129726486Y-114433007D01*
X129717687Y-114499197D01*
X129716085Y-114506189D01*
X129693172Y-114578230D01*
X129660687Y-114644090D01*
X129619247Y-114703084D01*
X129569471Y-114754528D01*
X129511977Y-114797739D01*
X129447384Y-114832031D01*
X129407810Y-114847263D01*
X129382171Y-114855036D01*
X129358019Y-114860091D01*
X129331087Y-114863083D01*
X129297108Y-114864664D01*
X129293528Y-114864760D01*
X129265141Y-114865217D01*
X129239845Y-114865128D01*
X129220670Y-114864535D01*
X129211479Y-114863669D01*
X129174095Y-114853782D01*
X129132730Y-114838492D01*
X129092433Y-114819874D01*
X129060981Y-114801813D01*
X129002815Y-114757056D01*
X128952991Y-114704650D01*
X128912110Y-114645704D01*
X128880775Y-114581329D01*
X128859589Y-114512632D01*
X128849152Y-114440725D01*
X128848119Y-114409579D01*
X128853495Y-114336364D01*
X128869119Y-114267225D01*
X128894234Y-114202937D01*
X128928083Y-114144272D01*
X128969911Y-114092004D01*
X129018959Y-114046905D01*
X129074473Y-114009749D01*
X129135694Y-113981309D01*
X129201867Y-113962359D01*
X129272234Y-113953670D01*
X129294746Y-113953182D01*
X129352910Y-113956877D01*
G37*
G36*
X127995811Y-117581467D02*
G01*
X128011329Y-117590353D01*
X128034352Y-117604667D01*
X128064203Y-117623945D01*
X128100204Y-117647728D01*
X128141676Y-117675554D01*
X128187943Y-117706960D01*
X128238326Y-117741486D01*
X128292147Y-117778670D01*
X128348729Y-117818051D01*
X128407394Y-117859166D01*
X128467464Y-117901555D01*
X128528261Y-117944756D01*
X128589108Y-117988308D01*
X128625415Y-118014456D01*
X128664039Y-118042325D01*
X128707231Y-118073461D01*
X128751307Y-118105211D01*
X128792586Y-118134923D01*
X128821746Y-118155893D01*
X128862598Y-118185293D01*
X128908383Y-118218312D01*
X128957898Y-118254078D01*
X129009939Y-118291716D01*
X129063301Y-118330353D01*
X129116781Y-118369116D01*
X129169174Y-118407130D01*
X129219276Y-118443523D01*
X129265883Y-118477420D01*
X129307792Y-118507947D01*
X129343797Y-118534232D01*
X129372695Y-118555400D01*
X129393158Y-118570487D01*
X129465838Y-118624487D01*
X129532062Y-118673873D01*
X129591422Y-118718333D01*
X129643509Y-118757561D01*
X129687914Y-118791245D01*
X129724228Y-118819076D01*
X129752043Y-118840746D01*
X129770950Y-118855944D01*
X129775780Y-118860016D01*
X129792800Y-118875131D01*
X129802017Y-118884987D01*
X129804781Y-118891650D01*
X129802438Y-118897188D01*
X129801074Y-118898793D01*
X129793833Y-118908965D01*
X129783910Y-118926616D01*
X129771056Y-118952279D01*
X129755026Y-118986486D01*
X129735574Y-119029770D01*
X129712452Y-119082661D01*
X129685414Y-119145693D01*
X129671775Y-119177809D01*
X129642143Y-119247413D01*
X129614413Y-119311833D01*
X129588891Y-119370394D01*
X129565882Y-119422423D01*
X129545691Y-119467243D01*
X129528624Y-119504179D01*
X129514986Y-119532558D01*
X129505083Y-119551702D01*
X129499219Y-119560938D01*
X129498116Y-119561709D01*
X129492634Y-119556953D01*
X129484690Y-119544942D01*
X129481004Y-119538142D01*
X129470994Y-119517210D01*
X129459093Y-119489820D01*
X129444969Y-119455128D01*
X129428291Y-119412293D01*
X129408728Y-119360470D01*
X129385949Y-119298817D01*
X129372598Y-119262250D01*
X129350034Y-119200708D01*
X129329378Y-119145299D01*
X129310931Y-119096794D01*
X129294998Y-119055967D01*
X129281881Y-119023589D01*
X129271883Y-119000432D01*
X129265309Y-118987268D01*
X129263716Y-118984984D01*
X129258775Y-118985004D01*
X129249560Y-118991789D01*
X129235690Y-119005781D01*
X129216786Y-119027424D01*
X129192467Y-119057160D01*
X129162353Y-119095433D01*
X129126064Y-119142684D01*
X129108917Y-119165277D01*
X129083619Y-119198319D01*
X129060297Y-119228042D01*
X129039961Y-119253218D01*
X129023621Y-119272619D01*
X129012287Y-119285016D01*
X129007047Y-119289190D01*
X129001455Y-119284625D01*
X128990156Y-119271817D01*
X128974206Y-119252093D01*
X128954662Y-119226783D01*
X128932581Y-119197214D01*
X128918450Y-119177838D01*
X128892594Y-119141757D01*
X128872214Y-119113736D01*
X128855370Y-119092761D01*
X128840119Y-119077817D01*
X128824520Y-119067888D01*
X128806632Y-119061958D01*
X128784514Y-119059014D01*
X128756225Y-119058039D01*
X128719823Y-119058019D01*
X128689343Y-119058032D01*
X128638640Y-119057600D01*
X128590380Y-119056686D01*
X128545885Y-119055355D01*
X128506477Y-119053675D01*
X128473477Y-119051713D01*
X128448209Y-119049536D01*
X128431995Y-119047209D01*
X128426155Y-119044799D01*
X128426153Y-119044756D01*
X128429775Y-119038085D01*
X128439940Y-119023804D01*
X128455602Y-119003233D01*
X128475712Y-118977690D01*
X128499221Y-118948496D01*
X128525082Y-118916969D01*
X128552247Y-118884431D01*
X128571814Y-118861363D01*
X128591235Y-118838608D01*
X128608425Y-118818426D01*
X128621666Y-118802833D01*
X128629243Y-118793851D01*
X128629748Y-118793242D01*
X128632631Y-118787598D01*
X128632178Y-118779699D01*
X128627679Y-118767433D01*
X128618423Y-118748689D01*
X128608592Y-118730322D01*
X128594736Y-118704189D01*
X128577893Y-118671467D01*
X128560100Y-118636160D01*
X128543391Y-118602268D01*
X128541892Y-118599181D01*
X128526257Y-118567463D01*
X128506902Y-118529016D01*
X128485658Y-118487433D01*
X128464357Y-118446308D01*
X128449955Y-118418885D01*
X128436064Y-118392563D01*
X128417561Y-118357403D01*
X128395262Y-118314959D01*
X128369979Y-118266782D01*
X128342529Y-118214427D01*
X128313724Y-118159444D01*
X128284380Y-118103387D01*
X128257814Y-118052595D01*
X128217953Y-117976404D01*
X128183056Y-117909854D01*
X128152689Y-117852184D01*
X128126419Y-117802630D01*
X128103812Y-117760430D01*
X128084434Y-117724821D01*
X128067850Y-117695041D01*
X128053628Y-117670327D01*
X128041334Y-117649916D01*
X128030533Y-117633046D01*
X128020792Y-117618955D01*
X128011677Y-117606880D01*
X128002755Y-117596057D01*
X127993590Y-117585725D01*
X127990003Y-117581822D01*
X127988477Y-117578470D01*
X127995811Y-117581467D01*
G37*
G36*
X132683121Y-117561817D02*
G01*
X132677655Y-117573194D01*
X132672428Y-117582279D01*
X132666131Y-117593204D01*
X132655003Y-117613064D01*
X132639799Y-117640492D01*
X132621275Y-117674117D01*
X132600183Y-117712572D01*
X132577279Y-117754486D01*
X132556957Y-117791797D01*
X132530958Y-117839594D01*
X132504276Y-117888630D01*
X132478043Y-117936828D01*
X132453389Y-117982108D01*
X132431445Y-118022395D01*
X132413343Y-118055610D01*
X132405399Y-118070177D01*
X132386828Y-118104448D01*
X132364576Y-118145884D01*
X132340367Y-118191249D01*
X132315927Y-118237309D01*
X132292980Y-118280829D01*
X132288194Y-118289951D01*
X132269399Y-118325716D01*
X132252070Y-118358518D01*
X132237055Y-118386762D01*
X132225204Y-118408857D01*
X132217365Y-118423210D01*
X132214796Y-118427676D01*
X132210097Y-118435870D01*
X132200670Y-118452876D01*
X132187342Y-118477182D01*
X132170940Y-118507276D01*
X132152288Y-118541649D01*
X132134518Y-118574519D01*
X132113680Y-118612830D01*
X132093462Y-118649445D01*
X132074888Y-118682556D01*
X132058978Y-118710355D01*
X132046756Y-118731032D01*
X132040423Y-118741076D01*
X132028452Y-118761146D01*
X132023235Y-118775357D01*
X132023711Y-118780476D01*
X132029014Y-118787355D01*
X132040792Y-118801224D01*
X132057603Y-118820431D01*
X132078008Y-118843323D01*
X132092309Y-118859168D01*
X132120841Y-118891324D01*
X132148318Y-118923572D01*
X132173762Y-118954635D01*
X132196196Y-118983239D01*
X132214643Y-119008108D01*
X132228125Y-119027966D01*
X132235664Y-119041537D01*
X132236516Y-119047368D01*
X132229737Y-119048604D01*
X132212624Y-119049968D01*
X132186563Y-119051401D01*
X132152940Y-119052840D01*
X132113142Y-119054226D01*
X132068554Y-119055497D01*
X132031957Y-119056356D01*
X131832116Y-119060625D01*
X131817049Y-119074786D01*
X131808535Y-119084220D01*
X131794676Y-119101207D01*
X131777000Y-119123805D01*
X131757034Y-119150070D01*
X131743283Y-119168556D01*
X131715890Y-119205618D01*
X131694515Y-119234188D01*
X131678272Y-119255250D01*
X131666275Y-119269782D01*
X131657638Y-119278767D01*
X131651474Y-119283185D01*
X131646899Y-119284019D01*
X131643025Y-119282248D01*
X131641609Y-119281142D01*
X131635677Y-119274628D01*
X131623623Y-119260139D01*
X131606490Y-119238975D01*
X131585323Y-119212436D01*
X131561166Y-119181822D01*
X131535904Y-119149516D01*
X131501734Y-119105826D01*
X131473855Y-119070705D01*
X131451529Y-119043340D01*
X131434022Y-119022919D01*
X131420597Y-119008630D01*
X131410519Y-118999658D01*
X131403050Y-118995193D01*
X131397455Y-118994420D01*
X131395828Y-118994863D01*
X131390759Y-118999881D01*
X131383235Y-119012219D01*
X131373081Y-119032288D01*
X131360122Y-119060498D01*
X131344184Y-119097261D01*
X131325091Y-119142990D01*
X131302669Y-119198094D01*
X131276743Y-119262985D01*
X131247138Y-119338075D01*
X131214738Y-119421054D01*
X131201213Y-119454684D01*
X131187440Y-119486923D01*
X131174258Y-119516008D01*
X131162505Y-119540176D01*
X131153016Y-119557665D01*
X131146631Y-119566711D01*
X131145130Y-119567570D01*
X131140931Y-119562631D01*
X131133026Y-119549297D01*
X131122675Y-119529794D01*
X131114500Y-119513359D01*
X131103860Y-119490699D01*
X131089928Y-119459965D01*
X131073921Y-119423904D01*
X131057059Y-119385261D01*
X131040559Y-119346780D01*
X131039747Y-119344866D01*
X131026355Y-119313361D01*
X131010287Y-119275688D01*
X130992210Y-119233394D01*
X130972788Y-119188030D01*
X130952686Y-119141143D01*
X130932570Y-119094283D01*
X130913106Y-119048998D01*
X130894957Y-119006837D01*
X130878790Y-118969349D01*
X130865270Y-118938082D01*
X130855062Y-118914586D01*
X130849070Y-118900944D01*
X130844033Y-118887611D01*
X130845203Y-118879362D01*
X130853419Y-118870860D01*
X130853853Y-118870485D01*
X130874127Y-118853614D01*
X130901584Y-118831635D01*
X130933918Y-118806322D01*
X130968822Y-118779449D01*
X131003992Y-118752790D01*
X131037121Y-118728117D01*
X131065902Y-118707205D01*
X131069300Y-118704786D01*
X131100515Y-118682514D01*
X131136827Y-118656405D01*
X131173902Y-118629585D01*
X131207409Y-118605181D01*
X131209956Y-118603316D01*
X131273589Y-118556852D01*
X131342632Y-118506701D01*
X131416187Y-118453501D01*
X131493356Y-118397888D01*
X131573240Y-118340500D01*
X131654943Y-118281975D01*
X131737566Y-118222951D01*
X131820212Y-118164064D01*
X131901983Y-118105953D01*
X131981981Y-118049255D01*
X132059308Y-117994608D01*
X132133066Y-117942648D01*
X132202359Y-117894014D01*
X132266287Y-117849343D01*
X132323953Y-117809273D01*
X132374460Y-117774441D01*
X132416908Y-117745484D01*
X132437759Y-117731448D01*
X132487119Y-117698147D01*
X132533253Y-117666447D01*
X132574745Y-117637352D01*
X132610179Y-117611860D01*
X132638138Y-117590975D01*
X132652486Y-117579647D01*
X132667555Y-117567795D01*
X132678983Y-117559715D01*
X132683586Y-117557372D01*
X132683121Y-117561817D01*
G37*
G36*
X132504572Y-113995716D02*
G01*
X132504509Y-114132066D01*
X132504420Y-114265418D01*
X132504306Y-114395294D01*
X132504169Y-114521213D01*
X132504011Y-114642695D01*
X132503832Y-114759262D01*
X132503634Y-114870433D01*
X132503418Y-114975729D01*
X132503186Y-115074670D01*
X132502938Y-115166777D01*
X132502676Y-115251570D01*
X132502402Y-115328569D01*
X132502117Y-115397295D01*
X132501821Y-115457268D01*
X132501517Y-115508008D01*
X132501205Y-115549036D01*
X132500887Y-115579873D01*
X132500565Y-115600038D01*
X132500239Y-115609052D01*
X132500177Y-115609463D01*
X132493349Y-115618006D01*
X132476818Y-115629879D01*
X132450112Y-115645390D01*
X132426402Y-115657915D01*
X132395179Y-115674202D01*
X132357830Y-115694043D01*
X132318446Y-115715246D01*
X132281118Y-115735616D01*
X132270672Y-115741382D01*
X132184904Y-115788872D01*
X132215519Y-115851826D01*
X132229429Y-115879875D01*
X132247794Y-115916078D01*
X132269488Y-115958283D01*
X132293386Y-116004336D01*
X132318364Y-116052085D01*
X132343295Y-116099377D01*
X132367054Y-116144057D01*
X132388517Y-116183973D01*
X132402395Y-116209425D01*
X132434042Y-116267359D01*
X132467545Y-116329372D01*
X132502470Y-116394612D01*
X132538379Y-116462231D01*
X132574839Y-116531379D01*
X132611413Y-116601204D01*
X132647667Y-116670857D01*
X132683165Y-116739489D01*
X132717471Y-116806248D01*
X132750150Y-116870285D01*
X132780767Y-116930751D01*
X132808886Y-116986794D01*
X132834071Y-117037564D01*
X132855889Y-117082213D01*
X132873902Y-117119889D01*
X132887676Y-117149742D01*
X132896775Y-117170924D01*
X132900704Y-117182291D01*
X132900502Y-117193052D01*
X132894720Y-117206572D01*
X132882204Y-117225289D01*
X132877096Y-117232106D01*
X132862648Y-117252563D01*
X132845334Y-117279295D01*
X132827751Y-117308208D01*
X132817606Y-117325876D01*
X132801570Y-117354209D01*
X132784758Y-117383264D01*
X132769599Y-117408871D01*
X132761909Y-117421487D01*
X132749958Y-117441373D01*
X132740193Y-117458789D01*
X132734619Y-117470149D01*
X132734452Y-117470587D01*
X132731437Y-117475315D01*
X132727685Y-117472511D01*
X132722213Y-117460822D01*
X132716644Y-117446114D01*
X132711631Y-117434150D01*
X132702014Y-117412872D01*
X132688372Y-117383478D01*
X132671285Y-117347168D01*
X132651332Y-117305139D01*
X132629093Y-117258591D01*
X132605147Y-117208722D01*
X132580073Y-117156731D01*
X132554451Y-117103817D01*
X132528860Y-117051179D01*
X132503879Y-117000015D01*
X132480088Y-116951523D01*
X132458066Y-116906904D01*
X132438392Y-116867354D01*
X132421646Y-116834074D01*
X132408407Y-116808262D01*
X132407858Y-116807210D01*
X132391825Y-116776131D01*
X132374693Y-116742345D01*
X132358980Y-116710840D01*
X132351075Y-116694683D01*
X132340124Y-116672836D01*
X132330760Y-116655603D01*
X132324279Y-116645298D01*
X132322319Y-116643403D01*
X132317661Y-116647581D01*
X132306009Y-116659665D01*
X132288144Y-116678787D01*
X132264845Y-116704081D01*
X132236892Y-116734678D01*
X132205063Y-116769712D01*
X132170139Y-116808314D01*
X132132899Y-116849618D01*
X132094123Y-116892756D01*
X132054591Y-116936860D01*
X132015081Y-116981064D01*
X131976373Y-117024499D01*
X131939248Y-117066299D01*
X131904484Y-117105596D01*
X131872861Y-117141522D01*
X131845159Y-117173210D01*
X131822157Y-117199793D01*
X131819574Y-117202803D01*
X131785599Y-117241811D01*
X131758462Y-117271568D01*
X131738204Y-117292029D01*
X131724866Y-117303154D01*
X131719742Y-117305364D01*
X131715932Y-117300365D01*
X131706820Y-117285846D01*
X131692815Y-117262520D01*
X131674326Y-117231103D01*
X131651763Y-117192311D01*
X131625533Y-117146858D01*
X131596047Y-117095459D01*
X131563713Y-117038830D01*
X131528939Y-116977685D01*
X131492136Y-116912740D01*
X131453712Y-116844709D01*
X131414075Y-116774308D01*
X131373635Y-116702251D01*
X131332802Y-116629255D01*
X131322544Y-116610879D01*
X131296395Y-116563743D01*
X131270584Y-116516713D01*
X131245790Y-116471068D01*
X131222693Y-116428086D01*
X131201972Y-116389046D01*
X131184305Y-116355227D01*
X131170372Y-116327908D01*
X131160852Y-116308367D01*
X131156577Y-116298366D01*
X131152388Y-116295528D01*
X131141888Y-116296736D01*
X131123419Y-116302317D01*
X131107278Y-116308104D01*
X131070169Y-116322466D01*
X131025931Y-116340572D01*
X130977948Y-116360986D01*
X130929605Y-116382272D01*
X130890551Y-116400074D01*
X130871420Y-116408834D01*
X130843821Y-116421301D01*
X130810016Y-116436464D01*
X130772265Y-116453309D01*
X130732830Y-116470824D01*
X130714375Y-116478991D01*
X130667754Y-116499727D01*
X130614676Y-116523550D01*
X130559300Y-116548581D01*
X130505786Y-116572938D01*
X130458293Y-116594740D01*
X130454939Y-116596290D01*
X130324794Y-116656445D01*
X130171055Y-116582899D01*
X130085261Y-116542107D01*
X130002480Y-116503239D01*
X129923600Y-116466692D01*
X129849507Y-116432863D01*
X129781089Y-116402147D01*
X129719232Y-116374942D01*
X129664823Y-116351644D01*
X129618749Y-116332649D01*
X129581897Y-116318355D01*
X129569589Y-116313921D01*
X129540125Y-116304537D01*
X129520110Y-116300441D01*
X129508572Y-116301555D01*
X129504539Y-116307798D01*
X129504510Y-116308638D01*
X129501672Y-116315467D01*
X129493844Y-116330467D01*
X129482061Y-116351753D01*
X129467354Y-116377443D01*
X129458646Y-116392336D01*
X129434887Y-116433040D01*
X129406220Y-116482763D01*
X129373363Y-116540240D01*
X129337035Y-116604209D01*
X129297954Y-116673405D01*
X129256838Y-116746563D01*
X129224862Y-116803694D01*
X129203626Y-116841397D01*
X129178550Y-116885430D01*
X129151782Y-116932049D01*
X129125474Y-116977507D01*
X129103763Y-117014677D01*
X129081320Y-117053030D01*
X129057913Y-117093297D01*
X129035244Y-117132529D01*
X129015016Y-117167780D01*
X128998931Y-117196103D01*
X128997977Y-117197798D01*
X128982211Y-117225340D01*
X128967276Y-117250541D01*
X128954670Y-117270930D01*
X128945892Y-117284037D01*
X128944668Y-117285642D01*
X128931383Y-117302303D01*
X128909728Y-117278926D01*
X128897854Y-117265690D01*
X128880595Y-117245916D01*
X128860077Y-117222063D01*
X128838428Y-117196589D01*
X128833782Y-117191082D01*
X128808679Y-117161648D01*
X128780804Y-117129565D01*
X128753604Y-117098771D01*
X128731138Y-117073869D01*
X128713691Y-117054541D01*
X128690331Y-117028225D01*
X128662750Y-116996852D01*
X128632640Y-116962353D01*
X128601695Y-116926657D01*
X128579572Y-116900980D01*
X128549203Y-116865828D01*
X128518517Y-116830667D01*
X128489182Y-116797384D01*
X128462866Y-116767861D01*
X128441236Y-116743985D01*
X128429191Y-116731022D01*
X128408169Y-116708554D01*
X128388066Y-116686601D01*
X128371478Y-116668023D01*
X128362690Y-116657764D01*
X128351482Y-116645767D01*
X128343303Y-116639946D01*
X128340706Y-116640468D01*
X128337292Y-116647114D01*
X128329070Y-116662613D01*
X128316817Y-116685514D01*
X128301310Y-116714365D01*
X128283329Y-116747715D01*
X128266856Y-116778193D01*
X128237794Y-116832982D01*
X128205135Y-116896442D01*
X128169904Y-116966473D01*
X128133125Y-117040975D01*
X128095824Y-117117847D01*
X128059024Y-117194988D01*
X128023752Y-117270298D01*
X127991031Y-117341678D01*
X127980248Y-117365617D01*
X127963539Y-117402652D01*
X127950798Y-117430104D01*
X127941348Y-117449153D01*
X127934517Y-117460976D01*
X127929627Y-117466755D01*
X127926005Y-117467668D01*
X127923230Y-117465248D01*
X127917338Y-117456463D01*
X127906758Y-117439937D01*
X127892919Y-117417929D01*
X127877248Y-117392695D01*
X127875027Y-117389093D01*
X127854864Y-117357366D01*
X127831846Y-117322687D01*
X127809134Y-117289753D01*
X127793668Y-117268300D01*
X127777059Y-117245097D01*
X127763011Y-117223955D01*
X127753122Y-117207375D01*
X127749123Y-117198523D01*
X127749066Y-117187488D01*
X127753771Y-117171083D01*
X127763826Y-117147584D01*
X127772930Y-117128845D01*
X127782026Y-117110875D01*
X127795974Y-117083609D01*
X127814206Y-117048141D01*
X127836155Y-117005568D01*
X127861254Y-116956986D01*
X127888933Y-116903490D01*
X127918626Y-116846176D01*
X127949765Y-116786141D01*
X127981781Y-116724480D01*
X128014107Y-116662289D01*
X128046176Y-116600663D01*
X128077418Y-116540700D01*
X128107268Y-116483494D01*
X128112668Y-116473154D01*
X128134850Y-116430624D01*
X128160854Y-116380652D01*
X128189136Y-116326216D01*
X128218148Y-116270294D01*
X128246346Y-116215862D01*
X128272182Y-116165900D01*
X128272404Y-116165470D01*
X128296835Y-116118241D01*
X128322412Y-116068921D01*
X128347877Y-116019925D01*
X128371973Y-115973668D01*
X128393443Y-115932567D01*
X128411031Y-115899037D01*
X128413685Y-115893996D01*
X128430162Y-115862531D01*
X128444580Y-115834621D01*
X128456106Y-115811914D01*
X128463903Y-115796057D01*
X128467136Y-115788699D01*
X128467178Y-115788461D01*
X128462311Y-115784538D01*
X128448763Y-115775853D01*
X128428112Y-115763314D01*
X128401935Y-115747829D01*
X128371809Y-115730305D01*
X128339313Y-115711651D01*
X128306024Y-115692773D01*
X128273519Y-115674581D01*
X128243377Y-115657981D01*
X128217175Y-115643881D01*
X128203449Y-115636716D01*
X128159494Y-115614158D01*
X128155767Y-115538176D01*
X128155439Y-115525689D01*
X128155113Y-115501999D01*
X128154791Y-115467623D01*
X128154475Y-115423081D01*
X128154165Y-115368889D01*
X128153864Y-115305567D01*
X128153573Y-115233631D01*
X128153293Y-115153602D01*
X128153026Y-115065995D01*
X128152772Y-114971330D01*
X128152534Y-114870124D01*
X128152313Y-114762896D01*
X128152110Y-114650163D01*
X128151926Y-114532445D01*
X128151801Y-114438429D01*
X128581231Y-114438429D01*
X128583646Y-114493988D01*
X128589686Y-114543613D01*
X128592207Y-114556725D01*
X128615717Y-114645163D01*
X128647287Y-114725833D01*
X128687662Y-114800126D01*
X128737586Y-114869430D01*
X128791500Y-114928893D01*
X128857612Y-114988425D01*
X128926840Y-115037334D01*
X129000932Y-115076635D01*
X129081633Y-115107346D01*
X129114778Y-115117079D01*
X129136593Y-115122773D01*
X129155672Y-115126946D01*
X129174548Y-115129843D01*
X129195754Y-115131708D01*
X129221827Y-115132786D01*
X129255298Y-115133324D01*
X129284737Y-115133510D01*
X129330997Y-115133366D01*
X129368638Y-115132112D01*
X129400748Y-115129190D01*
X129430415Y-115124044D01*
X129460729Y-115116117D01*
X129494777Y-115104852D01*
X129535648Y-115089693D01*
X129542605Y-115087031D01*
X129622383Y-115050247D01*
X129698591Y-115002450D01*
X129771330Y-114943563D01*
X129840702Y-114873510D01*
X129863210Y-114847527D01*
X129877373Y-114830645D01*
X129923538Y-114911994D01*
X129942542Y-114945242D01*
X129962643Y-114980009D01*
X129981764Y-115012725D01*
X129997827Y-115039820D01*
X130001599Y-115046089D01*
X130013091Y-115065600D01*
X130029576Y-115094330D01*
X130050454Y-115131198D01*
X130075124Y-115175125D01*
X130102982Y-115225030D01*
X130133428Y-115279832D01*
X130165861Y-115338451D01*
X130199678Y-115399806D01*
X130234277Y-115462819D01*
X130267325Y-115523233D01*
X130286638Y-115558402D01*
X130301275Y-115584474D01*
X130312036Y-115602720D01*
X130319715Y-115614410D01*
X130325109Y-115620814D01*
X130329016Y-115623201D01*
X130330113Y-115623324D01*
X130335149Y-115618739D01*
X130342956Y-115607443D01*
X130344849Y-115604277D01*
X130350224Y-115594932D01*
X130360676Y-115576668D01*
X130375480Y-115550755D01*
X130393912Y-115518461D01*
X130415248Y-115481053D01*
X130438765Y-115439801D01*
X130463739Y-115395972D01*
X130464408Y-115394797D01*
X130492709Y-115345220D01*
X130522484Y-115293248D01*
X130552438Y-115241131D01*
X130581273Y-115191117D01*
X130607695Y-115145456D01*
X130630408Y-115106397D01*
X130641688Y-115087113D01*
X130675085Y-115030050D01*
X130702861Y-114982199D01*
X130725434Y-114942728D01*
X130743225Y-114910804D01*
X130756653Y-114885594D01*
X130766137Y-114866268D01*
X130772098Y-114851992D01*
X130774954Y-114841933D01*
X130775127Y-114835261D01*
X130773035Y-114831142D01*
X130771406Y-114829862D01*
X130768591Y-114828418D01*
X130764578Y-114827295D01*
X130758243Y-114826500D01*
X130748460Y-114826041D01*
X130734104Y-114825926D01*
X130714050Y-114826162D01*
X130687172Y-114826756D01*
X130652344Y-114827715D01*
X130608441Y-114829048D01*
X130554339Y-114830762D01*
X130533052Y-114831445D01*
X130483470Y-114832718D01*
X130428589Y-114833570D01*
X130369897Y-114834020D01*
X130308883Y-114834091D01*
X130247034Y-114833803D01*
X130185839Y-114833178D01*
X130126786Y-114832237D01*
X130071363Y-114831001D01*
X130021058Y-114829493D01*
X129977360Y-114827731D01*
X129941757Y-114825739D01*
X129915736Y-114823538D01*
X129907769Y-114822517D01*
X129886132Y-114819251D01*
X129901142Y-114786154D01*
X129921326Y-114737736D01*
X129941270Y-114682850D01*
X129959204Y-114626646D01*
X129971924Y-114580168D01*
X129977515Y-114556423D01*
X129981569Y-114535410D01*
X129984333Y-114514414D01*
X129986053Y-114490721D01*
X129986977Y-114461613D01*
X129987353Y-114424376D01*
X129987398Y-114410210D01*
X130661986Y-114410210D01*
X130663195Y-114472810D01*
X130667165Y-114527027D01*
X130674414Y-114575982D01*
X130685462Y-114622797D01*
X130700824Y-114670593D01*
X130708674Y-114691678D01*
X130726976Y-114737037D01*
X130744125Y-114773940D01*
X130761891Y-114805278D01*
X130782042Y-114833948D01*
X130806349Y-114862842D01*
X130826618Y-114884579D01*
X130899306Y-114952901D01*
X130975695Y-115010170D01*
X131056063Y-115056547D01*
X131140688Y-115092191D01*
X131229850Y-115117260D01*
X131236405Y-115118652D01*
X131311196Y-115131251D01*
X131379535Y-115136345D01*
X131443896Y-115134028D01*
X131486632Y-115128271D01*
X131559775Y-115111107D01*
X131634081Y-115085461D01*
X131703710Y-115053540D01*
X131775611Y-115009429D01*
X131840842Y-114956125D01*
X131898924Y-114894388D01*
X131949377Y-114824980D01*
X131991722Y-114748661D01*
X132025478Y-114666190D01*
X132050167Y-114578330D01*
X132065309Y-114485840D01*
X132066023Y-114478978D01*
X132068838Y-114393917D01*
X132060796Y-114307241D01*
X132042256Y-114220738D01*
X132013576Y-114136199D01*
X131984887Y-114073723D01*
X131939479Y-113998161D01*
X131885269Y-113929571D01*
X131823250Y-113868559D01*
X131754414Y-113815732D01*
X131679754Y-113771697D01*
X131600261Y-113737059D01*
X131516929Y-113712425D01*
X131430750Y-113698402D01*
X131365352Y-113695212D01*
X131276163Y-113700945D01*
X131188321Y-113717791D01*
X131103162Y-113745214D01*
X131022022Y-113782681D01*
X130946236Y-113829659D01*
X130877140Y-113885615D01*
X130868620Y-113893615D01*
X130808555Y-113958433D01*
X130758953Y-114028285D01*
X130719417Y-114103800D01*
X130695025Y-114167914D01*
X130683526Y-114205392D01*
X130674960Y-114238896D01*
X130668928Y-114271359D01*
X130665030Y-114305713D01*
X130662866Y-114344892D01*
X130662036Y-114391829D01*
X130661986Y-114410210D01*
X129987398Y-114410210D01*
X129987342Y-114370282D01*
X129986816Y-114339379D01*
X129985573Y-114314808D01*
X129983371Y-114293875D01*
X129979966Y-114273886D01*
X129975112Y-114252148D01*
X129971887Y-114239063D01*
X129944547Y-114149304D01*
X129909531Y-114068084D01*
X129866346Y-113994680D01*
X129814496Y-113928369D01*
X129753488Y-113868425D01*
X129682826Y-113814125D01*
X129680617Y-113812620D01*
X129604016Y-113767422D01*
X129523885Y-113733044D01*
X129441104Y-113709444D01*
X129356554Y-113696581D01*
X129271116Y-113694416D01*
X129185670Y-113702908D01*
X129101097Y-113722016D01*
X129018278Y-113751699D01*
X128938093Y-113791917D01*
X128861423Y-113842629D01*
X128850623Y-113850872D01*
X128785886Y-113907858D01*
X128730060Y-113971487D01*
X128682841Y-114042264D01*
X128643928Y-114120690D01*
X128613019Y-114207268D01*
X128595291Y-114276115D01*
X128587097Y-114325496D01*
X128582396Y-114380933D01*
X128581231Y-114438429D01*
X128151801Y-114438429D01*
X128151764Y-114410258D01*
X128151624Y-114284121D01*
X128151508Y-114154552D01*
X128151418Y-114022068D01*
X128151371Y-113931103D01*
X128151305Y-113772594D01*
X128151251Y-113625391D01*
X128151211Y-113489075D01*
X128151188Y-113363230D01*
X128151186Y-113247438D01*
X128151206Y-113141285D01*
X128151251Y-113044351D01*
X128151324Y-112956221D01*
X128151427Y-112876478D01*
X128151563Y-112804705D01*
X128151735Y-112740486D01*
X128151945Y-112683402D01*
X128152196Y-112633039D01*
X128152490Y-112588978D01*
X128152830Y-112550803D01*
X128153219Y-112518097D01*
X128153659Y-112490443D01*
X128154153Y-112467425D01*
X128154704Y-112448626D01*
X128155313Y-112433629D01*
X128155984Y-112422017D01*
X128156720Y-112413373D01*
X128157522Y-112407281D01*
X128158394Y-112403324D01*
X128159338Y-112401084D01*
X128160357Y-112400146D01*
X128160959Y-112400033D01*
X128171388Y-112401569D01*
X128192200Y-112405993D01*
X128222485Y-112413066D01*
X128261329Y-112422544D01*
X128307822Y-112434188D01*
X128361051Y-112447756D01*
X128420106Y-112463007D01*
X128484073Y-112479700D01*
X128552041Y-112497593D01*
X128623098Y-112516445D01*
X128696333Y-112536016D01*
X128770834Y-112556064D01*
X128845688Y-112576347D01*
X128919984Y-112596625D01*
X128992811Y-112616656D01*
X129063256Y-112636200D01*
X129130408Y-112655014D01*
X129193354Y-112672859D01*
X129205618Y-112676364D01*
X129232670Y-112684014D01*
X129269361Y-112694247D01*
X129314010Y-112706601D01*
X129364936Y-112720615D01*
X129420460Y-112735827D01*
X129478900Y-112751776D01*
X129538577Y-112768000D01*
X129586559Y-112780997D01*
X129650628Y-112798360D01*
X129718666Y-112816867D01*
X129788320Y-112835874D01*
X129857236Y-112854737D01*
X129923057Y-112872810D01*
X129983430Y-112889448D01*
X130036001Y-112904006D01*
X130058341Y-112910225D01*
X130119153Y-112927246D01*
X130169809Y-112941451D01*
X130211481Y-112953026D01*
X130245344Y-112962156D01*
X130272571Y-112969029D01*
X130294335Y-112973829D01*
X130311810Y-112976742D01*
X130326171Y-112977955D01*
X130338589Y-112977654D01*
X130350239Y-112976024D01*
X130362295Y-112973252D01*
X130375930Y-112969523D01*
X130392317Y-112965023D01*
X130396787Y-112963850D01*
X130432674Y-112954514D01*
X130472481Y-112944101D01*
X130510547Y-112934096D01*
X130533052Y-112928148D01*
X130556336Y-112922004D01*
X130588672Y-112913515D01*
X130627766Y-112903280D01*
X130671324Y-112891900D01*
X130717052Y-112879974D01*
X130758687Y-112869136D01*
X130812273Y-112855140D01*
X130873035Y-112839171D01*
X130936837Y-112822323D01*
X130999542Y-112805690D01*
X131057013Y-112790364D01*
X131081022Y-112783929D01*
X131124981Y-112772140D01*
X131177710Y-112758030D01*
X131236649Y-112742282D01*
X131299236Y-112725580D01*
X131362913Y-112708607D01*
X131425118Y-112692045D01*
X131475919Y-112678538D01*
X131527767Y-112664620D01*
X131588753Y-112648007D01*
X131656764Y-112629289D01*
X131729687Y-112609056D01*
X131805407Y-112587895D01*
X131881812Y-112566397D01*
X131956788Y-112545150D01*
X132028221Y-112524744D01*
X132047331Y-112519252D01*
X132125941Y-112496647D01*
X132194135Y-112477081D01*
X132252751Y-112460324D01*
X132302629Y-112446143D01*
X132344608Y-112434305D01*
X132379525Y-112424579D01*
X132408222Y-112416733D01*
X132431536Y-112410535D01*
X132450306Y-112405752D01*
X132465371Y-112402152D01*
X132477571Y-112399504D01*
X132486109Y-112397864D01*
X132505157Y-112394444D01*
X132504572Y-113995716D01*
G37*
G36*
X116893640Y-112378709D02*
G01*
X116928571Y-112379353D01*
X116958232Y-112380477D01*
X116975388Y-112381590D01*
X117088244Y-112393831D01*
X117198680Y-112411809D01*
X117306097Y-112435325D01*
X117409895Y-112464180D01*
X117509473Y-112498174D01*
X117604234Y-112537109D01*
X117693576Y-112580784D01*
X117776900Y-112629002D01*
X117832858Y-112666439D01*
X117904232Y-112721263D01*
X117972924Y-112781993D01*
X118037818Y-112847432D01*
X118097802Y-112916387D01*
X118151760Y-112987659D01*
X118196700Y-113056889D01*
X118239990Y-113136934D01*
X118277080Y-113221438D01*
X118308016Y-113310588D01*
X118332842Y-113404570D01*
X118351602Y-113503571D01*
X118364342Y-113607777D01*
X118371105Y-113717376D01*
X118372317Y-113791278D01*
X118369651Y-113916240D01*
X118361770Y-114036082D01*
X118348715Y-114150630D01*
X118330530Y-114259709D01*
X118307256Y-114363143D01*
X118278936Y-114460758D01*
X118245613Y-114552380D01*
X118207329Y-114637832D01*
X118164126Y-114716941D01*
X118137762Y-114758461D01*
X118105689Y-114803400D01*
X118069316Y-114848698D01*
X118027642Y-114895539D01*
X117982608Y-114942171D01*
X117917312Y-115004718D01*
X117853118Y-115060285D01*
X117788812Y-115109761D01*
X117723181Y-115154039D01*
X117655011Y-115194010D01*
X117603105Y-115220902D01*
X117560075Y-115241203D01*
X117517617Y-115259333D01*
X117474604Y-115275621D01*
X117429904Y-115290394D01*
X117382388Y-115303983D01*
X117330928Y-115316715D01*
X117274392Y-115328919D01*
X117211652Y-115340925D01*
X117158877Y-115350160D01*
X117096803Y-115359893D01*
X117031046Y-115368782D01*
X116962740Y-115376753D01*
X116893018Y-115383730D01*
X116823013Y-115389638D01*
X116753860Y-115394403D01*
X116686693Y-115397948D01*
X116622643Y-115400201D01*
X116562847Y-115401084D01*
X116508436Y-115400523D01*
X116460545Y-115398444D01*
X116445759Y-115397362D01*
X116362418Y-115387005D01*
X116276780Y-115369714D01*
X116190055Y-115345972D01*
X116103453Y-115316263D01*
X116018182Y-115281073D01*
X115935452Y-115240884D01*
X115856473Y-115196181D01*
X115782453Y-115147449D01*
X115737529Y-115113807D01*
X115700277Y-115082481D01*
X115660372Y-115045479D01*
X115619195Y-115004269D01*
X115578129Y-114960318D01*
X115538558Y-114915093D01*
X115501863Y-114870062D01*
X115477189Y-114837474D01*
X115422875Y-114757856D01*
X115374942Y-114676374D01*
X115333206Y-114592452D01*
X115297480Y-114505511D01*
X115267579Y-114414974D01*
X115243318Y-114320265D01*
X115224510Y-114220804D01*
X115210971Y-114116016D01*
X115202515Y-114005323D01*
X115201270Y-113978984D01*
X115199310Y-113857362D01*
X115202700Y-113770159D01*
X115828841Y-113770159D01*
X115829079Y-113809111D01*
X115829668Y-113846703D01*
X115830609Y-113881343D01*
X115831902Y-113911436D01*
X115832849Y-113926668D01*
X115843671Y-114042924D01*
X115859017Y-114154995D01*
X115878770Y-114262478D01*
X115902815Y-114364966D01*
X115931034Y-114462055D01*
X115963313Y-114553341D01*
X115999535Y-114638418D01*
X116039584Y-114716881D01*
X116077155Y-114778999D01*
X116128839Y-114852228D01*
X116182930Y-114917699D01*
X116239651Y-114975562D01*
X116299227Y-115025967D01*
X116361883Y-115069066D01*
X116427841Y-115105009D01*
X116497328Y-115133948D01*
X116570565Y-115156034D01*
X116647779Y-115171416D01*
X116663580Y-115173683D01*
X116687741Y-115176118D01*
X116717976Y-115177913D01*
X116752176Y-115179048D01*
X116788235Y-115179505D01*
X116824043Y-115179264D01*
X116857493Y-115178308D01*
X116886476Y-115176616D01*
X116895975Y-115175767D01*
X116977009Y-115163954D01*
X117054464Y-115145286D01*
X117127784Y-115119916D01*
X117176421Y-115098216D01*
X117216708Y-115077219D01*
X117252865Y-115055533D01*
X117286630Y-115031858D01*
X117319739Y-115004895D01*
X117353927Y-114973342D01*
X117385123Y-114941954D01*
X117445645Y-114873595D01*
X117499584Y-114800807D01*
X117547140Y-114723253D01*
X117588512Y-114640598D01*
X117623900Y-114552507D01*
X117634398Y-114521882D01*
X117651070Y-114466768D01*
X117667051Y-114405368D01*
X117681947Y-114339599D01*
X117695362Y-114271377D01*
X117706901Y-114202616D01*
X117716170Y-114135233D01*
X117718693Y-114113342D01*
X117721004Y-114086358D01*
X117722869Y-114052773D01*
X117724281Y-114014180D01*
X117725231Y-113972173D01*
X117725712Y-113928344D01*
X117725715Y-113884287D01*
X117725232Y-113841595D01*
X117724254Y-113801860D01*
X117722775Y-113766676D01*
X117720784Y-113737636D01*
X117720627Y-113735891D01*
X117707063Y-113618305D01*
X117688540Y-113507225D01*
X117665045Y-113402613D01*
X117636567Y-113304428D01*
X117603093Y-113212630D01*
X117564612Y-113127180D01*
X117521110Y-113048038D01*
X117500809Y-113015862D01*
X117448965Y-112943548D01*
X117393249Y-112878465D01*
X117333643Y-112820605D01*
X117270128Y-112769957D01*
X117202686Y-112726512D01*
X117131298Y-112690258D01*
X117055947Y-112661188D01*
X116976613Y-112639289D01*
X116893278Y-112624554D01*
X116805924Y-112616971D01*
X116755101Y-112615846D01*
X116672651Y-112619191D01*
X116594401Y-112629370D01*
X116519703Y-112646594D01*
X116447910Y-112671076D01*
X116378374Y-112703027D01*
X116310449Y-112742659D01*
X116258973Y-112778443D01*
X116231996Y-112799841D01*
X116202040Y-112825851D01*
X116171110Y-112854568D01*
X116141213Y-112884087D01*
X116114353Y-112912503D01*
X116097565Y-112931756D01*
X116043335Y-113003182D01*
X115994711Y-113080303D01*
X115951871Y-113162664D01*
X115914993Y-113249805D01*
X115884257Y-113341268D01*
X115859841Y-113436596D01*
X115841922Y-113535331D01*
X115832910Y-113610758D01*
X115831396Y-113632614D01*
X115830232Y-113661075D01*
X115829418Y-113694548D01*
X115828954Y-113731441D01*
X115828841Y-113770159D01*
X115202700Y-113770159D01*
X115203857Y-113740401D01*
X115214896Y-113628158D01*
X115232411Y-113520693D01*
X115256389Y-113418065D01*
X115286815Y-113320332D01*
X115323673Y-113227554D01*
X115366949Y-113139788D01*
X115416628Y-113057094D01*
X115442209Y-113019965D01*
X115506948Y-112936404D01*
X115577291Y-112857803D01*
X115652618Y-112784705D01*
X115732315Y-112717651D01*
X115815763Y-112657184D01*
X115902346Y-112603846D01*
X115936907Y-112585054D01*
X116028320Y-112541119D01*
X116126016Y-112501671D01*
X116229271Y-112466925D01*
X116337362Y-112437094D01*
X116449567Y-112412390D01*
X116565164Y-112393029D01*
X116604090Y-112387829D01*
X116627296Y-112385536D01*
X116657205Y-112383522D01*
X116692323Y-112381813D01*
X116731152Y-112380433D01*
X116772194Y-112379407D01*
X116813955Y-112378761D01*
X116854935Y-112378520D01*
X116893640Y-112378709D01*
G37*
G36*
X123074095Y-112314946D02*
G01*
X123099002Y-112316082D01*
X123123523Y-112318870D01*
X123149465Y-112323668D01*
X123178635Y-112330832D01*
X123212839Y-112340721D01*
X123227948Y-112345398D01*
X123266338Y-112357426D01*
X123297922Y-112367253D01*
X123323709Y-112375172D01*
X123344711Y-112381479D01*
X123361938Y-112386469D01*
X123376398Y-112390437D01*
X123389103Y-112393678D01*
X123401062Y-112396487D01*
X123408468Y-112398124D01*
X123425381Y-112401483D01*
X123449217Y-112405779D01*
X123478772Y-112410825D01*
X123512840Y-112416438D01*
X123550217Y-112422432D01*
X123589698Y-112428621D01*
X123630077Y-112434822D01*
X123670150Y-112440850D01*
X123708712Y-112446518D01*
X123744557Y-112451643D01*
X123776480Y-112456040D01*
X123803278Y-112459523D01*
X123823744Y-112461909D01*
X123824895Y-112462028D01*
X123848350Y-112464459D01*
X123870263Y-112466762D01*
X123888715Y-112468733D01*
X123901785Y-112470168D01*
X123905391Y-112470583D01*
X123928450Y-112477265D01*
X123949086Y-112490789D01*
X123965461Y-112509814D01*
X123969939Y-112517713D01*
X123978991Y-112543004D01*
X123980108Y-112566494D01*
X123973306Y-112588023D01*
X123961050Y-112604939D01*
X123948151Y-112616422D01*
X123933331Y-112624804D01*
X123914823Y-112630737D01*
X123890864Y-112634868D01*
X123875103Y-112636573D01*
X123835869Y-112641321D01*
X123803692Y-112647901D01*
X123777525Y-112656849D01*
X123756322Y-112668702D01*
X123739039Y-112683997D01*
X123724628Y-112703269D01*
X123716412Y-112717973D01*
X123706667Y-112740782D01*
X123696996Y-112769893D01*
X123687876Y-112803415D01*
X123679783Y-112839454D01*
X123673194Y-112876117D01*
X123669217Y-112905576D01*
X123666986Y-112928890D01*
X123664621Y-112959929D01*
X123662139Y-112998213D01*
X123659557Y-113043263D01*
X123656893Y-113094599D01*
X123654162Y-113151743D01*
X123651382Y-113214214D01*
X123648569Y-113281533D01*
X123645741Y-113353221D01*
X123642914Y-113428798D01*
X123640104Y-113507786D01*
X123637330Y-113589704D01*
X123634607Y-113674073D01*
X123631953Y-113760414D01*
X123629384Y-113848247D01*
X123626917Y-113937094D01*
X123624569Y-114026473D01*
X123622357Y-114115907D01*
X123620297Y-114204916D01*
X123618407Y-114293020D01*
X123616703Y-114379740D01*
X123615879Y-114425150D01*
X123614783Y-114497712D01*
X123614243Y-114562601D01*
X123614329Y-114620333D01*
X123615110Y-114671424D01*
X123616656Y-114716391D01*
X123619038Y-114755752D01*
X123622326Y-114790023D01*
X123626590Y-114819722D01*
X123631899Y-114845364D01*
X123638324Y-114867467D01*
X123645936Y-114886549D01*
X123654803Y-114903125D01*
X123664996Y-114917712D01*
X123676586Y-114930828D01*
X123685596Y-114939437D01*
X123709423Y-114958425D01*
X123735911Y-114974610D01*
X123765851Y-114988215D01*
X123800033Y-114999465D01*
X123839249Y-115008584D01*
X123884288Y-115015794D01*
X123935943Y-115021320D01*
X123987993Y-115024996D01*
X124029422Y-115026617D01*
X124074640Y-115027084D01*
X124121692Y-115026466D01*
X124168620Y-115024834D01*
X124213468Y-115022259D01*
X124254279Y-115018811D01*
X124289098Y-115014560D01*
X124292606Y-115014026D01*
X124346342Y-115003633D01*
X124392738Y-114990192D01*
X124432177Y-114973429D01*
X124465043Y-114953068D01*
X124491718Y-114928833D01*
X124512586Y-114900448D01*
X124528031Y-114867639D01*
X124536610Y-114838583D01*
X124542037Y-114811942D01*
X124545911Y-114784755D01*
X124548299Y-114755588D01*
X124549270Y-114723008D01*
X124548891Y-114685581D01*
X124547229Y-114641874D01*
X124546539Y-114628235D01*
X124544510Y-114589608D01*
X124542943Y-114558318D01*
X124541867Y-114533505D01*
X124541309Y-114514312D01*
X124541297Y-114499880D01*
X124541857Y-114489352D01*
X124543019Y-114481870D01*
X124544810Y-114476575D01*
X124547256Y-114472609D01*
X124550387Y-114469114D01*
X124551714Y-114467779D01*
X124561327Y-114460294D01*
X124570280Y-114458952D01*
X124572914Y-114459473D01*
X124581998Y-114464185D01*
X124589972Y-114473950D01*
X124597208Y-114489561D01*
X124604075Y-114511811D01*
X124610689Y-114540263D01*
X124621507Y-114585873D01*
X124634236Y-114629172D01*
X124648270Y-114668336D01*
X124663004Y-114701542D01*
X124666477Y-114708238D01*
X124691025Y-114748343D01*
X124722434Y-114789800D01*
X124760956Y-114832894D01*
X124806842Y-114877908D01*
X124852629Y-114918579D01*
X124881799Y-114943813D01*
X124905127Y-114964943D01*
X124923283Y-114982860D01*
X124936936Y-114998456D01*
X124946754Y-115012620D01*
X124953407Y-115026245D01*
X124957564Y-115040219D01*
X124959893Y-115055435D01*
X124960469Y-115062148D01*
X124959709Y-115106717D01*
X124951505Y-115151775D01*
X124936426Y-115196040D01*
X124915041Y-115238230D01*
X124887918Y-115277065D01*
X124855627Y-115311261D01*
X124846374Y-115319301D01*
X124809597Y-115347036D01*
X124769543Y-115371535D01*
X124725563Y-115393009D01*
X124677007Y-115411670D01*
X124623226Y-115427731D01*
X124563568Y-115441403D01*
X124497386Y-115452898D01*
X124424028Y-115462427D01*
X124399250Y-115465064D01*
X124380393Y-115466699D01*
X124355533Y-115468444D01*
X124326064Y-115470237D01*
X124293380Y-115472016D01*
X124258874Y-115473718D01*
X124223942Y-115475283D01*
X124189976Y-115476648D01*
X124158370Y-115477752D01*
X124130517Y-115478532D01*
X124107813Y-115478926D01*
X124091650Y-115478874D01*
X124089521Y-115478811D01*
X124080288Y-115478477D01*
X124064462Y-115477897D01*
X124043648Y-115477131D01*
X124019452Y-115476237D01*
X123993481Y-115475276D01*
X123993107Y-115475262D01*
X123890108Y-115469372D01*
X123793385Y-115459586D01*
X123703147Y-115445943D01*
X123619603Y-115428479D01*
X123542962Y-115407232D01*
X123474111Y-115382516D01*
X123408703Y-115352037D01*
X123348247Y-115315940D01*
X123293161Y-115274635D01*
X123243863Y-115228534D01*
X123200773Y-115178049D01*
X123164309Y-115123591D01*
X123134889Y-115065571D01*
X123124096Y-115038508D01*
X123112070Y-115002257D01*
X123102982Y-114966419D01*
X123096555Y-114929152D01*
X123092515Y-114888617D01*
X123090587Y-114842976D01*
X123090328Y-114812857D01*
X123090487Y-114797070D01*
X123090925Y-114773437D01*
X123091632Y-114742312D01*
X123092595Y-114704049D01*
X123093805Y-114659003D01*
X123095250Y-114607527D01*
X123096919Y-114549976D01*
X123098801Y-114486703D01*
X123100885Y-114418064D01*
X123103161Y-114344412D01*
X123105616Y-114266102D01*
X123108240Y-114183487D01*
X123111022Y-114096923D01*
X123113952Y-114006762D01*
X123117017Y-113913359D01*
X123120207Y-113817069D01*
X123123511Y-113718246D01*
X123126918Y-113617243D01*
X123130417Y-113514415D01*
X123133587Y-113422032D01*
X123136194Y-113345644D01*
X123138474Y-113276933D01*
X123140416Y-113215375D01*
X123142012Y-113160449D01*
X123143252Y-113111632D01*
X123144129Y-113068401D01*
X123144632Y-113030233D01*
X123144753Y-112996607D01*
X123144483Y-112966998D01*
X123143813Y-112940886D01*
X123142733Y-112917746D01*
X123141236Y-112897057D01*
X123139311Y-112878296D01*
X123136951Y-112860939D01*
X123134145Y-112844466D01*
X123130885Y-112828352D01*
X123127162Y-112812076D01*
X123122967Y-112795115D01*
X123122794Y-112794433D01*
X123110895Y-112757252D01*
X123095326Y-112723770D01*
X123076956Y-112695678D01*
X123065163Y-112682325D01*
X123039708Y-112660791D01*
X123011843Y-112644884D01*
X122980679Y-112634388D01*
X122945327Y-112629089D01*
X122904897Y-112628773D01*
X122860531Y-112632950D01*
X122839094Y-112635134D01*
X122823803Y-112634509D01*
X122812864Y-112630335D01*
X122804485Y-112621877D01*
X122796871Y-112608395D01*
X122795903Y-112606361D01*
X122786460Y-112579656D01*
X122784134Y-112555269D01*
X122788978Y-112533922D01*
X122790505Y-112530672D01*
X122803347Y-112509987D01*
X122821950Y-112486142D01*
X122845084Y-112460277D01*
X122871521Y-112433533D01*
X122900032Y-112407048D01*
X122929388Y-112381964D01*
X122958361Y-112359419D01*
X122985723Y-112340555D01*
X123010244Y-112326510D01*
X123010887Y-112326193D01*
X123023274Y-112320503D01*
X123033893Y-112317033D01*
X123045466Y-112315299D01*
X123060716Y-112314815D01*
X123074095Y-112314946D01*
G37*
G36*
X120779994Y-112359764D02*
G01*
X120794136Y-112361013D01*
X120805077Y-112363604D01*
X120815311Y-112367959D01*
X120817594Y-112369132D01*
X120836541Y-112381183D01*
X120853708Y-112396886D01*
X120869601Y-112417045D01*
X120884724Y-112442463D01*
X120899581Y-112473943D01*
X120914677Y-112512288D01*
X120923840Y-112538279D01*
X120933499Y-112565706D01*
X120946350Y-112600668D01*
X120962386Y-112643145D01*
X120981598Y-112693115D01*
X121003977Y-112750560D01*
X121029517Y-112815457D01*
X121058208Y-112887787D01*
X121090042Y-112967529D01*
X121125011Y-113054662D01*
X121163107Y-113149167D01*
X121204322Y-113251022D01*
X121248648Y-113360207D01*
X121296076Y-113476702D01*
X121346598Y-113600486D01*
X121396109Y-113721531D01*
X121427748Y-113798740D01*
X121456476Y-113868695D01*
X121482450Y-113931758D01*
X121505821Y-113988289D01*
X121526745Y-114038646D01*
X121545376Y-114083190D01*
X121561866Y-114122281D01*
X121576371Y-114156278D01*
X121589043Y-114185541D01*
X121600038Y-114210431D01*
X121609508Y-114231306D01*
X121617608Y-114248526D01*
X121624492Y-114262452D01*
X121630313Y-114273443D01*
X121635226Y-114281859D01*
X121637008Y-114284640D01*
X121652423Y-114304893D01*
X121667043Y-114317599D01*
X121681037Y-114322668D01*
X121694572Y-114320008D01*
X121707818Y-114309529D01*
X121720942Y-114291142D01*
X121734115Y-114264754D01*
X121747503Y-114230276D01*
X121749637Y-114224116D01*
X121761525Y-114187776D01*
X121774855Y-114144245D01*
X121789407Y-114094369D01*
X121804960Y-114038992D01*
X121821294Y-113978958D01*
X121838189Y-113915113D01*
X121855424Y-113848302D01*
X121872780Y-113779368D01*
X121890035Y-113709158D01*
X121906970Y-113638515D01*
X121923365Y-113568284D01*
X121938999Y-113499311D01*
X121941131Y-113489727D01*
X121964780Y-113380854D01*
X121985687Y-113279669D01*
X122003860Y-113186129D01*
X122019306Y-113100192D01*
X122032032Y-113021814D01*
X122042046Y-112950953D01*
X122049354Y-112887566D01*
X122053964Y-112831609D01*
X122055421Y-112802053D01*
X122056199Y-112775700D01*
X122056361Y-112755870D01*
X122055817Y-112740900D01*
X122054476Y-112729126D01*
X122052247Y-112718881D01*
X122050589Y-112713229D01*
X122039933Y-112688712D01*
X122024367Y-112669225D01*
X122002468Y-112653103D01*
X121996077Y-112649531D01*
X121980985Y-112641823D01*
X121967231Y-112635850D01*
X121953545Y-112631461D01*
X121938658Y-112628503D01*
X121921299Y-112626824D01*
X121900200Y-112626275D01*
X121874090Y-112626702D01*
X121841701Y-112627955D01*
X121822773Y-112628843D01*
X121783931Y-112630517D01*
X121753195Y-112631380D01*
X121730504Y-112631432D01*
X121715797Y-112630674D01*
X121710187Y-112629650D01*
X121694999Y-112620739D01*
X121685465Y-112606061D01*
X121681488Y-112585448D01*
X121681351Y-112579302D01*
X121684536Y-112556769D01*
X121693210Y-112531057D01*
X121706396Y-112503532D01*
X121723115Y-112475556D01*
X121742389Y-112448493D01*
X121763242Y-112423708D01*
X121784695Y-112402562D01*
X121805769Y-112386421D01*
X121825489Y-112376648D01*
X121827005Y-112376175D01*
X121835222Y-112374127D01*
X121844046Y-112372960D01*
X121854476Y-112372790D01*
X121867511Y-112373733D01*
X121884151Y-112375904D01*
X121905394Y-112379422D01*
X121932240Y-112384401D01*
X121965688Y-112390958D01*
X121981857Y-112394192D01*
X122043802Y-112405433D01*
X122113101Y-112415740D01*
X122189895Y-112425129D01*
X122274329Y-112433614D01*
X122366543Y-112441211D01*
X122466680Y-112447933D01*
X122538689Y-112451977D01*
X122565992Y-112453528D01*
X122591328Y-112455203D01*
X122613267Y-112456891D01*
X122630378Y-112458477D01*
X122641230Y-112459849D01*
X122643309Y-112460263D01*
X122664835Y-112469485D01*
X122682095Y-112484445D01*
X122694795Y-112503702D01*
X122702643Y-112525815D01*
X122705349Y-112549343D01*
X122702618Y-112572845D01*
X122694161Y-112594880D01*
X122679683Y-112614008D01*
X122675285Y-112618003D01*
X122662548Y-112627462D01*
X122649051Y-112634288D01*
X122632558Y-112639290D01*
X122610832Y-112643278D01*
X122602148Y-112644508D01*
X122555483Y-112652319D01*
X122516000Y-112662442D01*
X122482888Y-112675346D01*
X122455333Y-112691496D01*
X122432524Y-112711360D01*
X122413647Y-112735404D01*
X122399329Y-112761043D01*
X122391892Y-112777527D01*
X122383899Y-112797191D01*
X122375253Y-112820368D01*
X122365857Y-112847394D01*
X122355615Y-112878600D01*
X122344430Y-112914321D01*
X122332203Y-112954890D01*
X122318839Y-113000642D01*
X122304241Y-113051909D01*
X122288311Y-113109025D01*
X122270953Y-113172325D01*
X122252069Y-113242141D01*
X122231562Y-113318807D01*
X122209337Y-113402657D01*
X122185294Y-113494024D01*
X122176207Y-113528703D01*
X122116464Y-113758665D01*
X122059274Y-113982440D01*
X122004274Y-114201512D01*
X121951097Y-114417361D01*
X121899381Y-114631472D01*
X121848760Y-114845327D01*
X121798871Y-115060408D01*
X121788111Y-115107365D01*
X121776120Y-115159139D01*
X121765659Y-115202892D01*
X121756718Y-115238661D01*
X121749287Y-115266486D01*
X121743355Y-115286404D01*
X121738914Y-115298454D01*
X121738311Y-115299713D01*
X121718678Y-115329527D01*
X121692536Y-115354790D01*
X121660376Y-115375237D01*
X121622687Y-115390600D01*
X121579959Y-115400613D01*
X121545828Y-115404394D01*
X121503253Y-115403397D01*
X121463805Y-115394844D01*
X121427603Y-115378814D01*
X121394769Y-115355386D01*
X121365425Y-115324638D01*
X121339690Y-115286651D01*
X121326250Y-115260877D01*
X121323098Y-115253414D01*
X121317240Y-115238686D01*
X121308836Y-115217114D01*
X121298045Y-115189122D01*
X121285028Y-115155133D01*
X121269946Y-115115569D01*
X121252958Y-115070852D01*
X121234224Y-115021406D01*
X121213906Y-114967654D01*
X121192162Y-114910017D01*
X121169152Y-114848919D01*
X121145038Y-114784782D01*
X121119980Y-114718029D01*
X121094136Y-114649084D01*
X121067668Y-114578368D01*
X121066371Y-114574899D01*
X121025375Y-114465282D01*
X120987153Y-114363084D01*
X120951604Y-114268041D01*
X120918627Y-114179886D01*
X120888124Y-114098354D01*
X120859993Y-114023178D01*
X120834135Y-113954094D01*
X120810450Y-113890834D01*
X120788837Y-113833134D01*
X120769196Y-113780727D01*
X120751427Y-113733348D01*
X120735430Y-113690730D01*
X120721106Y-113652609D01*
X120708353Y-113618717D01*
X120697072Y-113588789D01*
X120687163Y-113562560D01*
X120678525Y-113539764D01*
X120671058Y-113520134D01*
X120664663Y-113503405D01*
X120659239Y-113489310D01*
X120654686Y-113477586D01*
X120650904Y-113467964D01*
X120647792Y-113460180D01*
X120645252Y-113453967D01*
X120643182Y-113449061D01*
X120641482Y-113445194D01*
X120640053Y-113442101D01*
X120638794Y-113439517D01*
X120638791Y-113439510D01*
X120627415Y-113420406D01*
X120614134Y-113403871D01*
X120600518Y-113391575D01*
X120588141Y-113385186D01*
X120587486Y-113385029D01*
X120572051Y-113385767D01*
X120555686Y-113394282D01*
X120538807Y-113410258D01*
X120521833Y-113433381D01*
X120520353Y-113435740D01*
X120515770Y-113444384D01*
X120508381Y-113459907D01*
X120498492Y-113481595D01*
X120486410Y-113508736D01*
X120472442Y-113540615D01*
X120456892Y-113576520D01*
X120440069Y-113615736D01*
X120422279Y-113657551D01*
X120403826Y-113701251D01*
X120385019Y-113746123D01*
X120366163Y-113791453D01*
X120347565Y-113836528D01*
X120333636Y-113870555D01*
X120298576Y-113957167D01*
X120262583Y-114047300D01*
X120225974Y-114140109D01*
X120189066Y-114234746D01*
X120152179Y-114330367D01*
X120115628Y-114426124D01*
X120079733Y-114521171D01*
X120044811Y-114614662D01*
X120011180Y-114705750D01*
X119979157Y-114793590D01*
X119949060Y-114877335D01*
X119921208Y-114956138D01*
X119895917Y-115029154D01*
X119873505Y-115095536D01*
X119871885Y-115100416D01*
X119859424Y-115137787D01*
X119847360Y-115173550D01*
X119836012Y-115206782D01*
X119825704Y-115236559D01*
X119816756Y-115261957D01*
X119809490Y-115282053D01*
X119804228Y-115295923D01*
X119801900Y-115301450D01*
X119788922Y-115322942D01*
X119769539Y-115346366D01*
X119761467Y-115354732D01*
X119732967Y-115379531D01*
X119703152Y-115397677D01*
X119670597Y-115409717D01*
X119633877Y-115416199D01*
X119597196Y-115417740D01*
X119576601Y-115416999D01*
X119556300Y-115415243D01*
X119539512Y-115412790D01*
X119533900Y-115411526D01*
X119501714Y-115399939D01*
X119472978Y-115383150D01*
X119447246Y-115360636D01*
X119424074Y-115331877D01*
X119403015Y-115296350D01*
X119383624Y-115253534D01*
X119371653Y-115221400D01*
X119365730Y-115203934D01*
X119360296Y-115186871D01*
X119355163Y-115169367D01*
X119350142Y-115150576D01*
X119345043Y-115129655D01*
X119339678Y-115105759D01*
X119333856Y-115078045D01*
X119327389Y-115045668D01*
X119320087Y-115007784D01*
X119311762Y-114963549D01*
X119302224Y-114912118D01*
X119301699Y-114909272D01*
X119286578Y-114827678D01*
X119270685Y-114742622D01*
X119254138Y-114654704D01*
X119237055Y-114564525D01*
X119219555Y-114472686D01*
X119201754Y-114379788D01*
X119183771Y-114286433D01*
X119165724Y-114193221D01*
X119147730Y-114100753D01*
X119129908Y-114009631D01*
X119112375Y-113920455D01*
X119095250Y-113833827D01*
X119078650Y-113750347D01*
X119062693Y-113670617D01*
X119047498Y-113595238D01*
X119033181Y-113524810D01*
X119019862Y-113459935D01*
X119007657Y-113401214D01*
X118996685Y-113349247D01*
X118987064Y-113304637D01*
X118985430Y-113297187D01*
X118966481Y-113212476D01*
X118948539Y-113135536D01*
X118931424Y-113066016D01*
X118914957Y-113003568D01*
X118898958Y-112947842D01*
X118883247Y-112898490D01*
X118867644Y-112855162D01*
X118851970Y-112817509D01*
X118836044Y-112785181D01*
X118819688Y-112757830D01*
X118802721Y-112735106D01*
X118784964Y-112716660D01*
X118766237Y-112702144D01*
X118746359Y-112691207D01*
X118725152Y-112683501D01*
X118702436Y-112678676D01*
X118678031Y-112676384D01*
X118665712Y-112676081D01*
X118644262Y-112676549D01*
X118622240Y-112677986D01*
X118603311Y-112680121D01*
X118597500Y-112681096D01*
X118576794Y-112683623D01*
X118561172Y-112681369D01*
X118548485Y-112673425D01*
X118536581Y-112658881D01*
X118533389Y-112653969D01*
X118518566Y-112625917D01*
X118511169Y-112600461D01*
X118511048Y-112577036D01*
X118511937Y-112572303D01*
X118520601Y-112546416D01*
X118535076Y-112517843D01*
X118554142Y-112488131D01*
X118576581Y-112458825D01*
X118601175Y-112431473D01*
X118626704Y-112407623D01*
X118651950Y-112388819D01*
X118660530Y-112383697D01*
X118670669Y-112378360D01*
X118679383Y-112374950D01*
X118688910Y-112373088D01*
X118701486Y-112372398D01*
X118719351Y-112372501D01*
X118726106Y-112372631D01*
X118763562Y-112375135D01*
X118806166Y-112381290D01*
X118854515Y-112391207D01*
X118909206Y-112404998D01*
X118930338Y-112410869D01*
X118987723Y-112426808D01*
X119039737Y-112440390D01*
X119087730Y-112451797D01*
X119133050Y-112461210D01*
X119177046Y-112468811D01*
X119221066Y-112474781D01*
X119266458Y-112479301D01*
X119314572Y-112482554D01*
X119366756Y-112484721D01*
X119424358Y-112485984D01*
X119488728Y-112486523D01*
X119492412Y-112486535D01*
X119536015Y-112486674D01*
X119572246Y-112486871D01*
X119601936Y-112487232D01*
X119625917Y-112487860D01*
X119645024Y-112488861D01*
X119660087Y-112490340D01*
X119671940Y-112492401D01*
X119681414Y-112495149D01*
X119689343Y-112498690D01*
X119696559Y-112503128D01*
X119703894Y-112508569D01*
X119710840Y-112514056D01*
X119728909Y-112531681D01*
X119741981Y-112551265D01*
X119749656Y-112571424D01*
X119751531Y-112590772D01*
X119747205Y-112607924D01*
X119740785Y-112617340D01*
X119733703Y-112624166D01*
X119726013Y-112629176D01*
X119716066Y-112632888D01*
X119702212Y-112635816D01*
X119682802Y-112638478D01*
X119667938Y-112640148D01*
X119628931Y-112645912D01*
X119596481Y-112654338D01*
X119569226Y-112665929D01*
X119545807Y-112681189D01*
X119536978Y-112688641D01*
X119520265Y-112707267D01*
X119507502Y-112729687D01*
X119498648Y-112756402D01*
X119493658Y-112787915D01*
X119492492Y-112824727D01*
X119495106Y-112867342D01*
X119501457Y-112916260D01*
X119511503Y-112971985D01*
X119512492Y-112976886D01*
X119517626Y-113002436D01*
X119523915Y-113034226D01*
X119531004Y-113070429D01*
X119538538Y-113109220D01*
X119546160Y-113148774D01*
X119553517Y-113187263D01*
X119556027Y-113200485D01*
X119572116Y-113284627D01*
X119588700Y-113369907D01*
X119605608Y-113455508D01*
X119622669Y-113540610D01*
X119639713Y-113624394D01*
X119656569Y-113706043D01*
X119673066Y-113784737D01*
X119689034Y-113859657D01*
X119704303Y-113929985D01*
X119718700Y-113994903D01*
X119732057Y-114053591D01*
X119744202Y-114105231D01*
X119747151Y-114117445D01*
X119759401Y-114167435D01*
X119770125Y-114209995D01*
X119779558Y-114245709D01*
X119787938Y-114275160D01*
X119795500Y-114298933D01*
X119802480Y-114317610D01*
X119809116Y-114331777D01*
X119815643Y-114342016D01*
X119822298Y-114348912D01*
X119829316Y-114353049D01*
X119836935Y-114355009D01*
X119843467Y-114355403D01*
X119859230Y-114352287D01*
X119874376Y-114342635D01*
X119889370Y-114325987D01*
X119904671Y-114301885D01*
X119912669Y-114286723D01*
X119921314Y-114268474D01*
X119932718Y-114242755D01*
X119946792Y-114209789D01*
X119963450Y-114169802D01*
X119982602Y-114123018D01*
X120004162Y-114069663D01*
X120028041Y-114009961D01*
X120054151Y-113944136D01*
X120082405Y-113872415D01*
X120112714Y-113795021D01*
X120144991Y-113712179D01*
X120179148Y-113624115D01*
X120215096Y-113531053D01*
X120252748Y-113433217D01*
X120292017Y-113330834D01*
X120332813Y-113224126D01*
X120375049Y-113113321D01*
X120418638Y-112998641D01*
X120463491Y-112880313D01*
X120491365Y-112806623D01*
X120511954Y-112752255D01*
X120531652Y-112700455D01*
X120550241Y-112651783D01*
X120567506Y-112606798D01*
X120583229Y-112566057D01*
X120597193Y-112530121D01*
X120609184Y-112499547D01*
X120618983Y-112474896D01*
X120626374Y-112456726D01*
X120631142Y-112445596D01*
X120631632Y-112444536D01*
X120649788Y-112413230D01*
X120671375Y-112388845D01*
X120696029Y-112371786D01*
X120697356Y-112371124D01*
X120709862Y-112365447D01*
X120720945Y-112361958D01*
X120733366Y-112360144D01*
X120749889Y-112359489D01*
X120760156Y-112359436D01*
X120779994Y-112359764D01*
G37*
D10*
X145392600Y-88595200D03*
D11*
X143357600Y-88595200D03*
X139807600Y-88595200D03*
D12*
X137772600Y-88595200D03*
D13*
X212215000Y-133550000D03*
X214425000Y-133550000D03*
D14*
X213325000Y-131400000D03*
X213325000Y-128400000D03*
D13*
X212215000Y-126250000D03*
X214425000Y-126250000D03*
D15*
X211565000Y-132150000D03*
X211565000Y-129150000D03*
X211565000Y-127650000D03*
D16*
X193752252Y-92506800D03*
D17*
X79451200Y-105765600D03*
D18*
X80131200Y-110465600D03*
X80721200Y-108305600D03*
X81931200Y-111515600D03*
X81991200Y-110845600D03*
D19*
X84531200Y-105765600D03*
D18*
X87071200Y-110845600D03*
X87131200Y-111515600D03*
X88341200Y-108305600D03*
X88931200Y-110465600D03*
D17*
X89611200Y-105765600D03*
D20*
X91359600Y-110655600D03*
D21*
X77675300Y-109913100D03*
D22*
X187385743Y-124934765D03*
X186772024Y-126193076D03*
X181828657Y-123782035D03*
X182442376Y-122523724D03*
D23*
X144228000Y-73823600D03*
X144228000Y-75223600D03*
X138728000Y-75223600D03*
X138728000Y-73823600D03*
X119779600Y-96559600D03*
X119779600Y-95159600D03*
X125279600Y-95159600D03*
X125279600Y-96559600D03*
D10*
X164185600Y-72034400D03*
D11*
X162150600Y-72034400D03*
X158600600Y-72034400D03*
D12*
X156565600Y-72034400D03*
D17*
X79451200Y-86766400D03*
D18*
X80131200Y-91466400D03*
X80721200Y-89306400D03*
X81931200Y-92516400D03*
X81991200Y-91846400D03*
D19*
X84531200Y-86766400D03*
D18*
X87071200Y-91846400D03*
X87131200Y-92516400D03*
X88341200Y-89306400D03*
X88931200Y-91466400D03*
D17*
X89611200Y-86766400D03*
D20*
X91359600Y-91656400D03*
D21*
X77675300Y-90913900D03*
D10*
X183184800Y-93370400D03*
D11*
X181149800Y-93370400D03*
X177599800Y-93370400D03*
D12*
X175564800Y-93370400D03*
D24*
X205180000Y-90586380D03*
X205180000Y-89585620D03*
D23*
X81730400Y-63336400D03*
X81730400Y-61936400D03*
X87230400Y-61936400D03*
X87230400Y-63336400D03*
D25*
X181834005Y-138525394D03*
D26*
X180004959Y-137633309D03*
X176814241Y-136077091D03*
D12*
X174985195Y-135185006D03*
D27*
X188022000Y-83268000D03*
X189422000Y-83268000D03*
X189422000Y-77768000D03*
X188022000Y-77768000D03*
D23*
X176777200Y-60948800D03*
X176777200Y-59548800D03*
X182277200Y-59548800D03*
X182277200Y-60948800D03*
D28*
X189714824Y-120159676D03*
X190328543Y-118901365D03*
X185385176Y-116490324D03*
X184771457Y-117748635D03*
D24*
X201217600Y-90586380D03*
X201217600Y-89585620D03*
D23*
X119779600Y-58612000D03*
X119779600Y-57212000D03*
X125279600Y-57212000D03*
X125279600Y-58612000D03*
D17*
X98450400Y-67818000D03*
D18*
X99130400Y-72518000D03*
X99720400Y-70358000D03*
X100930400Y-73568000D03*
X100990400Y-72898000D03*
D19*
X103530400Y-67818000D03*
D18*
X106070400Y-72898000D03*
X106130400Y-73568000D03*
X107340400Y-70358000D03*
X107930400Y-72518000D03*
D17*
X108610400Y-67818000D03*
D20*
X110358800Y-72708000D03*
D21*
X96674500Y-71965500D03*
D10*
X107238800Y-114604800D03*
D11*
X105203800Y-114604800D03*
X101653800Y-114604800D03*
D12*
X99618800Y-114604800D03*
D10*
X145237200Y-107645200D03*
D11*
X143202200Y-107645200D03*
X139652200Y-107645200D03*
D12*
X137617200Y-107645200D03*
D17*
X174447200Y-65379600D03*
D18*
X175127200Y-70079600D03*
X175717200Y-67919600D03*
X176927200Y-71129600D03*
X176987200Y-70459600D03*
D19*
X179527200Y-65379600D03*
D18*
X182067200Y-70459600D03*
X182127200Y-71129600D03*
X183337200Y-67919600D03*
X183927200Y-70079600D03*
D17*
X184607200Y-65379600D03*
D20*
X186355600Y-70269600D03*
D21*
X172671300Y-69527100D03*
D29*
X164018337Y-131401333D03*
D30*
X162035494Y-130943557D03*
X158576480Y-130144981D03*
D12*
X156593637Y-129687205D03*
D17*
X79400400Y-67767200D03*
D18*
X80080400Y-72467200D03*
X80670400Y-70307200D03*
X81880400Y-73517200D03*
X81940400Y-72847200D03*
D19*
X84480400Y-67767200D03*
D18*
X87020400Y-72847200D03*
X87080400Y-73517200D03*
X88290400Y-70307200D03*
X88880400Y-72467200D03*
D17*
X89560400Y-67767200D03*
D20*
X91308800Y-72657200D03*
D21*
X77624500Y-71914700D03*
D10*
X164134800Y-109982000D03*
D11*
X162099800Y-109982000D03*
X158549800Y-109982000D03*
D12*
X156514800Y-109982000D03*
D17*
X155397200Y-100990400D03*
D18*
X156077200Y-105690400D03*
X156667200Y-103530400D03*
X157877200Y-106740400D03*
X157937200Y-106070400D03*
D19*
X160477200Y-100990400D03*
D18*
X163017200Y-106070400D03*
X163077200Y-106740400D03*
X164287200Y-103530400D03*
X164877200Y-105690400D03*
D17*
X165557200Y-100990400D03*
D20*
X167305600Y-105880400D03*
D21*
X153621300Y-105137900D03*
D17*
X136448800Y-60604400D03*
D18*
X137128800Y-65304400D03*
X137718800Y-63144400D03*
X138928800Y-66354400D03*
X138988800Y-65684400D03*
D19*
X141528800Y-60604400D03*
D18*
X144068800Y-65684400D03*
X144128800Y-66354400D03*
X145338800Y-63144400D03*
X145928800Y-65304400D03*
D17*
X146608800Y-60604400D03*
D20*
X148357200Y-65494400D03*
D21*
X134672900Y-64751900D03*
D10*
X107185000Y-95758000D03*
D11*
X105150000Y-95758000D03*
X101600000Y-95758000D03*
D12*
X99565000Y-95758000D03*
D10*
X205130400Y-117246400D03*
D11*
X203095400Y-117246400D03*
X199545400Y-117246400D03*
D12*
X197510400Y-117246400D03*
D31*
X209735000Y-117150000D03*
X209735000Y-124160000D03*
D32*
X212225000Y-118400000D03*
X212225000Y-122900000D03*
D17*
X136448800Y-119532400D03*
D18*
X137128800Y-124232400D03*
X137718800Y-122072400D03*
X138928800Y-125282400D03*
X138988800Y-124612400D03*
D19*
X141528800Y-119532400D03*
D18*
X144068800Y-124612400D03*
X144128800Y-125282400D03*
X145338800Y-122072400D03*
X145928800Y-124232400D03*
D17*
X146608800Y-119532400D03*
D20*
X148357200Y-124422400D03*
D21*
X134672900Y-123679900D03*
D23*
X100780400Y-63387200D03*
X100780400Y-61987200D03*
X106280400Y-61987200D03*
X106280400Y-63387200D03*
D16*
X210598652Y-92506800D03*
D10*
X183232600Y-112369600D03*
D11*
X181197600Y-112369600D03*
X177647600Y-112369600D03*
D12*
X175612600Y-112369600D03*
D16*
X94040000Y-96774000D03*
D10*
X88191800Y-95758000D03*
D11*
X86156800Y-95758000D03*
X82606800Y-95758000D03*
D12*
X80571800Y-95758000D03*
D17*
X155397200Y-81991200D03*
D18*
X156077200Y-86691200D03*
X156667200Y-84531200D03*
X157877200Y-87741200D03*
X157937200Y-87071200D03*
D19*
X160477200Y-81991200D03*
D18*
X163017200Y-87071200D03*
X163077200Y-87741200D03*
X164287200Y-84531200D03*
X164877200Y-86691200D03*
D17*
X165557200Y-81991200D03*
D20*
X167305600Y-86881200D03*
D21*
X153621300Y-86138700D03*
D33*
X166412983Y-116827356D03*
X166098052Y-118191474D03*
X160739017Y-116954244D03*
X161053948Y-115590126D03*
D23*
X106236400Y-80946800D03*
X106236400Y-82346800D03*
X100736400Y-82346800D03*
X100736400Y-80946800D03*
D24*
X203198800Y-90586380D03*
X203198800Y-89585620D03*
D23*
X148250000Y-56675000D03*
X148250000Y-58075000D03*
X153750000Y-58075000D03*
X153750000Y-56675000D03*
D10*
X145186400Y-69596000D03*
D11*
X143151400Y-69596000D03*
X139601400Y-69596000D03*
D12*
X137566400Y-69596000D03*
D10*
X145237200Y-128371600D03*
D11*
X143202200Y-128371600D03*
X139652200Y-128371600D03*
D12*
X137617200Y-128371600D03*
D23*
X125279600Y-76160400D03*
X125279600Y-77560400D03*
X119779600Y-77560400D03*
X119779600Y-76160400D03*
D16*
X170200000Y-94575000D03*
D23*
X138778800Y-94222800D03*
X138778800Y-92822800D03*
X144278800Y-92822800D03*
X144278800Y-94222800D03*
X138778800Y-56173600D03*
X138778800Y-54773600D03*
X144278800Y-54773600D03*
X144278800Y-56173600D03*
D16*
X94030000Y-77724000D03*
D10*
X164335000Y-91135200D03*
D11*
X162300000Y-91135200D03*
X158750000Y-91135200D03*
D12*
X156715000Y-91135200D03*
D17*
X98450400Y-105765600D03*
D18*
X99130400Y-110465600D03*
X99720400Y-108305600D03*
X100930400Y-111515600D03*
X100990400Y-110845600D03*
D19*
X103530400Y-105765600D03*
D18*
X106070400Y-110845600D03*
X106130400Y-111515600D03*
X107340400Y-108305600D03*
X107930400Y-110465600D03*
D17*
X108610400Y-105765600D03*
D20*
X110358800Y-110655600D03*
D21*
X96674500Y-109913100D03*
D17*
X174396400Y-84378800D03*
D18*
X175076400Y-89078800D03*
X175666400Y-86918800D03*
X176876400Y-90128800D03*
X176936400Y-89458800D03*
D19*
X179476400Y-84378800D03*
D18*
X182016400Y-89458800D03*
X182076400Y-90128800D03*
X183286400Y-86918800D03*
X183876400Y-89078800D03*
D17*
X184556400Y-84378800D03*
D20*
X186304800Y-89268800D03*
D21*
X172620500Y-88526300D03*
D10*
X126136400Y-90881200D03*
D11*
X124101400Y-90881200D03*
X120551400Y-90881200D03*
D12*
X118516400Y-90881200D03*
D17*
X196342000Y-108254800D03*
D18*
X197022000Y-112954800D03*
X197612000Y-110794800D03*
X198822000Y-114004800D03*
X198882000Y-113334800D03*
D19*
X201422000Y-108254800D03*
D18*
X203962000Y-113334800D03*
X204022000Y-114004800D03*
X205232000Y-110794800D03*
X205822000Y-112954800D03*
D17*
X206502000Y-108254800D03*
D20*
X208250400Y-113144800D03*
D21*
X194566100Y-112402300D03*
D23*
X163227200Y-76160400D03*
X163227200Y-77560400D03*
X157727200Y-77560400D03*
X157727200Y-76160400D03*
X198672000Y-103824000D03*
X198672000Y-102424000D03*
X204172000Y-102424000D03*
X204172000Y-103824000D03*
X157778000Y-58612000D03*
X157778000Y-57212000D03*
X163278000Y-57212000D03*
X163278000Y-58612000D03*
D17*
X174447200Y-103378000D03*
D18*
X175127200Y-108078000D03*
X175717200Y-105918000D03*
X176927200Y-109128000D03*
X176987200Y-108458000D03*
D19*
X179527200Y-103378000D03*
D18*
X182067200Y-108458000D03*
X182127200Y-109128000D03*
X183337200Y-105918000D03*
X183927200Y-108078000D03*
D17*
X184607200Y-103378000D03*
D20*
X186355600Y-108268000D03*
D21*
X172671300Y-107525500D03*
D17*
X136448800Y-98653600D03*
D18*
X137128800Y-103353600D03*
X137718800Y-101193600D03*
X138928800Y-104403600D03*
X138988800Y-103733600D03*
D19*
X141528800Y-98653600D03*
D18*
X144068800Y-103733600D03*
X144128800Y-104403600D03*
X145338800Y-101193600D03*
X145928800Y-103353600D03*
D17*
X146608800Y-98653600D03*
D20*
X148357200Y-103543600D03*
D21*
X134672900Y-102801100D03*
D23*
X91250000Y-64075000D03*
X91250000Y-65475000D03*
X96750000Y-65475000D03*
X96750000Y-64075000D03*
X155550000Y-115225000D03*
X155550000Y-113825000D03*
X150050000Y-113825000D03*
X150050000Y-115225000D03*
X176777200Y-98947200D03*
X176777200Y-97547200D03*
X182277200Y-97547200D03*
X182277200Y-98947200D03*
D17*
X196138800Y-137058400D03*
D18*
X193709453Y-141138924D03*
X195527301Y-139831588D03*
X194447529Y-143087704D03*
X194915803Y-142604776D03*
D19*
X200086701Y-140255348D03*
D18*
X198863704Y-145801723D03*
X198488688Y-146360170D03*
X201449153Y-144627009D03*
X200548337Y-146676944D03*
D17*
X204034602Y-143452296D03*
D34*
X202315988Y-148352843D03*
D35*
X192148560Y-139164003D03*
D36*
X205879276Y-137432229D03*
X204998227Y-138520233D03*
X200723924Y-135058971D03*
X201604973Y-133970967D03*
D37*
X197484568Y-149524953D03*
D38*
X195903076Y-148244286D03*
X193144208Y-146010198D03*
D12*
X191562716Y-144729531D03*
D23*
X144278800Y-113701600D03*
X144278800Y-115101600D03*
X138778800Y-115101600D03*
X138778800Y-113701600D03*
X87281200Y-80935600D03*
X87281200Y-82335600D03*
X81781200Y-82335600D03*
X81781200Y-80935600D03*
D16*
X192650000Y-132370000D03*
D23*
X157727200Y-96559600D03*
X157727200Y-95159600D03*
X163227200Y-95159600D03*
X163227200Y-96559600D03*
D16*
X170230800Y-75438000D03*
D12*
X198374000Y-92506800D03*
X200914000Y-92506800D03*
X203454000Y-92506800D03*
X205994000Y-92506800D03*
D10*
X126238000Y-72034400D03*
D11*
X124203000Y-72034400D03*
X120653000Y-72034400D03*
D12*
X118618000Y-72034400D03*
D10*
X88239600Y-114604800D03*
D11*
X86204600Y-114604800D03*
X82654600Y-114604800D03*
D12*
X80619600Y-114604800D03*
D23*
X100780400Y-101334800D03*
X100780400Y-99934800D03*
X106280400Y-99934800D03*
X106280400Y-101334800D03*
X81781200Y-101334800D03*
X81781200Y-99934800D03*
X87281200Y-99934800D03*
X87281200Y-101334800D03*
D17*
X177800000Y-126746000D03*
D18*
X176350836Y-131268424D03*
X177828006Y-129585668D03*
X177508375Y-133001226D03*
X177856012Y-132425336D03*
D19*
X182365874Y-128972925D03*
D18*
X182421885Y-134652261D03*
X182182104Y-135280756D03*
X184676817Y-132926056D03*
X184260223Y-135126090D03*
D17*
X186931748Y-131199850D03*
D39*
X186359564Y-136361401D03*
D40*
X174385688Y-129695245D03*
D10*
X126238000Y-109931200D03*
D11*
X124203000Y-109931200D03*
X120653000Y-109931200D03*
D12*
X118618000Y-109931200D03*
D17*
X136398000Y-79654400D03*
D18*
X137078000Y-84354400D03*
X137668000Y-82194400D03*
X138878000Y-85404400D03*
X138938000Y-84734400D03*
D19*
X141478000Y-79654400D03*
D18*
X144018000Y-84734400D03*
X144078000Y-85404400D03*
X145288000Y-82194400D03*
X145878000Y-84354400D03*
D17*
X146558000Y-79654400D03*
D20*
X148306400Y-84544400D03*
D21*
X134622100Y-83801900D03*
D23*
X91300000Y-102075000D03*
X91300000Y-103475000D03*
X96800000Y-103475000D03*
X96800000Y-102075000D03*
X182226400Y-78548000D03*
X182226400Y-79948000D03*
X176726400Y-79948000D03*
X176726400Y-78548000D03*
D10*
X183184800Y-74425000D03*
D11*
X181149800Y-74425000D03*
X177599800Y-74425000D03*
D12*
X175564800Y-74425000D03*
D17*
X155448000Y-63042800D03*
D18*
X156128000Y-67742800D03*
X156718000Y-65582800D03*
X157928000Y-68792800D03*
X157988000Y-68122800D03*
D19*
X160528000Y-63042800D03*
D18*
X163068000Y-68122800D03*
X163128000Y-68792800D03*
X164338000Y-65582800D03*
X164928000Y-67742800D03*
D17*
X165608000Y-63042800D03*
D20*
X167356400Y-67932800D03*
D21*
X153672100Y-67190300D03*
D10*
X88235000Y-76800000D03*
D11*
X86200000Y-76800000D03*
X82650000Y-76800000D03*
D12*
X80615000Y-76800000D03*
D41*
X203600000Y-122950000D03*
X203600000Y-124950000D03*
D42*
X197850000Y-120600000D03*
X197850000Y-127300000D03*
D17*
X117449600Y-63042800D03*
D18*
X118129600Y-67742800D03*
X118719600Y-65582800D03*
X119929600Y-68792800D03*
X119989600Y-68122800D03*
D19*
X122529600Y-63042800D03*
D18*
X125069600Y-68122800D03*
X125129600Y-68792800D03*
X126339600Y-65582800D03*
X126929600Y-67742800D03*
D17*
X127609600Y-63042800D03*
D20*
X129358000Y-67932800D03*
D21*
X115673700Y-67190300D03*
D17*
X117449600Y-81991200D03*
D18*
X118129600Y-86691200D03*
X118719600Y-84531200D03*
X119929600Y-87741200D03*
X119989600Y-87071200D03*
D19*
X122529600Y-81991200D03*
D18*
X125069600Y-87071200D03*
X125129600Y-87741200D03*
X126339600Y-84531200D03*
X126929600Y-86691200D03*
D17*
X127609600Y-81991200D03*
D20*
X129358000Y-86881200D03*
D21*
X115673700Y-86138700D03*
D17*
X117449600Y-100990400D03*
D18*
X118129600Y-105690400D03*
X118719600Y-103530400D03*
X119929600Y-106740400D03*
X119989600Y-106070400D03*
D19*
X122529600Y-100990400D03*
D18*
X125069600Y-106070400D03*
X125129600Y-106740400D03*
X126339600Y-103530400D03*
X126929600Y-105690400D03*
D17*
X127609600Y-100990400D03*
D20*
X129358000Y-105880400D03*
D21*
X115673700Y-105137900D03*
D10*
X107238800Y-76850000D03*
D11*
X105203800Y-76850000D03*
X101653800Y-76850000D03*
D12*
X99618800Y-76850000D03*
D17*
X98399600Y-86766400D03*
D18*
X99079600Y-91466400D03*
X99669600Y-89306400D03*
X100879600Y-92516400D03*
X100939600Y-91846400D03*
D19*
X103479600Y-86766400D03*
D18*
X106019600Y-91846400D03*
X106079600Y-92516400D03*
X107289600Y-89306400D03*
X107879600Y-91466400D03*
D17*
X108559600Y-86766400D03*
D20*
X110308000Y-91656400D03*
D21*
X96623700Y-90913900D03*
D17*
X157480000Y-120751600D03*
D18*
X157085302Y-125484106D03*
X158146074Y-123512187D03*
X158602969Y-126912106D03*
X158812149Y-126272775D03*
D19*
X162429800Y-121894351D03*
D18*
X163761949Y-127415527D03*
X163669694Y-128081852D03*
X165570774Y-125226314D03*
X165659758Y-127463675D03*
D17*
X167379600Y-123037102D03*
D43*
X167983178Y-128195076D03*
D44*
X154816632Y-124393309D03*
D24*
X199236400Y-90586380D03*
X199236400Y-89585620D03*
D45*
X210448652Y-60833000D03*
X193902252Y-59563000D03*
X210448652Y-63373000D03*
X193902252Y-62103000D03*
X210448652Y-65913000D03*
X193902252Y-64643000D03*
X210448652Y-68453000D03*
X193902252Y-67183000D03*
X210448652Y-70993000D03*
X193902252Y-69723000D03*
X210448652Y-73533000D03*
X193902252Y-72263000D03*
X210448652Y-76073000D03*
X193902252Y-74803000D03*
X210448652Y-78613000D03*
X193902252Y-77343000D03*
X210448652Y-81153000D03*
X193902252Y-79883000D03*
X210448652Y-83693000D03*
X193902252Y-82423000D03*
X210448652Y-86233000D03*
X193902252Y-84963000D03*
X210448652Y-88773000D03*
X193902252Y-87503000D03*
X209122252Y-87503000D03*
X195208652Y-88773000D03*
X209122252Y-84963000D03*
X195208652Y-86233000D03*
X209122252Y-82423000D03*
X195208652Y-83693000D03*
X209122252Y-79883000D03*
X195208652Y-81153000D03*
X209122252Y-77343000D03*
X195208652Y-78613000D03*
X209122252Y-74803000D03*
X195208652Y-76073000D03*
X209122252Y-72263000D03*
X195208652Y-73533000D03*
X209122252Y-69723000D03*
X195208652Y-70993000D03*
X209122252Y-67183000D03*
X195208652Y-68453000D03*
X209122252Y-64643000D03*
X195208652Y-65913000D03*
X209122252Y-62103000D03*
X195208652Y-63373000D03*
X209122252Y-59563000D03*
X195208652Y-60833000D03*
M02*
