M48
; DRILL file {KiCad 7.0.8} date 2023 October 25, Wednesday 23:56:00
; FORMAT={-:-/ absolute / metric / decimal}
; #@! TF.CreationDate,2023-10-25T23:56:00+08:00
; #@! TF.GenerationSoftware,Kicad,Pcbnew,7.0.8
; #@! TF.FileFunction,NonPlated,1,2,NPTH
FMAT,2
METRIC
; #@! TA.AperFunction,NonPlated,NPTH,ComponentDrill
T1C0.900
; #@! TA.AperFunction,NonPlated,NPTH,ComponentDrill
T2C1.700
; #@! TA.AperFunction,NonPlated,NPTH,ComponentDrill
T3C3.000
; #@! TA.AperFunction,NonPlated,NPTH,ComponentDrill
T4C5.250
%
G90
G05
T1
X213.325Y-128.4
X213.325Y-131.4
T2
X79.4Y-67.767
X79.451Y-86.766
X79.451Y-105.766
X89.56Y-67.767
X89.611Y-86.766
X89.611Y-105.766
X98.4Y-86.766
X98.45Y-67.818
X98.45Y-105.766
X108.56Y-86.766
X108.61Y-67.818
X108.61Y-105.766
X117.45Y-63.043
X117.45Y-81.991
X117.45Y-100.99
X127.61Y-63.043
X127.61Y-81.991
X127.61Y-100.99
X136.398Y-79.654
X136.449Y-60.604
X136.449Y-98.654
X136.449Y-119.532
X146.558Y-79.654
X146.609Y-60.604
X146.609Y-98.654
X146.609Y-119.532
X155.397Y-81.991
X155.397Y-100.99
X155.448Y-63.043
X157.48Y-120.752
X165.557Y-81.991
X165.557Y-100.99
X165.608Y-63.043
X167.38Y-123.037
X174.396Y-84.379
X174.447Y-65.38
X174.447Y-103.378
X177.8Y-126.746
X184.556Y-84.379
X184.607Y-65.38
X184.607Y-103.378
X186.932Y-131.2
X196.139Y-137.058
X196.342Y-108.255
X204.035Y-143.452
X206.502Y-108.255
T3
X80.08Y-72.467
X80.131Y-91.466
X80.131Y-110.466
X80.67Y-70.307
X80.721Y-89.306
X80.721Y-108.306
X81.88Y-73.517
X81.931Y-92.516
X81.931Y-111.516
X81.94Y-72.847
X81.991Y-91.846
X81.991Y-110.846
X87.02Y-72.847
X87.071Y-91.846
X87.071Y-110.846
X87.08Y-73.517
X87.131Y-92.516
X87.131Y-111.516
X88.29Y-70.307
X88.341Y-89.306
X88.341Y-108.306
X88.88Y-72.467
X88.931Y-91.466
X88.931Y-110.466
X99.08Y-91.466
X99.13Y-72.518
X99.13Y-110.466
X99.67Y-89.306
X99.72Y-70.358
X99.72Y-108.306
X100.88Y-92.516
X100.93Y-73.568
X100.93Y-111.516
X100.94Y-91.846
X100.99Y-72.898
X100.99Y-110.846
X106.02Y-91.846
X106.07Y-72.898
X106.07Y-110.846
X106.08Y-92.516
X106.13Y-73.568
X106.13Y-111.516
X107.29Y-89.306
X107.34Y-70.358
X107.34Y-108.306
X107.88Y-91.466
X107.93Y-72.518
X107.93Y-110.466
X118.13Y-67.743
X118.13Y-86.691
X118.13Y-105.69
X118.72Y-65.583
X118.72Y-84.531
X118.72Y-103.53
X119.93Y-68.793
X119.93Y-87.741
X119.93Y-106.74
X119.99Y-68.123
X119.99Y-87.071
X119.99Y-106.07
X125.07Y-68.123
X125.07Y-87.071
X125.07Y-106.07
X125.13Y-68.793
X125.13Y-87.741
X125.13Y-106.74
X126.34Y-65.583
X126.34Y-84.531
X126.34Y-103.53
X126.93Y-67.743
X126.93Y-86.691
X126.93Y-105.69
X137.078Y-84.354
X137.129Y-65.304
X137.129Y-103.354
X137.129Y-124.232
X137.668Y-82.194
X137.719Y-63.144
X137.719Y-101.194
X137.719Y-122.072
X138.878Y-85.404
X138.929Y-66.354
X138.929Y-104.404
X138.929Y-125.282
X138.938Y-84.734
X138.989Y-65.684
X138.989Y-103.734
X138.989Y-124.612
X144.018Y-84.734
X144.069Y-65.684
X144.069Y-103.734
X144.069Y-124.612
X144.078Y-85.404
X144.129Y-66.354
X144.129Y-104.404
X144.129Y-125.282
X145.288Y-82.194
X145.339Y-63.144
X145.339Y-101.194
X145.339Y-122.072
X145.878Y-84.354
X145.929Y-65.304
X145.929Y-103.354
X145.929Y-124.232
X156.077Y-86.691
X156.077Y-105.69
X156.128Y-67.743
X156.667Y-84.531
X156.667Y-103.53
X156.718Y-65.583
X157.085Y-125.484
X157.877Y-87.741
X157.877Y-106.74
X157.928Y-68.793
X157.937Y-87.071
X157.937Y-106.07
X157.988Y-68.123
X158.146Y-123.512
X158.603Y-126.912
X158.812Y-126.273
X163.017Y-87.071
X163.017Y-106.07
X163.068Y-68.123
X163.077Y-87.741
X163.077Y-106.74
X163.128Y-68.793
X163.67Y-128.082
X163.762Y-127.416
X164.287Y-84.531
X164.287Y-103.53
X164.338Y-65.583
X164.877Y-86.691
X164.877Y-105.69
X164.928Y-67.743
X165.571Y-125.226
X165.66Y-127.464
X175.076Y-89.079
X175.127Y-70.08
X175.127Y-108.078
X175.666Y-86.919
X175.717Y-67.92
X175.717Y-105.918
X176.351Y-131.268
X176.876Y-90.129
X176.927Y-71.13
X176.927Y-109.128
X176.936Y-89.459
X176.987Y-70.46
X176.987Y-108.458
X177.508Y-133.001
X177.828Y-129.586
X177.856Y-132.425
X182.016Y-89.459
X182.067Y-70.46
X182.067Y-108.458
X182.076Y-90.129
X182.127Y-71.13
X182.127Y-109.128
X182.182Y-135.281
X182.422Y-134.652
X183.286Y-86.919
X183.337Y-67.92
X183.337Y-105.918
X183.876Y-89.079
X183.927Y-70.08
X183.927Y-108.078
X184.26Y-135.126
X184.677Y-132.926
X193.709Y-141.139
X194.448Y-143.088
X194.916Y-142.605
X195.527Y-139.832
X197.022Y-112.955
X197.612Y-110.795
X198.489Y-146.36
X198.822Y-114.005
X198.864Y-145.802
X198.882Y-113.335
X200.548Y-146.677
X201.449Y-144.627
X203.962Y-113.335
X204.022Y-114.005
X205.232Y-110.795
X205.822Y-112.955
T4
X84.48Y-67.767
X84.531Y-86.766
X84.531Y-105.766
X103.48Y-86.766
X103.53Y-67.818
X103.53Y-105.766
X122.53Y-63.043
X122.53Y-81.991
X122.53Y-100.99
X141.478Y-79.654
X141.529Y-60.604
X141.529Y-98.654
X141.529Y-119.532
X160.477Y-81.991
X160.477Y-100.99
X160.528Y-63.043
X162.43Y-121.894
X179.476Y-84.379
X179.527Y-65.38
X179.527Y-103.378
X182.366Y-128.973
X200.087Y-140.255
X201.422Y-108.255
T0
M30
